<?xml version="1.0" encoding="UTF-8" standalone="no"?><!DOCTYPE svg PUBLIC "-//W3C//DTD SVG 1.1//EN" "http://www.w3.org/Graphics/SVG/1.1/DTD/svg11.dtd"><svg width="100%" height="100%" viewBox="0 0 487 189" version="1.1" xmlns="http://www.w3.org/2000/svg" xmlns:xlink="http://www.w3.org/1999/xlink" xml:space="preserve" xmlns:serif="http://www.serif.com/" style="fill-rule:evenodd;clip-rule:evenodd;stroke-linecap:round;stroke-linejoin:round;stroke-miterlimit:1.5;"><g id="Logo"><path d="M53.323,188.705c-22.692,-6.364 -34.263,-20.86 -34.713,-43.488l0,-20.539c0,-14.464 -6.203,-21.695 -18.61,-21.695l0,-17.164c12.407,0 18.61,-7.264 18.61,-21.792l0,-20.443c0.193,-11.571 3.198,-20.924 9.016,-28.059c5.818,-7.136 14.383,-12.311 25.697,-15.525l4.629,13.5c-11.121,3.599 -16.875,13.435 -17.26,29.506l0,20.828c0,14.464 -5.561,24.62 -16.682,30.47c11.121,5.914 16.682,16.168 16.682,30.76l0,20.539c0.385,16.071 6.139,25.906 17.26,29.506l-4.629,13.596Z" style="fill:#80948e;fill-rule:nonzero;"/><path d="M428.919,175.109c11.314,-3.664 17.1,-13.693 17.357,-30.085l0,-20.056c0,-14.85 5.85,-25.039 17.549,-30.567c-11.699,-5.529 -17.549,-15.814 -17.549,-30.857l0,-19.96c-0.257,-16.392 -6.043,-26.42 -17.357,-30.084l4.629,-13.5c11.699,3.278 20.41,8.598 26.131,15.958c5.721,7.361 8.582,16.987 8.582,28.88l0,19.285c0,14.464 6.236,21.696 18.707,21.696l0,17.164c-12.471,0 -18.707,7.231 -18.707,21.695l0,18.996c0,12.021 -2.877,21.712 -8.63,29.072c-5.753,7.361 -14.448,12.68 -26.083,15.959l-4.629,-13.596Z" style="fill:#80948e;fill-rule:nonzero;"/><g transform="matrix(0.777866,0,0,0.777866,-417.87,-121.997)"><path d="M663.032,233.816l4.732,-0.683l20.158,-57.605l13.605,0l20.02,57.605l4.732,0.683l0,7.962l-22.568,0l0,-7.962l4.595,-0.819l-2.912,-9.101l-21.477,0l-2.912,9.101l4.596,0.819l0,7.962l-22.569,0l0,-7.962Zm24.025,-19.703l15.198,0l-7.463,-23.342l-0.273,0l-7.462,23.342Z" style="fill:#80948e;fill-rule:nonzero;"/><path d="M780.972,196.686l-9.964,0l-1.73,-9.1c-1.152,-0.728 -2.836,-1.365 -5.05,-1.911c-2.215,-0.546 -4.566,-0.819 -7.053,-0.819c-3.64,0 -6.454,0.766 -8.441,2.298c-1.986,1.531 -2.98,3.511 -2.98,5.938c0,2.244 1.039,4.087 3.117,5.528c2.078,1.441 5.665,2.965 10.761,4.573c7.311,2.032 12.854,4.717 16.631,8.054c3.777,3.336 5.665,7.72 5.665,13.15c0,5.672 -2.245,10.147 -6.734,13.423c-4.49,3.276 -10.405,4.914 -17.746,4.914c-5.248,0 -9.988,-0.834 -14.219,-2.503c-4.232,-1.668 -7.758,-3.974 -10.579,-6.916l0,-13.832l10.283,0l1.411,9.418c1.334,1.092 3.147,1.995 5.437,2.708c2.29,0.713 4.846,1.069 7.667,1.069c3.64,0 6.408,-0.743 8.304,-2.23c1.896,-1.486 2.844,-3.473 2.844,-5.96c0,-2.548 -0.902,-4.596 -2.707,-6.143c-1.805,-1.547 -4.968,-3.003 -9.487,-4.368c-7.857,-2.275 -13.803,-4.975 -17.837,-8.099c-4.035,-3.125 -6.052,-7.402 -6.052,-12.832c0,-5.369 2.275,-9.76 6.825,-13.173c4.551,-3.412 10.269,-5.164 17.155,-5.255c5.096,0 9.737,0.773 13.923,2.32c4.186,1.548 7.705,3.61 10.556,6.189l0,13.559Z" style="fill:#80948e;fill-rule:nonzero;"/><path d="M787.161,183.536l0,-8.008l27.437,0l0,8.008l-7.098,1.365l0,19.111l27.028,0l0,-19.111l-7.098,-1.365l0,-8.008l27.437,0l0,8.008l-7.098,1.365l0,47.549l7.098,1.366l0,7.962l-27.437,0l0,-7.962l7.098,-1.366l0,-18.2l-27.028,0l0,18.2l7.098,1.366l0,7.962l-27.437,0l0,-7.962l7.052,-1.366l0,-47.549l-7.052,-1.365Z" style="fill:#80948e;fill-rule:nonzero;"/><path d="M860.009,241.778l0,-7.962l7.053,-1.366l0,-47.549l-7.053,-1.365l0,-8.008l27.437,0l0,8.008l-7.098,1.365l0,46.685l18.701,0l0.637,-8.327l10.147,0l0,18.519l-49.824,0Z" style="fill:#80948e;fill-rule:nonzero;"/><path d="M957.382,212.657l-22.432,0l0,18.929l21.386,0l0.591,-7.917l10.102,0l0,18.109l-52.418,0l0,-7.962l7.053,-1.366l0,-47.549l-7.053,-1.365l0,-8.008l52.327,0l0,18.155l-10.193,0l-0.591,-7.917l-21.204,0l0,16.653l22.432,0l0,10.238Z" style="fill:#80948e;fill-rule:nonzero;"/><path d="M998.288,183.536l-5.414,0.774l10.283,21.75l0.273,0l10.283,-21.75l-5.369,-0.774l0,-8.008l25.072,0l0,8.008l-5.643,0.91l-18.018,34.035l0,13.969l7.098,1.366l0,7.962l-27.438,0l0,-7.962l7.099,-1.366l0,-14.651l-17.7,-33.353l-5.597,-0.91l0,-8.008l25.071,0l0,8.008Z" style="fill:#80948e;fill-rule:nonzero;"/><path d="M677.047,254.715l0,8.009l-7.099,1.365l0,56.877l-13.241,0l-26.755,-44.592l-0.273,0.046l0,35.218l7.099,1.365l0,7.963l-27.438,0l0,-7.963l7.053,-1.365l0,-47.549l-7.053,-1.365l0,-8.009l20.339,0l26.755,44.592l0.273,-0.046l0,-35.172l-7.098,-1.365l0,-8.009l27.438,0Z" style="fill:#80948e;fill-rule:nonzero;"/><path d="M724.095,291.845l-22.432,0l0,18.928l21.386,0l0.591,-7.917l10.102,0l0,18.11l-52.418,0l0,-7.963l7.053,-1.365l0,-47.549l-7.053,-1.365l0,-8.009l52.327,0l0,18.155l-10.193,0l-0.591,-7.917l-21.204,0l0,16.654l22.432,0l0,10.238Z" style="fill:#80948e;fill-rule:nonzero;"/><path d="M783.612,291.845l-22.433,0l0,18.928l21.386,0l0.591,-7.917l10.102,0l0,18.11l-52.418,0l0,-7.963l7.053,-1.365l0,-47.549l-7.053,-1.365l0,-8.009l52.327,0l0,18.155l-10.193,0l-0.591,-7.917l-21.204,0l0,16.654l22.433,0l0,10.238Z" style="fill:#80948e;fill-rule:nonzero;"/><path d="M830.16,254.715c8.099,0 14.773,2.586 20.02,7.758c5.248,5.172 7.872,11.808 7.872,19.907l0,10.966c0,8.13 -2.624,14.765 -7.872,19.907c-5.247,5.142 -11.921,7.713 -20.02,7.713l-29.804,0l0,-7.963l7.053,-1.365l0,-47.549l-7.053,-1.365l0,-8.009l29.804,0Zm-9.465,10.238l0,45.82l8.782,0c4.763,0 8.494,-1.607 11.194,-4.823c2.699,-3.215 4.049,-7.417 4.049,-12.604l0,-11.057c0,-5.126 -1.35,-9.297 -4.049,-12.513c-2.7,-3.215 -6.431,-4.823 -11.194,-4.823l-8.782,0Z" style="fill:#80948e;fill-rule:nonzero;"/><path d="M864.559,262.724l0,-8.009l27.437,0l0,8.009l-7.098,1.365l0,19.11l27.028,0l0,-19.11l-7.098,-1.365l0,-8.009l27.437,0l0,8.009l-7.098,1.365l0,47.549l7.098,1.365l0,7.963l-27.437,0l0,-7.963l7.098,-1.365l0,-18.201l-27.028,0l0,18.201l7.098,1.365l0,7.963l-27.437,0l0,-7.963l7.053,-1.365l0,-47.549l-7.053,-1.365Z" style="fill:#80948e;fill-rule:nonzero;"/><path d="M936.725,313.003l4.732,-0.683l20.157,-57.605l13.605,0l20.021,57.605l4.732,0.683l0,7.963l-22.569,0l0,-7.963l4.596,-0.819l-2.912,-9.1l-21.477,0l-2.912,9.1l4.595,0.819l0,7.963l-22.568,0l0,-7.963Zm24.024,-19.702l15.198,0l-7.462,-23.343l-0.273,0l-7.463,23.343Z" style="fill:#80948e;fill-rule:nonzero;"/><path d="M1068.27,271.96l-0.273,-0.045l-17.746,49.051l-8.918,0l-17.655,-48.869l-0.273,0.045l1.274,29.076l0,10.42l7.099,1.365l0,7.963l-27.438,0l0,-7.963l7.053,-1.365l0,-47.549l-7.053,-1.365l0,-8.009l24.389,0l16.881,48.824l0.273,0l17.018,-48.824l24.48,0l0,8.009l-7.099,1.365l0,47.549l7.099,1.365l0,7.963l-27.438,0l0,-7.963l7.053,-1.365l0,-10.42l1.274,-29.258Z" style="fill:#80948e;fill-rule:nonzero;"/></g><path d="M94.755,157.817l-2.699,0.201l4.193,17.21l0.803,4.047l0.109,0l0.985,-4.047l5.834,-19.033l2.06,0l5.815,19.033l0.967,4.102l0.109,-0.018l0.857,-4.084l4.138,-17.21l-2.698,-0.201l0,-1.622l6.928,0l0,1.622l-1.987,0.146l-6.181,24.776l-2.06,0l-6.18,-20.364l-0.693,-2.789l-0.109,0l-0.657,2.789l-6.235,20.364l-2.06,0l-6.18,-24.776l-1.987,-0.146l0,-1.622l6.928,0l0,1.622Z" style="fill:#80948e;fill-rule:nonzero;"/><path d="M139.676,169.886l-10.884,0l0,11.012l12.543,0l0.164,-3.974l1.933,0l0,5.815l-19.781,0l0,-1.604l2.972,-0.237l0,-22.844l-2.972,-0.237l0,-1.622l19.69,0l0,5.834l-1.933,0l-0.164,-3.975l-12.452,0l0,9.973l10.884,0l0,1.859Z" style="fill:#80948e;fill-rule:nonzero;"/><path d="M157.816,156.195c2.759,0 4.908,0.58 6.445,1.741c1.538,1.161 2.306,2.908 2.306,5.241c0,1.362 -0.386,2.547 -1.157,3.555c-0.772,1.009 -1.82,1.708 -3.145,2.097c1.616,0.292 2.929,1.051 3.938,2.279c1.009,1.227 1.513,2.643 1.513,4.248c0,2.37 -0.769,4.193 -2.306,5.469c-1.538,1.276 -3.595,1.914 -6.172,1.914l-12.142,0l0,-1.604l2.972,-0.237l0,-22.844l-2.972,-0.237l0,-1.622l10.72,0Zm-5.578,13.746l0,10.957l7,0c1.957,0 3.495,-0.483 4.613,-1.449c1.118,-0.967 1.677,-2.319 1.677,-4.057c0,-1.592 -0.507,-2.899 -1.522,-3.919c-1.015,-1.021 -2.489,-1.532 -4.421,-1.532l-7.347,0Zm0,-1.841l6.107,0c1.92,0 3.406,-0.423 4.458,-1.267c1.051,-0.845 1.577,-2.088 1.577,-3.729c0,-1.677 -0.559,-2.938 -1.678,-3.783c-1.118,-0.844 -2.747,-1.267 -4.886,-1.267l-5.578,0l0,10.046Z" style="fill:#80948e;fill-rule:nonzero;"/><path d="M190.961,156.195c3.245,0 5.925,1.081 8.04,3.245c2.115,2.163 3.172,4.941 3.172,8.332l0,3.409c0,3.403 -1.057,6.18 -3.172,8.331c-2.115,2.152 -4.795,3.227 -8.04,3.227l-10.684,0l0,-1.604l2.972,-0.237l0,-22.844l-2.972,-0.237l0,-1.622l10.684,0Zm-5.543,1.859l0,22.844l5.543,0c2.625,0 4.785,-0.918 6.481,-2.753c1.695,-1.835 2.543,-4.157 2.543,-6.964l0,-3.464c0,-2.771 -0.851,-5.074 -2.552,-6.91c-1.702,-1.835 -3.859,-2.753 -6.472,-2.753l-5.543,0Z" style="fill:#80948e;fill-rule:nonzero;"/><path d="M221.844,169.886l-10.884,0l0,11.012l12.544,0l0.164,-3.974l1.932,0l0,5.815l-19.781,0l0,-1.604l2.972,-0.237l0,-22.844l-2.972,-0.237l0,-1.622l19.69,0l0,5.834l-1.933,0l-0.164,-3.975l-12.452,0l0,9.973l10.884,0l0,1.859Z" style="fill:#80948e;fill-rule:nonzero;"/><path d="M235.81,157.817l-2.48,0.201l7.329,20.237l0.529,1.768l0.109,0l0.529,-1.768l7.311,-20.237l-2.48,-0.201l0,-1.622l6.892,0l0,1.622l-2.061,0.164l-9.225,24.758l-2.06,0l-9.243,-24.758l-2.042,-0.164l0,-1.622l6.892,0l0,1.622Z" style="fill:#80948e;fill-rule:nonzero;"/><path d="M271.816,169.886l-10.884,0l0,11.012l12.543,0l0.164,-3.974l1.933,0l0,5.815l-19.781,0l0,-1.604l2.972,-0.237l0,-22.844l-2.972,-0.237l0,-1.622l19.69,0l0,5.834l-1.933,0l-0.164,-3.975l-12.452,0l0,9.973l10.884,0l0,1.859Z" style="fill:#80948e;fill-rule:nonzero;"/><path d="M279.236,182.739l0,-1.604l2.972,-0.237l0,-22.844l-2.972,-0.237l0,-1.622l8.132,0l0,1.622l-2.972,0.237l0,22.844l11.03,0l0.164,-3.737l1.932,0l0,5.578l-18.286,0Z" style="fill:#80948e;fill-rule:nonzero;"/><path d="M322.973,169.649c0,3.987 -1.063,7.229 -3.19,9.727c-2.127,2.497 -4.892,3.746 -8.296,3.746c-3.354,0 -6.08,-1.252 -8.176,-3.755c-2.097,-2.504 -3.145,-5.743 -3.145,-9.718l0,-0.346c0,-3.974 1.045,-7.217 3.136,-9.726c2.09,-2.51 4.813,-3.765 8.167,-3.765c3.403,0 6.172,1.255 8.305,3.765c2.133,2.509 3.199,5.752 3.199,9.726l0,0.346Zm-2.188,-0.382c0,-3.44 -0.838,-6.223 -2.515,-8.35c-1.678,-2.127 -3.945,-3.191 -6.801,-3.191c-2.807,0 -5.029,1.064 -6.663,3.191c-1.635,2.127 -2.452,4.91 -2.452,8.35l0,0.382c0,3.464 0.82,6.26 2.461,8.387c1.641,2.127 3.865,3.19 6.672,3.19c2.881,0 5.151,-1.06 6.81,-3.181c1.659,-2.121 2.488,-4.92 2.488,-8.396l0,-0.382Z" style="fill:#80948e;fill-rule:nonzero;"/><path d="M337.485,156.195c2.784,0 4.938,0.708 6.463,2.124c1.526,1.416 2.288,3.29 2.288,5.624c0,2.358 -0.762,4.242 -2.288,5.652c-1.525,1.41 -3.679,2.115 -6.463,2.115l-6.053,0l0,9.188l2.972,0.237l0,1.604l-8.113,0l0,-1.604l2.972,-0.237l0,-22.844l-2.972,-0.237l0,-1.622l11.194,0Zm-6.053,13.655l6.053,0c2.188,0 3.832,-0.556 4.932,-1.668c1.1,-1.112 1.65,-2.513 1.65,-4.203c0,-1.701 -0.547,-3.114 -1.641,-4.238c-1.094,-1.125 -2.741,-1.687 -4.941,-1.687l-6.053,0l0,11.796Z" style="fill:#80948e;fill-rule:nonzero;"/><path d="M365.58,169.886l-10.884,0l0,11.012l12.543,0l0.164,-3.974l1.932,0l0,5.815l-19.781,0l0,-1.604l2.972,-0.237l0,-22.844l-2.972,-0.237l0,-1.622l19.69,0l0,5.834l-1.932,0l-0.165,-3.975l-12.451,0l0,9.973l10.884,0l0,1.859Z" style="fill:#80948e;fill-rule:nonzero;"/><path d="M384.03,156.213c2.844,0 5.028,0.62 6.554,1.86c1.525,1.239 2.288,3.032 2.288,5.378c0,1.385 -0.407,2.631 -1.222,3.737c-0.814,1.106 -1.963,1.908 -3.445,2.407c1.64,0.413 2.822,1.151 3.546,2.215c0.723,1.063 1.084,2.403 1.084,4.02l0,2.425c0,0.935 0.146,1.628 0.438,2.078c0.292,0.45 0.735,0.693 1.331,0.729l0.893,0.055l0,1.622l-1.386,0c-1.288,0 -2.187,-0.437 -2.698,-1.312c-0.51,-0.875 -0.765,-1.945 -0.765,-3.209l0,-2.352c0,-1.604 -0.514,-2.877 -1.541,-3.819c-1.027,-0.942 -2.458,-1.431 -4.293,-1.468l-6.673,0l0,10.319l2.972,0.255l0,1.586l-8.113,0l0,-1.586l2.971,-0.255l0,-22.825l-2.971,-0.256l0,-1.604l11.03,0Zm-5.889,12.507l5.633,0c2.395,0 4.145,-0.48 5.251,-1.441c1.106,-0.96 1.659,-2.242 1.659,-3.846c0,-1.702 -0.553,-3.021 -1.659,-3.957c-1.106,-0.936 -2.771,-1.403 -4.995,-1.403l-5.889,0l0,10.647Z" style="fill:#80948e;fill-rule:nonzero;"/><path d="M52.885,143.109l379.099,0" style="fill:#80948e;stroke:#689186;stroke-width:0.91px;"/></g></svg>