<?xml version="1.0" encoding="UTF-8" standalone="no"?>
<!DOCTYPE svg PUBLIC "-//W3C//DTD SVG 1.1//EN" "http://www.w3.org/Graphics/SVG/1.1/DTD/svg11.dtd">
<svg width="100%" height="100%" viewBox="0 0 2486 19" version="1.1" xmlns="http://www.w3.org/2000/svg" xmlns:xlink="http://www.w3.org/1999/xlink" xml:space="preserve" xmlns:serif="http://www.serif.com/" style="fill-rule:evenodd;clip-rule:evenodd;stroke-linecap:round;stroke-linejoin:round;stroke-miterlimit:1.5;">
    <g transform="matrix(1,0,0,1,-10.2346,-1146.49)">
        <g transform="matrix(1,0,0,3.42049,303.263,45.867)">
            <g transform="matrix(1,0,0,0.292356,-303.263,-13.4095)">
                <path d="M2495.2,1152.52C2466.24,1152.52 2153.48,1146.03 2137.64,1153.95C2123.86,1160.85 1847.75,1157.91 1812.08,1153.95C1722.89,1144.04 1634.24,1148.31 1544.86,1148.31C1511.8,1148.31 1413.55,1148.87 1397.33,1152.12C1365.7,1158.44 1226.72,1166.91 1172.23,1156.01C1141.78,1149.92 1004.66,1152.91 980.055,1153.17C924.783,1153.74 892.767,1149.97 815.354,1150.5C785.916,1150.71 670.957,1150.23 635.418,1154.18C618.063,1156.11 523.021,1154.37 505.644,1156.1C455.009,1161.17 410.916,1158.92 341.605,1161.48C298.74,1163.06 301.337,1164.46 244.832,1163.59C212.682,1163.09 191.569,1160.05 108.751,1158.59C85.774,1158.18 32.848,1157.71 11.135,1157.71" style="fill:none;stroke:black;stroke-width:1.8px;"/>
            </g>
        </g>
    </g>
</svg>
