<?xml version="1.0" encoding="UTF-8" standalone="no"?><!DOCTYPE svg PUBLIC "-//W3C//DTD SVG 1.1//EN" "http://www.w3.org/Graphics/SVG/1.1/DTD/svg11.dtd"><svg width="100%" height="100%" viewBox="0 0 458 261" version="1.1" xmlns="http://www.w3.org/2000/svg" xmlns:xlink="http://www.w3.org/1999/xlink" xml:space="preserve" xmlns:serif="http://www.serif.com/" style="fill-rule:evenodd;clip-rule:evenodd;stroke-linecap:round;stroke-linejoin:round;stroke-miterlimit:1.5;"><g id="Phones"><path d="M70.927,78.063l0.577,0.005l0.559,0.007l0.54,0.008l0.56,0.01l0.559,0.012l0.541,0.013l0.524,0.013l0.543,0.016l0.542,0.018l0.526,0.018l0.509,0.018l0.509,0.02l0.527,0.021l0.511,0.022l0.512,0.023l0.527,0.025l0.961,0.047l0.987,0.052l0.967,0.053l0.953,0.056l0.948,0.057l0.928,0.057l0.906,0.058l0.903,0.059l0.903,0.059l1.725,0.116l1.684,0.114l1.645,0.11l0.79,0.051l0.787,0.051l0.765,0.048l0.751,0.046l0.737,0.044l0.722,0.041l0.714,0.038l0.692,0.036l0.699,0.034l0.302,0.014l0.317,0.014l0.3,0.012l0.539,-0.518l1.379,-1.247l1.469,-1.247l1.559,-1.236l1.347,-0.996l0.866,-0.611l0.647,-0.445l0.64,-0.43l0.638,-0.417l0.621,-0.396l0.61,-0.38l0.604,-0.367l0.55,-0.326l0.585,-0.341l0.579,-0.328l0.569,-0.317l0.561,-0.304l0.507,-0.27l0.544,-0.283l0.538,-0.275l0.482,-0.241l0.522,-0.256l0.515,-0.247l0.465,-0.219l0.455,-0.211l0.496,-0.226l0.489,-0.217l0.437,-0.192l0.478,-0.205l0.472,-0.199l0.375,-0.156l0.413,-0.169l0.551,-0.221l0.754,-0.295l0.811,-0.307l0.794,-0.291l0.777,-0.277l0.741,-0.255l0.726,-0.245l0.737,-0.24l0.702,-0.222l0.669,-0.207l0.681,-0.206l0.673,-0.197l0.621,-0.178l0.633,-0.177l0.647,-0.177l0.62,-0.165l0.572,-0.149l0.586,-0.151l0.602,-0.15l0.576,-0.142l0.571,-0.137l0.547,-0.129l0.544,-0.126l0.54,-0.124l0.536,-0.12l0.532,-0.117l0.53,-0.115l0.508,-0.109l0.487,-0.102l0.521,-0.109l0.501,-0.102l0.479,-0.097l0.497,-0.099l0.475,-0.094l0.497,-0.097l0.909,-0.175l0.908,-0.172l0.884,-0.164l0.878,-0.161l0.853,-0.154l0.837,-0.151l1.581,-0.281l1.529,-0.272l0.731,-0.13l0.701,-0.125l0.672,-0.121l0.252,-0.046l0.006,-0.007l0.421,-0.492l0.453,-0.525l0.472,-0.545l0.507,-0.579l0.511,-0.579l0.292,-0.328l0.285,-0.319l0.296,-0.329l0.301,-0.332l0.317,-0.348l0.309,-0.336l0.317,-0.343l0.338,-0.362l0.341,-0.363l0.347,-0.366l0.342,-0.357l0.375,-0.389l0.376,-0.386l0.362,-0.369l0.393,-0.396l0.408,-0.406l0.393,-0.387l0.413,-0.404l0.433,-0.417l0.424,-0.405l0.428,-0.404l0.451,-0.42l0.458,-0.422l0.45,-0.409l0.482,-0.434l0.477,-0.422l0.481,-0.422l0.504,-0.434l0.511,-0.436l0.517,-0.434l0.506,-0.419l0.529,-0.432l0.533,-0.428l0.553,-0.439l0.563,-0.439l0.552,-0.425l0.554,-0.419l0.579,-0.432l0.601,-0.441l0.41,-0.295l6.315,-3.954l0.006,-0.004l6.791,-3.1l0.008,-0.004l7.166,-2.192l0.01,-0.002l5.262,-0.98l1.864,-0.257l4.106,-0.294l3.429,0.022l2.06,0.098l1.751,0.135l1.296,0.14l0.932,0.113l0.804,0.111l0.684,0.101l0.694,0.112l0.594,0.101l0.745,0.133l0.761,0.144l0.681,0.135l0.625,0.128l0.593,0.125l0.553,0.119l0.542,0.119l0.555,0.123l0.539,0.122l0.524,0.119l0.559,0.129l0.566,0.132l1.066,0.251l1.122,0.267l1.144,0.275l1.169,0.283l1.173,0.287l1.184,0.291l1.194,0.295l1.187,0.294l1.179,0.293l1.163,0.291l1.142,0.286l2.165,0.544l1.988,0.501l0.246,0.062l0.141,-0.006l0.267,-0.012l0.29,-0.013l0.311,-0.016l0.304,-0.017l0.324,-0.018l0.344,-0.021l0.322,-0.02l0.355,-0.024l0.373,-0.025l0.35,-0.025l0.368,-0.027l0.385,-0.029l0.388,-0.031l0.404,-0.033l0.394,-0.032l0.409,-0.035l0.412,-0.036l0.4,-0.036l0.441,-0.041l0.428,-0.04l0.418,-0.04l0.431,-0.042l0.443,-0.044l0.444,-0.045l0.444,-0.046l0.456,-0.048l0.443,-0.047l0.455,-0.05l0.454,-0.049l0.452,-0.051l0.463,-0.053l0.462,-0.053l0.472,-0.055l0.458,-0.054l0.455,-0.054l0.465,-0.057l0.461,-0.056l0.472,-0.059l0.468,-0.059l0.464,-0.059l0.461,-0.059l0.444,-0.058l0.948,-0.125l0.913,-0.122l0.911,-0.126l0.908,-0.127l0.89,-0.126l0.87,-0.127l0.868,-0.128l0.852,-0.128l0.819,-0.126l0.813,-0.127l0.796,-0.126l0.758,-0.122l0.739,-0.122l0.709,-0.118l0.677,-0.116l0.652,-0.113l0.606,-0.107l0.211,-0.038l0.108,-0.064l0.074,-0.045l0.105,-0.063l0.134,-0.082l0.094,-0.058l0.089,-0.055l0.118,-0.074l0.113,-0.07l0.109,-0.069l0.104,-0.067l0.108,-0.069l0.108,-0.069l0.103,-0.068l0.098,-0.064l0.104,-0.069l0.128,-0.085l0.096,-0.064l0.088,-0.06l0.11,-0.075l0.103,-0.07l0.113,-0.078l0.091,-0.063l0.085,-0.06l0.093,-0.065l0.083,-0.058l0.009,-0.007l0.144,-0.165l1.141,-1.226l1.277,-1.299l1.282,-1.219l1.244,-1.123l1.265,-1.073l1.264,-1.017l1.361,-1.032l1.275,-0.911l1.278,-0.866l1.295,-0.827l1.269,-0.768l1.267,-0.722l1.18,-0.638l1.253,-0.642l1.235,-0.594l1.214,-0.553l1.129,-0.482l1.104,-0.45l1.168,-0.446l1.154,-0.415l1.053,-0.354l1.029,-0.328l1.015,-0.302l0.997,-0.28l0.982,-0.256l0.959,-0.236l0.935,-0.212l0.926,-0.198l0.909,-0.177l0.8,-0.146l0.877,-0.148l0.859,-0.132l0.757,-0.105l0.745,-0.097l0.814,-0.094l0.798,-0.082l0.705,-0.064l0.613,-0.05l0.758,-0.054l0.67,-0.039l0.657,-0.033l0.647,-0.025l0.561,-0.018l0.702,-0.014l0.618,-0.007l0.535,-0.001l0.528,0.003l0.592,0.007l0.584,0.013l0.605,0.018l0.925,0.038l1.004,0.055l0.98,0.067l0.896,0.074l0.878,0.082l0.863,0.091l0.818,0.095l0.807,0.103l0.766,0.105l0.757,0.112l0.719,0.112l0.686,0.113l0.68,0.118l0.675,0.122l0.645,0.122l0.642,0.126l0.613,0.125l0.586,0.123l0.585,0.127l0.585,0.131l0.56,0.128l0.535,0.126l0.539,0.129l0.514,0.126l0.517,0.13l0.519,0.132l0.497,0.13l0.479,0.127l0.456,0.122l0.483,0.132l0.465,0.129l0.445,0.125l0.45,0.128l0.43,0.124l0.435,0.126l0.414,0.123l0.445,0.132l0.778,0.235l0.774,0.238l0.042,0.013l0.61,-0.196l0.718,-0.229l0.775,-0.245l0.466,-0.146l0.46,-0.142l0.467,-0.143l0.495,-0.151l0.524,-0.156l0.551,-0.163l0.601,-0.173l0.589,-0.167l0.618,-0.171l0.647,-0.175l0.675,-0.178l0.702,-0.18l0.712,-0.177l0.739,-0.177l0.745,-0.173l0.795,-0.178l0.82,-0.175l0.797,-0.163l0.484,-0.094l0.395,-0.076l0.438,-0.082l0.438,-0.079l0.441,-0.078l0.44,-0.075l0.438,-0.073l0.441,-0.071l0.484,-0.075l0.482,-0.072l0.484,-0.069l0.484,-0.067l0.442,-0.058l0.482,-0.061l0.481,-0.058l0.482,-0.056l0.483,-0.052l0.521,-0.055l0.479,-0.046l0.479,-0.044l0.56,-0.048l0.477,-0.038l0.515,-0.038l0.515,-0.034l0.472,-0.029l0.551,-0.031l0.51,-0.025l0.506,-0.022l0.545,-0.02l0.503,-0.016l0.54,-0.013l0.537,-0.01l0.496,-0.006l0.531,-0.004l0.53,0l0.526,0.003l0.561,0.007l0.52,0.01l0.479,0.011l0.551,0.016l0.548,0.021l0.507,0.021l0.541,0.026l0.536,0.029l0.533,0.032l0.566,0.038l0.526,0.039l0.485,0.038l0.517,0.044l0.549,0.049l0.545,0.053l0.505,0.051l0.537,0.058l0.532,0.061l0.493,0.059l0.524,0.065l0.552,0.073l0.514,0.07l0.51,0.073l0.508,0.075l0.534,0.082l0.529,0.084l0.494,0.082l0.521,0.088l0.486,0.086l0.512,0.092l0.539,0.101l0.504,0.096l0.498,0.099l0.497,0.1l0.52,0.108l0.515,0.11l0.484,0.105l0.48,0.107l0.503,0.114l0.526,0.123l0.497,0.118l0.465,0.113l0.488,0.121l0.511,0.129l0.506,0.13l0.477,0.125l0.473,0.127l0.495,0.134l0.491,0.135l0.489,0.138l0.462,0.132l0.479,0.138l0.502,0.148l0.475,0.142l0.496,0.15l0.468,0.144l0.464,0.144l0.487,0.154l0.483,0.154l0.479,0.156l0.478,0.157l0.472,0.157l0.451,0.152l0.49,0.166l0.485,0.167l0.447,0.156l0.482,0.169l0.403,0.144l6.839,2.954l6.395,3.821l5.841,4.623l5.188,5.347l4.445,5.977l3.628,6.507l2.747,6.924l1.819,7.224l0.862,7.399l-0.112,7.449l-1.084,7.37l-1.613,5.678l0.15,0.281l0.327,0.631l0.31,0.613l0.308,0.622l0.292,0.605l0.286,0.605l0.287,0.623l0.268,0.596l0.266,0.605l0.259,0.605l0.243,0.58l0.239,0.585l0.238,0.596l0.225,0.579l0.222,0.584l0.215,0.579l0.205,0.569l0.197,0.558l0.191,0.555l0.191,0.567l0.186,0.569l0.174,0.544l0.168,0.543l0.169,0.554l0.16,0.542l0.153,0.532l0.148,0.531l0.148,0.54l0.14,0.529l0.135,0.519l0.13,0.518l0.127,0.518l0.122,0.517l0.115,0.497l0.116,0.514l0.11,0.506l0.103,0.486l0.106,0.512l0.098,0.494l0.094,0.485l0.091,0.485l0.087,0.481l0.086,0.491l0.079,0.467l0.078,0.473l0.076,0.479l0.071,0.462l0.069,0.465l0.067,0.471l0.063,0.461l0.058,0.444l0.058,0.455l0.056,0.463l0.053,0.449l0.049,0.443l0.047,0.439l0.045,0.442l0.043,0.443l0.04,0.431l0.038,0.432l0.037,0.435l0.033,0.427l0.032,0.43l0.03,0.428l0.027,0.417l0.03,0.482l0.042,0.766l0.038,0.83l0.031,0.813l0.025,0.809l0.017,0.801l0.011,0.787l0.006,0.787l-0.001,0.781l-0.006,0.771l-0.012,0.762l-0.017,0.757l-0.023,0.754l-0.027,0.743l-0.032,0.735l-0.037,0.731l-0.041,0.728l-0.046,0.725l-0.05,0.716l-0.054,0.712l-0.059,0.705l-0.062,0.698l-0.067,0.699l-0.07,0.692l-0.074,0.687l-0.078,0.683l-0.082,0.678l-0.085,0.676l-0.09,0.676l-0.092,0.665l-0.096,0.664l-0.1,0.663l-0.102,0.653l-0.107,0.661l-0.111,0.654l-0.113,0.648l-0.118,0.648l-0.121,0.651l-0.124,0.64l-0.129,0.643l-0.133,0.648l-0.136,0.641l-0.14,0.638l-0.143,0.636l-0.15,0.644l-0.153,0.641l-0.157,0.641l-0.165,0.651l-0.168,0.645l-0.139,0.522l0.024,0.484l0.025,0.588l0.022,0.614l0.019,0.648l0.013,0.659l0.009,0.685l0.003,0.711l-0.004,0.739l-0.011,0.757l-0.019,0.784l-0.029,0.812l-0.038,0.831l-0.049,0.864l-0.061,0.876l-0.073,0.904l-0.088,0.937l-0.103,0.958l-0.118,0.975l-0.135,1.001l-0.14,0.929l-0.103,0.636l-0.085,0.502l-0.095,0.542l-0.104,0.557l-0.096,0.498l-0.112,0.557l-0.12,0.572l-0.122,0.558l-0.126,0.556l-0.131,0.555l-0.143,0.585l-0.149,0.584l-0.149,0.566l-0.159,0.582l-0.168,0.595l-0.168,0.576l-0.184,0.608l-0.188,0.601l-0.189,0.588l-0.205,0.616l-0.209,0.608l-0.211,0.595l-0.227,0.623l-0.224,0.596l-0.238,0.616l-0.249,0.626l-0.255,0.623l-0.267,0.632l-0.256,0.59l-0.277,0.624l-0.29,0.632l-0.288,0.614l-0.3,0.622l-0.312,0.63l-0.311,0.612l-0.323,0.618l-0.334,0.625l-0.317,0.578l-0.343,0.613l-0.372,0.646l-0.361,0.611l-0.365,0.603l-0.369,0.596l-0.38,0.6l-0.384,0.593l-0.388,0.584l-0.399,0.588l-0.402,0.58l-0.427,0.601l-0.416,0.573l-0.427,0.575l-0.445,0.585l-0.424,0.547l-0.442,0.557l-0.444,0.548l-0.438,0.529l-0.473,0.56l-0.45,0.52l-0.457,0.52l-0.493,0.547l-0.488,0.531l-0.468,0.498l-0.469,0.49l-0.497,0.509l-0.477,0.478l-0.506,0.497l-0.483,0.466l-0.483,0.457l-0.536,0.496l-0.489,0.444l-0.495,0.441l-0.511,0.446l-0.517,0.443l-0.53,0.445l-0.49,0.403l-0.487,0.395l-0.525,0.417l-0.563,0.438l-0.489,0.373l-0.493,0.37l-0.557,0.41l-0.353,0.254l-0.178,0.128l-0.072,0.052l-0.098,0.072l-0.12,0.088l-0.381,0.281l-0.473,0.35l-0.555,0.412l-0.633,0.468l-0.691,0.508l-0.395,0.29l-0.408,0.298l-0.424,0.307l-0.436,0.315l-0.449,0.322l-0.461,0.329l-0.499,0.353l-0.499,0.35l-0.512,0.357l-0.547,0.377l-0.549,0.375l-0.563,0.381l-0.589,0.394l-0.602,0.397l-0.627,0.41l-0.645,0.415l-0.659,0.419l-0.629,0.394l-0.383,0.237l-0.357,0.219l-0.383,0.232l-0.354,0.214l-0.349,0.208l-0.4,0.237l-0.376,0.221l-0.399,0.232l-0.4,0.229l-0.369,0.21l-0.419,0.236l-0.424,0.236l-0.419,0.231l-0.417,0.227l-0.42,0.225l-0.472,0.251l-0.447,0.233l-0.446,0.231l-0.47,0.239l-0.472,0.238l-0.504,0.249l-0.475,0.231l-0.504,0.242l-0.507,0.239l-0.504,0.234l-0.568,0.258l-0.538,0.241l-0.54,0.236l-0.579,0.249l-0.574,0.241l-0.579,0.238l-0.588,0.236l-0.616,0.243l-0.622,0.238l-0.662,0.247l-0.663,0.24l-0.636,0.224l-0.713,0.244l-0.714,0.236l-0.687,0.22l-0.729,0.225l-0.771,0.23l-0.743,0.212l-0.788,0.216l-0.836,0.218l-0.842,0.209l-0.851,0.2l-0.822,0.183l-0.914,0.192l-0.922,0.179l-0.893,0.163l-0.644,0.107l-0.196,0.098l-0.717,0.352l-0.723,0.352l-0.428,0.206l-0.43,0.206l-0.426,0.203l-0.446,0.21l-0.446,0.208l-0.464,0.215l-0.501,0.23l-0.501,0.226l-0.52,0.233l-0.522,0.231l-0.539,0.234l-0.58,0.249l-0.582,0.246l-0.58,0.241l-0.602,0.246l-0.625,0.251l-0.644,0.253l-0.668,0.257l-0.671,0.252l-0.693,0.255l-0.718,0.257l-0.74,0.259l-0.764,0.259l-0.77,0.253l-0.795,0.253l-0.798,0.246l-0.759,0.226l-0.538,0.155l-0.402,0.113l-0.449,0.125l-0.454,0.122l-0.409,0.109l-0.5,0.129l-0.455,0.115l-0.46,0.113l-0.455,0.109l-0.46,0.108l-0.512,0.116l-0.508,0.112l-0.513,0.11l-0.467,0.096l-0.514,0.103l-0.518,0.099l-0.518,0.097l-0.568,0.101l-0.524,0.089l-0.525,0.086l-0.525,0.082l-0.575,0.086l-0.578,0.081l-0.53,0.071l-0.582,0.073l-0.584,0.069l-0.586,0.064l-0.586,0.06l-0.638,0.06l-0.591,0.049l-0.591,0.046l-0.645,0.043l-0.594,0.036l-0.647,0.033l-0.648,0.027l-0.65,0.021l-0.651,0.015l-0.652,0.01l-0.653,0.004l-0.654,-0.003l-0.707,-0.009l-0.655,-0.015l-0.656,-0.021l-0.761,-0.032l-0.709,-0.038l-0.657,-0.041l-0.709,-0.051l-0.709,-0.058l-0.709,-0.066l-0.709,-0.073l-0.759,-0.086l-0.757,-0.095l-0.656,-0.089l-0.757,-0.109l-0.753,-0.119l-0.754,-0.127l-0.751,-0.135l-0.75,-0.143l-0.747,-0.152l-0.744,-0.159l-0.787,-0.178l-0.738,-0.176l-0.738,-0.184l-0.779,-0.204l-0.778,-0.214l-0.723,-0.207l-0.765,-0.229l-0.768,-0.24l-0.755,-0.245l-0.796,-0.269l-0.752,-0.264l-0.741,-0.27l-0.776,-0.293l-0.73,-0.286l-0.727,-0.294l-0.801,-0.335l-0.751,-0.326l-0.614,-0.274l-0.521,-0.238l-0.489,-0.227l-0.426,-0.201l-0.427,-0.204l-0.493,-0.239l-0.426,-0.21l-0.428,-0.214l-0.424,-0.215l-0.464,-0.238l-0.465,-0.244l-0.352,-0.186l-0.468,0.419l-0.504,0.444l-0.541,0.465l-0.508,0.428l-0.519,0.428l-0.593,0.479l-0.521,0.411l-0.522,0.404l-0.561,0.424l-0.524,0.388l-0.531,0.386l-0.581,0.412l-0.614,0.426l-0.532,0.36l-0.54,0.359l-0.573,0.371l-0.58,0.369l-0.589,0.365l-0.535,0.325l-0.586,0.348l-0.585,0.339l-0.531,0.301l-0.581,0.323l-0.634,0.342l-0.531,0.281l-0.59,0.306l-0.581,0.292l-0.578,0.285l-0.576,0.276l-0.525,0.247l-0.631,0.29l-0.567,0.253l-0.576,0.251l-0.574,0.243l-0.558,0.232l-0.621,0.251l-0.513,0.201l-0.558,0.216l-0.61,0.227l-0.551,0.201l-0.552,0.195l-0.548,0.189l-0.544,0.183l-0.595,0.195l-0.537,0.169l-0.535,0.166l-0.587,0.175l-0.527,0.154l-0.523,0.147l-0.573,0.158l-0.569,0.15l-0.46,0.119l-0.563,0.141l-0.559,0.134l-0.501,0.118l-0.497,0.112l-0.548,0.121l-0.544,0.114l-0.486,0.099l-0.535,0.105l-0.479,0.091l-0.354,0.065l-0.552,0.099l-0.401,0.074l-0.415,0.078l-0.426,0.081l-0.46,0.089l-0.47,0.092l-0.489,0.097l-0.519,0.104l-0.517,0.104l-0.513,0.105l-1.143,0.234l-1.166,0.242l-1.209,0.25l-1.257,0.262l-1.291,0.267l-1.313,0.27l-0.697,0.141l-0.682,0.138l-0.705,0.141l-0.706,0.14l-0.718,0.141l-0.731,0.142l-0.722,0.137l-0.758,0.143l-0.76,0.14l-0.779,0.141l-0.437,0.077l-0.462,0.079l-0.464,0.077l-0.433,0.07l-0.472,0.074l-0.476,0.071l-0.479,0.07l-0.442,0.061l-0.446,0.061l-0.488,0.063l-0.491,0.061l-0.496,0.058l-0.458,0.052l-0.46,0.049l-0.465,0.047l-0.467,0.046l-0.512,0.046l-0.517,0.044l-0.475,0.037l-0.481,0.035l-0.484,0.033l-0.487,0.03l-0.49,0.027l-0.538,0.027l-0.497,0.021l-0.501,0.019l-0.504,0.015l-0.462,0.012l-0.556,0.01l-0.515,0.006l-0.472,0.003l-0.521,0l-0.525,-0.003l-0.528,-0.007l-0.532,-0.011l-0.536,-0.014l-0.491,-0.017l-0.495,-0.019l-0.594,-0.027l-0.549,-0.03l-0.456,-0.028l-0.557,-0.037l-0.559,-0.041l-0.515,-0.042l-0.566,-0.05l-0.52,-0.05l-0.524,-0.053l-0.576,-0.064l-0.531,-0.062l-0.582,-0.072l-0.535,-0.072l-0.54,-0.075l-0.54,-0.08l-0.546,-0.084l-0.599,-0.097l-0.55,-0.094l-0.552,-0.099l-0.502,-0.093l-0.558,-0.108l-0.614,-0.124l-0.564,-0.119l-0.567,-0.124l-0.563,-0.129l-0.517,-0.121l-0.575,-0.14l-0.574,-0.145l-0.576,-0.15l-0.526,-0.142l-0.581,-0.16l-0.582,-0.168l-0.529,-0.156l-0.583,-0.177l-0.588,-0.185l-0.586,-0.19l-0.536,-0.178l-0.541,-0.184l-0.539,-0.189l-0.592,-0.213l-0.593,-0.219l-0.537,-0.204l-0.539,-0.21l-0.544,-0.216l-0.597,-0.244l-0.541,-0.227l-0.548,-0.234l-0.592,-0.261l-0.543,-0.244l-0.543,-0.249l-0.487,-0.23l-0.544,-0.26l-0.593,-0.291l-0.543,-0.273l-0.537,-0.275l-0.543,-0.285l-0.487,-0.261l-0.536,-0.291l-0.589,-0.329l-0.48,-0.273l-0.486,-0.281l-0.532,-0.315l-0.577,-0.347l-0.477,-0.295l-0.483,-0.302l-0.527,-0.337l-0.51,-0.332l-0.524,-0.348l-0.434,-0.294l-0.505,-0.347l-0.511,-0.358l-0.466,-0.332l-0.506,-0.368l-0.462,-0.343l-0.453,-0.341l-0.451,-0.345l-0.497,-0.386l-0.453,-0.362l-0.437,-0.351l-0.48,-0.395l-0.409,-0.341l-0.437,-0.371l-0.464,-0.4l-0.166,-0.145l-0.471,0.34l-0.655,0.462l-0.739,0.507l-0.743,0.495l-0.719,0.465l-0.763,0.48l-0.73,0.444l-0.739,0.439l-0.784,0.449l-0.755,0.421l-0.757,0.408l-0.763,0.399l-0.771,0.391l-0.777,0.381l-0.784,0.371l-0.779,0.357l-0.795,0.352l-0.746,0.318l-0.745,0.308l-0.811,0.323l-0.753,0.288l-0.809,0.3l-0.761,0.269l-0.764,0.262l-0.767,0.25l-0.764,0.242l-0.826,0.248l-0.715,0.205l-0.713,0.197l-0.772,0.204l-0.777,0.195l-0.772,0.184l-0.772,0.175l-0.661,0.141l-0.77,0.158l-0.776,0.147l-0.658,0.119l-0.714,0.121l-0.716,0.114l-0.769,0.114l-0.71,0.096l-0.653,0.082l-0.71,0.083l-0.705,0.074l-0.649,0.062l-0.648,0.056l-0.701,0.054l-0.699,0.046l-0.642,0.036l-0.639,0.03l-0.637,0.024l-0.635,0.019l-0.689,0.014l-0.575,0.006l-0.628,0.002l-0.627,-0.005l-0.569,-0.008l-0.622,-0.014l-0.619,-0.02l-0.563,-0.023l-0.56,-0.026l-0.613,-0.034l-0.556,-0.035l-0.609,-0.044l-0.551,-0.044l-0.496,-0.043l-0.548,-0.052l-0.546,-0.055l-0.544,-0.059l-0.542,-0.063l-0.487,-0.06l-0.538,-0.07l-0.536,-0.074l-0.481,-0.069l-0.481,-0.073l-0.48,-0.075l-0.528,-0.087l-0.475,-0.081l-0.424,-0.075l-0.524,-0.095l-0.471,-0.09l-0.419,-0.082l-0.469,-0.094l-0.467,-0.097l-0.537,-0.115l-0.783,-0.174l-0.849,-0.199l-0.846,-0.207l-0.818,-0.21l-0.815,-0.217l-0.788,-0.218l-0.762,-0.219l-0.761,-0.226l-0.734,-0.225l-0.711,-0.225l-0.711,-0.231l-0.707,-0.236l-0.686,-0.235l-0.664,-0.234l-0.641,-0.23l-0.641,-0.236l-0.62,-0.233l-0.621,-0.238l-0.621,-0.242l-0.602,-0.24l-0.561,-0.227l-0.561,-0.231l-0.563,-0.236l-0.545,-0.231l-0.546,-0.236l-0.528,-0.231l-0.509,-0.226l-0.512,-0.23l-0.515,-0.234l-0.476,-0.219l-0.459,-0.214l-0.481,-0.226l-0.465,-0.221l-0.448,-0.215l-0.45,-0.219l-0.434,-0.212l-0.416,-0.206l-0.421,-0.209l-0.404,-0.203l-0.385,-0.194l-0.411,-0.209l-0.411,-0.211l-0.691,-0.357l-0.711,-0.372l-0.663,-0.35l-0.625,-0.333l-0.598,-0.321l-0.581,-0.313l-0.964,-0.523l-0.855,-0.463l-0.351,-0.191l-0.041,-0.022l-0.025,-0.009l-0.163,-0.06l-0.168,-0.062l-0.172,-0.062l-0.159,-0.057l-0.198,-0.07l-0.201,-0.071l-0.189,-0.066l-0.209,-0.073l-0.23,-0.078l-0.233,-0.08l-0.221,-0.074l-0.217,-0.073l-0.54,-0.179l-0.528,-0.173l-0.565,-0.183l-0.593,-0.191l-0.612,-0.195l-0.638,-0.202l-0.665,-0.21l-1.427,-0.449l-1.479,-0.467l-0.803,-0.254l-0.815,-0.26l-0.838,-0.27l-0.863,-0.28l-0.87,-0.285l-0.88,-0.291l-0.503,-0.169l-0.474,-0.16l-0.457,-0.156l-0.478,-0.163l-0.497,-0.172l-0.498,-0.174l-0.502,-0.177l-0.651,-0.232l-0.817,-0.299l-0.928,-0.358l-0.859,-0.346l-0.907,-0.38l-0.845,-0.369l-0.83,-0.377l-0.873,-0.411l-0.763,-0.374l-0.8,-0.403l-0.79,-0.414l-0.687,-0.37l-0.721,-0.4l-0.757,-0.432l-0.661,-0.39l-0.65,-0.39l-0.681,-0.423l-0.629,-0.399l-0.622,-0.405l-0.569,-0.379l-0.566,-0.385l-0.598,-0.415l-0.544,-0.388l-0.541,-0.392l-0.535,-0.396l-0.487,-0.367l-0.479,-0.368l-0.476,-0.371l-0.471,-0.375l-0.461,-0.372l-0.456,-0.376l-0.414,-0.345l-0.378,-0.321l-0.409,-0.35l-0.433,-0.378l-0.363,-0.321l-0.362,-0.325l-0.356,-0.323l-0.406,-0.373l-0.62,-0.579l-0.619,-0.593l-0.591,-0.576l-0.567,-0.565l-0.542,-0.55l-0.49,-0.506l-0.472,-0.493l-0.295,-0.314l-0.024,0l-0.479,-0.01l-0.483,-0.013l-0.488,-0.016l-0.552,-0.022l-0.558,-0.027l-0.503,-0.028l-0.569,-0.036l-0.576,-0.041l-0.52,-0.041l-0.589,-0.051l-0.658,-0.063l-0.602,-0.064l-0.611,-0.069l-0.616,-0.076l-0.689,-0.091l-0.633,-0.092l-0.642,-0.097l-0.715,-0.117l-0.725,-0.126l-0.73,-0.137l-0.677,-0.133l-0.752,-0.157l-0.763,-0.169l-0.771,-0.18l-0.847,-0.209l-0.795,-0.209l-0.734,-0.201l-0.878,-0.253l-0.891,-0.271l-0.832,-0.267l-0.911,-0.305l-0.853,-0.302l-0.93,-0.342l-0.939,-0.366l-0.881,-0.356l-1.027,-0.437l-0.969,-0.433l-0.972,-0.453l-0.979,-0.479l-0.988,-0.503l-1.058,-0.566l-1.001,-0.56l-1.067,-0.623l-1.061,-0.651l-0.946,-0.605l-1.071,-0.713l-1.074,-0.753l-0.88,-0.642l-0.928,-0.703l-0.927,-0.734l-1.005,-0.826l-1.399,-1.213l-1.585,-1.477l-1.563,-1.569l-1.426,-1.545l-1.357,-1.572l-1.291,-1.611l-1.191,-1.59l-1.156,-1.659l-1.058,-1.634l-0.962,-1.595l-0.903,-1.606l-0.838,-1.604l-0.774,-1.597l-0.698,-1.556l-0.645,-1.549l-0.585,-1.525l-0.523,-1.48l-0.477,-1.467l-0.429,-1.445l-0.379,-1.401l-0.336,-1.366l-0.299,-1.351l-0.261,-1.318l-0.226,-1.283l-0.194,-1.256l-0.164,-1.228l-0.136,-1.202l-0.11,-1.174l-0.085,-1.136l-0.064,-1.117l-0.043,-1.094l-0.023,-1.067l-0.006,-1.044l0.012,-1.019l0.027,-1.002l0.042,-0.984l0.055,-0.952l0.068,-0.932l0.081,-0.93l0.092,-0.904l0.102,-0.877l0.114,-0.881l0.124,-0.862l0.13,-0.826l0.141,-0.83l0.148,-0.81l0.157,-0.803l0.167,-0.797l0.17,-0.77l0.183,-0.78l0.189,-0.766l0.191,-0.737l0.202,-0.744l0.21,-0.739l0.21,-0.709l0.221,-0.721l0.23,-0.716l0.236,-0.712l0.242,-0.699l0.245,-0.688l0.25,-0.675l0.26,-0.684l0.275,-0.699l0.278,-0.682l0.281,-0.671l0.288,-0.667l0.292,-0.656l0.306,-0.67l0.32,-0.681l0.315,-0.649l0.329,-0.663l0.334,-0.653l0.338,-0.645l0.369,-0.685l0.364,-0.656l0.357,-0.629l0.399,-0.686l0.39,-0.651l0.402,-0.655l0.42,-0.666l0.427,-0.661l0.454,-0.683l0.438,-0.644l0.464,-0.665l0.475,-0.66l0.502,-0.683l0.506,-0.669l0.518,-0.669l0.554,-0.693l0.531,-0.647l0.597,-0.71l0.608,-0.7l0.583,-0.655l0.629,-0.686l0.669,-0.709l0.39,-0.4l1.628,-3.286l4.151,-6.186l4.923,-5.591l5.61,-4.9l6.203,-4.127l6.687,-3.282l7.059,-2.38l7.309,-1.439l7.435,-0.473l0.465,0.001l0.558,0.003Zm298.792,159.673l0.025,0.001l-0.138,-0.005l0.113,0.004Zm79.458,-69.06l0.06,-0.13l0.011,-0.023l-0.071,0.153Zm-178.048,-133.336l-0.023,0.032l0.052,-0.073l-0.029,0.041Z" style="fill:#e7dfef;"/><g id="Phone"><path d="M83.499,40c0.476,4.512 2.723,21.892 0.686,31.499c-1.414,6.666 -10.927,12.027 -13.319,18.408c-0.471,1.256 0.177,7.855 0.393,13.751c0.313,8.497 1.251,17.872 2.732,19.071c8.377,6.779 106.126,-6.992 106.259,-12.251c0.28,-11.099 -1.378,-25.643 -2.744,-29.924c-0.783,-2.455 -16.063,-12.184 -17.994,-16.709c-8.549,-20.041 -7.123,-41.801 -10.148,-43.135c-2.849,-1.257 -16.222,0.471 -17.776,1.625c-1.352,1.002 -0.834,9.374 -0.926,9.372c-11.707,-0.304 -24.908,2.732 -25.012,2.648c-1.59,-1.287 -2.497,-8.688 -3.599,-8.686c-10.147,0.018 -18.498,1.147 -18.989,2.291c-1.054,2.456 0.437,12.04 0.437,12.04Z" style="fill:#494949;stroke:#000;stroke-width:1px;"/><path d="M49.569,29.859c12.519,-15.06 45.075,-25.432 64.585,-27.914c37.829,-4.814 48.53,3.196 71.94,12.32c1.436,0.56 1.615,3.727 1.966,6.253c0.14,1.012 0.641,4.005 0.279,4.147c-0.505,0.198 -9.182,1.182 -11.545,1.431c-10.258,1.081 -24.394,-9.643 -59.64,-7.963c-24.114,1.15 -34.872,10.457 -52.309,19.797c-1.327,0.711 -15.968,2.464 -16.088,1.368c-0.842,-7.653 0.812,-9.439 0.812,-9.439Z" style="fill:#494949;stroke:#000;stroke-width:1px;"/><path d="M51.105,43.629c-0.032,0.003 -0.241,-0.072 -0.276,-0.084c-0.053,-0.019 -2.267,-0.136 -2.51,-0.223c-0.281,-0.101 -0.563,-3.37 -0.419,-3.451c0.053,-0.03 17.743,-1.528 17.784,-1.513c0.226,0.081 0.465,3.505 0.361,3.563c-0.115,0.065 -1.152,0.271 -1.285,0.345c-0.114,0.064 -13.404,1.251 -13.662,1.272" style="fill:#494949;stroke:#000;stroke-width:1px;"/><path d="M175.018,30.883c-0.032,0.005 -0.245,-0.059 -0.28,-0.07c-0.054,-0.016 -2.271,-0.019 -2.518,-0.094c-0.286,-0.086 -0.736,-3.337 -0.596,-3.425c0.051,-0.032 17.64,-2.438 17.683,-2.425c0.23,0.07 0.644,3.477 0.543,3.54c-0.112,0.071 -1.137,0.33 -1.265,0.411c-0.111,0.069 -13.322,1.938 -13.579,1.972" style="fill:#494949;stroke:#000;stroke-width:1px;"/><path d="M120.284,46.894c13.713,-1.446 25.9,7.383 27.199,19.703c1.298,12.32 -8.781,23.496 -22.493,24.941c-13.713,1.446 -25.9,-7.383 -27.199,-19.703c-1.298,-12.32 8.781,-23.496 22.493,-24.941Z" style="fill:#545454;stroke:#000;stroke-width:1px;"/><path d="M49.626,31.967c0.078,0.732 -3.789,0.791 -4.617,0.879c-2.921,0.308 -10.775,2.565 -13.616,6.625c-0.842,1.204 -6.326,5.004 -3.238,15.955c1.339,4.748 8.789,8.733 15.488,5.433c3.715,-1.83 2.5,-4.843 0.592,-5.558c-8.989,-3.369 -17.819,0.288 -21.044,8.891c-0.523,1.395 -1.158,4.54 0.246,9.787c2.183,8.159 9.332,10.324 18.385,10.605c6.274,0.194 8.968,-4.81 4.398,-6.725c-10.404,-4.362 -18.776,4.79 -20.881,10.443c-1.559,4.188 0.779,11.169 3.935,12.562c8.727,3.852 31.137,2.636 35.114,4.127c2.631,0.986 4.297,2.687 6.927,2.41" style="fill:none;stroke:#000;stroke-width:2.1px;"/></g><g id="Phone1" serif:id="Phone"><path d="M378.991,156.64c-0.462,4.513 -2.653,21.901 -0.586,31.501c1.435,6.661 10.966,11.992 13.378,18.365c0.475,1.255 -0.152,7.856 -0.35,13.753c-0.285,8.497 -1.194,17.876 -2.67,19.079c-8.356,6.806 -106.148,-6.654 -106.298,-11.912c-0.315,-11.098 1.296,-25.647 2.649,-29.933c0.775,-2.457 16.024,-12.234 17.94,-16.766c8.485,-20.068 6.989,-41.823 10.01,-43.167c2.845,-1.266 16.224,0.419 17.782,1.568c1.354,0.998 0.863,9.372 0.956,9.369c11.706,-0.341 24.916,2.653 25.02,2.568c1.585,-1.291 2.469,-8.695 3.571,-8.697c10.147,-0.015 18.502,1.089 18.996,2.23c1.062,2.453 -0.398,12.042 -0.398,12.042Z" style="fill:#494949;stroke:#000;stroke-width:1px;"/><path d="M412.888,146.391c-12.567,-15.02 -45.156,-25.288 -64.673,-27.708c-37.845,-4.693 -48.52,3.351 -71.901,12.55c-1.435,0.564 -1.604,3.732 -1.946,6.259c-0.137,1.012 -0.628,4.006 -0.266,4.147c0.506,0.197 9.186,1.153 11.549,1.395c10.262,1.048 24.364,-9.721 59.615,-8.153c24.117,1.072 34.905,10.345 52.372,19.629c1.329,0.707 15.975,2.414 16.093,1.317c0.817,-7.656 -0.843,-9.436 -0.843,-9.436Z" style="fill:#494949;stroke:#000;stroke-width:1px;"/><path d="M411.396,160.166c0.032,0.003 0.241,-0.073 0.276,-0.086c0.052,-0.019 2.266,-0.142 2.509,-0.23c0.28,-0.103 0.552,-3.373 0.408,-3.453c-0.053,-0.029 -17.747,-1.471 -17.789,-1.456c-0.226,0.082 -0.454,3.506 -0.35,3.564c0.116,0.064 1.154,0.267 1.286,0.341c0.115,0.063 13.408,1.208 13.667,1.228" style="fill:#494949;stroke:#000;stroke-width:1px;"/><path d="M287.443,147.815c0.032,0.004 0.245,-0.06 0.28,-0.071c0.053,-0.017 2.271,-0.026 2.517,-0.102c0.286,-0.087 0.725,-3.339 0.586,-3.427c-0.052,-0.032 -17.649,-2.381 -17.691,-2.368c-0.23,0.07 -0.633,3.478 -0.532,3.541c0.112,0.07 1.138,0.326 1.266,0.407c0.111,0.069 13.329,1.895 13.586,1.929" style="fill:#494949;stroke:#000;stroke-width:1px;"/><path d="M342.227,163.651c-13.717,-1.402 -25.876,7.466 -27.135,19.79c-1.259,12.324 8.855,23.468 22.573,24.869c13.717,1.402 25.876,-7.466 27.135,-19.79c1.259,-12.324 -8.855,-23.468 -22.573,-24.869Z" style="fill:#545454;stroke:#000;stroke-width:1px;"/><path d="M412.837,148.498c-0.075,0.734 3.792,0.78 4.621,0.865c2.921,0.298 10.783,2.531 13.637,6.582c0.845,1.201 6.342,4.984 3.289,15.944c-1.324,4.753 -8.762,8.761 -15.472,5.483c-3.72,-1.818 -2.515,-4.835 -0.609,-5.556c8.978,-3.398 22.464,6.005 23.675,15.113c1.828,13.753 -15.419,19.617 -29.843,19.583c-8.926,-0.021 -10.067,-12.588 -5.504,-14.518c10.39,-4.395 30.055,6.762 30.673,12.763c0.922,8.953 -10.936,11.821 -14.087,13.224c-8.715,3.88 -20.936,2.085 -24.908,3.588c-2.628,0.995 -4.289,2.701 -6.92,2.433" style="fill:none;stroke:#000;stroke-width:2.1px;"/></g><g id="Arrow"><path d="M198.286,109.994c0,1.07 12.727,8.309 15.19,10.428c3.207,2.759 5.086,2.45 8.38,4.621c10.093,6.652 22.112,13.844 34.338,19.771" style="fill:none;stroke:#000;stroke-width:3.1px;"/><path d="M254.433,138.324c0,0.463 0.905,1.543 1.155,2.043c0.326,0.653 0.293,1.653 0.622,2.309c0.056,0.113 -0.086,0.448 0,0.533c0.192,0.193 0.71,1.218 0.71,1.599" style="fill:none;stroke:#000;stroke-width:3.1px;"/><path d="M257.187,145.164c0,0.029 0,0.059 0,0.088" style="fill:none;stroke:#000;stroke-width:3.1px;"/><path d="M257.187,145.252c-0.03,0 -0.059,0 -0.089,0" style="fill:none;stroke:#000;stroke-width:3.1px;"/><path d="M257.098,145.252c-1.574,0.758 -3.177,1.322 -4.619,2.043c-0.512,0.257 -1.205,0.229 -1.688,0.711" style="fill:none;stroke:#000;stroke-width:3.1px;"/><path d="M197.408,110.344c0,0.723 -0.23,1.888 0,2.576c0.104,0.312 0.355,0.838 0.355,1.155c0,0.435 0.069,1.174 -0.178,1.421c-0.066,0.067 -0.089,0.629 -0.089,0.444" style="fill:none;stroke:#000;stroke-width:3.1px;"/><path d="M197.763,109.456c0.423,0 1.465,-0.281 1.954,-0.444c0.195,-0.066 0.832,0.144 0.977,0c0.296,-0.297 1.303,0.118 1.599,-0.178c0.469,-0.469 1.757,-0.178 2.487,-0.178" style="fill:none;stroke:#000;stroke-width:3.1px;"/></g></g></svg>