<?xml version="1.0" encoding="UTF-8" standalone="no"?>
<!DOCTYPE svg PUBLIC "-//W3C//DTD SVG 1.1//EN" "http://www.w3.org/Graphics/SVG/1.1/DTD/svg11.dtd">
<svg width="100%" height="100%" viewBox="0 0 1556 628" version="1.1" xmlns="http://www.w3.org/2000/svg" xmlns:xlink="http://www.w3.org/1999/xlink" xml:space="preserve" xmlns:serif="http://www.serif.com/" style="fill-rule:evenodd;clip-rule:evenodd;stroke-linecap:round;stroke-linejoin:round;stroke-miterlimit:1.5;">
    <g transform="matrix(1,0,0,1,-484.059,-329.86)">
        <g transform="matrix(1,0,0,3.42049,303.263,45.867)">
            <g id="Header-scene" serif:id="Header scene">
                <g transform="matrix(1.11937,0,0,0.206435,-36.5164,48.295)">
                    <path d="M761.565,200.693L762.757,200.793L764.013,200.944L765.32,201.153L766.686,201.425L768.14,201.779L769.638,202.214L771.194,202.742L772.834,203.383L774.528,204.141L776.292,205.036L778.114,206.079L779.958,207.26L781.854,208.613L783.81,210.167L785.752,211.879L787.722,213.795L789.711,215.939L791.689,218.291L793.556,220.749L795.411,223.42L797.243,226.354L798.915,229.303L800.463,232.315L801.97,235.545L803.375,238.905L804.637,242.256L805.778,245.652L806.741,248.859L807.636,252.192L808.419,255.535L809.052,258.607L809.616,261.755L810.068,264.738L810.428,267.528L810.73,270.381L810.953,273.048L811.11,275.515L811.224,278.037L811.279,280.242L811.304,282.377L811.287,284.572L811.248,286.35L811.185,288.186L811.09,290.084L810.987,291.702L810.888,293.032L811.497,292.74L817.946,291.035L824.48,290.655L824.712,290.689L824.847,290.182L825.035,289.484L825.216,288.82L825.4,288.156L825.576,287.528L825.75,286.915L825.925,286.303L826.093,285.722L826.254,285.173L826.417,284.622L826.596,284.02L826.885,283.066L827.177,282.114L827.45,281.24L827.712,280.411L827.956,279.65L828.182,278.956L828.385,278.337L828.591,277.718L828.861,276.915L828.982,276.563L832.449,267.819L836.594,259.848L841.346,252.783L846.63,246.739L852.357,241.814L858.434,238.09L864.762,235.629L871.236,234.469L877.751,234.63L884.199,236.11L890.476,238.885L894.086,241.305L894.147,241.248L894.593,240.834L895.04,240.42L895.484,240.012L895.929,239.602L896.378,239.192L896.827,238.783L897.277,238.373L897.73,237.964L898.184,237.554L898.637,237.147L899.092,236.74L899.552,236.33L900.009,235.924L900.468,235.517L900.928,235.112L901.39,234.707L901.856,234.299L902.319,233.895L902.783,233.493L903.251,233.088L903.72,232.684L904.191,232.281L904.661,231.879L905.133,231.478L905.606,231.077L906.043,230.708L906.597,230.241L907.093,229.82L907.579,229.407L908.053,229.002L908.515,228.605L908.967,228.216L909.406,227.835L909.835,227.462L910.258,227.094L910.67,226.732L911.074,226.377L911.47,226.028L911.86,225.682L912.246,225.339L912.625,225.001L912.985,224.678L913.74,223.999L914.472,223.338L915.199,222.678L915.923,222.018L917.417,220.654L918.179,219.958L918.965,219.241L919.774,218.506L920.612,217.748L921.458,216.987L921.916,216.577L922.368,216.174L922.824,215.769L923.292,215.355L923.768,214.937L924.25,214.514L924.74,214.087L925.238,213.655L925.745,213.218L926.259,212.777L926.783,212.331L927.314,211.88L927.854,211.425L928.4,210.968L928.955,210.505L929.52,210.038L930.094,209.566L930.674,209.091L931.264,208.612L931.865,208.126L932.475,207.637L933.093,207.143L933.321,206.962L933.321,206.962L933.795,206.463L934.313,205.923L934.657,205.568L934.986,205.233L935.341,204.873L935.737,204.477L936.148,204.072L936.588,203.643L937.075,203.178L937.597,202.687L938.171,202.16L938.792,201.603L939.471,201.01L940.221,200.375L941.046,199.702L941.972,198.976L942.884,198.294L943.573,197.8L944.168,197.386L944.8,196.961L945.492,196.511L946.222,196.056L946.996,195.594L947.851,195.108L948.762,194.619L949.736,194.127L950.784,193.634L951.939,193.132L953.198,192.636L954.544,192.162L956.02,191.71L957.636,191.294L959.39,190.935L961.306,190.651L963.418,190.469L965.72,190.426L968.214,190.564L970.928,190.931L973.864,191.589L977.003,192.599L980.344,194.037L983.813,195.951L987.427,198.429L991.101,201.525L994.688,205.174L998.148,209.385L1001.44,214.158L1004.46,219.375L1007.05,224.728L1009.33,230.3L1011.24,235.938L1012.74,241.291L1013.95,246.535L1014.86,251.577L1015.52,256.269L1015.7,257.931L1016.52,257.667L1017.72,257.322L1018.98,257.011L1020.29,256.738L1021.67,256.508L1023.11,256.329L1024.61,256.209L1026.17,256.156L1027.8,256.18L1029.48,256.288L1031.23,256.493L1033.03,256.802L1034.9,257.226L1036.79,257.773L1038.73,258.45L1040.73,259.281L1042.71,260.238L1044.73,261.353L1046.74,262.621L1048.75,264.039L1050.76,265.625L1052.69,267.324L1054.61,269.179L1056.5,271.189L1057.2,272.007L1063.05,270.379L1069.4,269.889L1069.4,269.889L1075.58,270.623L1081.66,272.542L1087.54,275.619L1088.23,276.133L1088.46,275.873L1088.87,275.4L1089.29,274.923L1089.71,274.447L1090.13,273.975L1090.55,273.499L1090.97,273.025L1091.4,272.552L1091.83,272.076L1092.25,271.603L1092.68,271.132L1093.11,270.662L1093.54,270.192L1093.98,269.716L1094.41,269.249L1094.84,268.78L1095.28,268.311L1095.72,267.841L1096.16,267.374L1096.6,266.906L1097.05,266.436L1097.49,265.971L1097.93,265.51L1098.38,265.043L1098.83,264.578L1099.28,264.116L1099.73,263.655L1100.18,263.193L1100.64,262.731L1101.1,262.271L1101.89,261.476L1103.21,260.203L1104.97,258.663L1106.47,257.451L1107.87,256.413L1109.53,255.268L1111.47,254.076L1113.63,252.907L1116.25,251.709L1119.41,250.573L1123.15,249.656L1125.17,249.416L1129.84,249.203L1129.85,249.203L1135.46,249.849L1135.48,249.851L1141.93,251.844L1141.94,251.848L1145.31,253.455L1148.61,255.427L1148.62,255.433L1152.27,258.125L1155.78,261.267L1155.78,261.275L1159.3,265.051L1162.6,269.279L1162.61,269.289L1163.01,269.893L1166.07,268.355L1171.23,266.668L1171.23,266.667L1176.58,265.828L1181.95,265.885L1187.28,266.84L1187.29,266.841L1193.78,269.258L1200.01,273L1205.88,278.003L1205.89,278.005L1210.3,282.914L1211.82,285.015L1212.05,284.857L1212.65,284.452L1213.24,284.053L1213.84,283.656L1214.44,283.261L1215.04,282.87L1215.64,282.484L1216.25,282.1L1216.85,281.719L1217.45,281.341L1218.06,280.966L1218.67,280.595L1219.28,280.227L1219.89,279.863L1220.5,279.501L1221.11,279.145L1221.72,278.789L1222.34,278.437L1222.95,278.089L1223.57,277.744L1224.19,277.402L1224.81,277.064L1225.43,276.728L1226.05,276.396L1226.67,276.069L1227.3,275.743L1227.92,275.421L1228.55,275.102L1229.18,274.786L1229.8,274.474L1230.43,274.166L1231.07,273.859L1231.7,273.557L1232.33,273.259L1232.96,272.963L1233.6,272.671L1234.23,272.382L1234.87,272.097L1235.51,271.815L1236.15,271.536L1236.79,271.26L1237.43,270.988L1238.07,270.72L1238.72,270.454L1239.36,270.193L1240.01,269.934L1240.65,269.679L1241.3,269.427L1241.95,269.179L1242.6,268.934L1243.25,268.693L1243.9,268.455L1244.56,268.221L1245.21,267.99L1245.87,267.763L1246.52,267.539L1247.18,267.318L1247.84,267.102L1248.5,266.888L1249.16,266.678L1249.82,266.472L1250.48,266.269L1251.14,266.07L1251.81,265.874L1252.47,265.682L1253.14,265.494L1253.8,265.309L1254.47,265.128L1255.14,264.951L1255.81,264.777L1256.48,264.607L1257.15,264.44L1257.83,264.278L1258.5,264.118L1259.17,263.963L1259.85,263.811L1260.52,263.664L1261.2,263.519L1261.88,263.379L1262.56,263.242L1263.24,263.11L1263.92,262.981L1264.6,262.855L1265.29,262.734L1265.97,262.617L1266.65,262.503L1267.34,262.393L1268.02,262.288L1268.71,262.186L1269.4,262.088L1270.09,261.994L1270.77,261.904L1271.46,261.818L1272.15,261.736L1272.85,261.658L1273.54,261.584L1274.23,261.514L1274.93,261.448L1275.62,261.386L1276.32,261.328L1277.01,261.275L1277.71,261.225L1278.41,261.18L1279.11,261.139L1279.81,261.102L1280.51,261.069L1281.2,261.041L1281.91,261.016L1282.61,260.996L1283.31,260.98L1284.02,260.969L1284.72,260.962L1285.42,260.959L1286.13,260.961L1286.84,260.966L1287.54,260.977L1288.25,260.991L1288.96,261.011L1289.67,261.034L1290.38,261.062L1291.09,261.095L1291.8,261.132L1292.51,261.174L1293.22,261.22L1293.79,261.261L1293.84,261.18L1294.11,260.673L1294.39,260.145L1294.67,259.631L1294.96,259.115L1295.25,258.59L1295.54,258.07L1295.83,257.551L1296.11,257.042L1296.41,256.523L1296.71,255.997L1297.02,255.472L1297.31,254.959L1297.61,254.449L1297.92,253.928L1298.24,253.401L1298.55,252.885L1298.86,252.379L1299.17,251.858L1299.49,251.338L1299.81,250.827L1300.13,250.311L1300.46,249.796L1300.79,249.284L1301.11,248.773L1301.44,248.263L1301.78,247.747L1302.11,247.242L1302.45,246.732L1302.79,246.223L1303.14,245.714L1303.48,245.209L1303.83,244.707L1304.18,244.197L1304.53,243.698L1304.88,243.194L1305.24,242.693L1305.6,242.193L1305.96,241.695L1306.32,241.199L1306.68,240.707L1307.05,240.211L1307.42,239.716L1307.79,239.229L1308.16,238.737L1308.54,238.251L1308.92,237.76L1309.3,237.276L1309.67,236.797L1310.06,236.313L1310.44,235.838L1310.83,235.36L1311.23,234.877L1311.62,234.403L1312.01,233.931L1312.41,233.464L1312.8,233L1313.21,232.526L1313.61,232.061L1314.01,231.603L1314.42,231.142L1314.82,230.687L1315.24,230.228L1315.65,229.771L1316.06,229.322L1316.48,228.876L1316.9,228.427L1317.32,227.978L1317.74,227.538L1318.16,227.097L1319.19,226.039L1320.74,224.554L1322.23,223.253L1323.33,222.348L1324.26,221.623L1325.25,220.882L1326.16,220.243L1326.91,219.734L1327.59,219.287L1328.23,218.883L1328.86,218.496L1329.49,218.118L1330.13,217.749L1330.78,217.377L1331.47,217L1332.19,216.621L1332.88,216.27L1333.33,216.046L1333.74,215.847L1334.16,215.648L1334.58,215.451L1335.04,215.244L1335.5,215.04L1335.98,214.835L1336.48,214.627L1337,214.418L1337.55,214.207L1338.12,213.995L1338.71,213.783L1339.34,213.57L1340,213.357L1340.7,213.145L1341.43,212.937L1342.2,212.733L1343.04,212.532L1343.92,212.342L1344.86,212.162L1345.87,211.997L1346.96,211.851L1348.14,211.732L1349.41,211.648L1350.79,211.61L1352.09,211.628L1353.08,211.675L1353.92,211.737L1354.79,211.822L1355.72,211.938L1356.68,212.086L1357.69,212.271L1358.74,212.495L1359.86,212.773L1361.05,213.112L1362.24,213.498L1363.52,213.959L1364.88,214.513L1366.29,215.151L1367.74,215.877L1369.27,216.726L1370.88,217.716L1372.55,218.847L1374.31,220.157L1376.06,221.595L1377.55,222.934L1378.52,223.868L1379.16,224.497L1379.81,225.157L1380.49,225.87L1381.17,226.614L1381.86,227.384L1382.54,228.17L1383.25,229.022L1383.97,229.909L1384.7,230.844L1385.42,231.797L1386.15,232.801L1386.89,233.863L1387.64,234.971L1388.4,236.134L1389.11,237.268L1389.88,238.546L1390.65,239.888L1391.37,241.192L1392.13,242.614L1392.88,244.099L1393.6,245.589L1394.31,247.139L1395.02,248.754L1395.75,250.494L1396.42,252.185L1397.07,253.919L1397.73,255.788L1398.35,257.651L1398.95,259.562L1399.53,261.539L1400.08,263.57L1400.61,265.652L1401.09,267.693L1401.54,269.777L1401.95,271.9L1402.34,274.059L1402.67,276.159L1402.99,278.376L1403.27,280.62L1403.5,282.688L1403.69,284.862L1403.86,287.05L1403.98,289.237L1404.05,291.008L1406.64,295.046L1410.69,303.239L1413.18,309.89L1413.32,309.795L1413.83,309.457L1414.34,309.121L1414.85,308.785L1415.36,308.452L1415.87,308.12L1416.38,307.788L1416.89,307.459L1417.39,307.132L1417.9,306.807L1418.41,306.481L1418.92,306.158L1419.43,305.838L1419.93,305.519L1420.44,305.2L1420.95,304.884L1421.46,304.57L1421.97,304.257L1422.48,303.947L1422.99,303.638L1423.49,303.33L1424,303.026L1424.51,302.722L1425.02,302.42L1425.53,302.12L1426.04,301.822L1426.54,301.527L1427.05,301.234L1427.56,300.941L1428.07,300.651L1428.58,300.364L1429.09,300.079L1429.6,299.795L1430.11,299.512L1430.62,299.233L1431.13,298.955L1431.64,298.681L1432.16,298.406L1432.67,298.135L1433.19,297.866L1433.7,297.6L1434.22,297.336L1434.74,297.072L1435.26,296.812L1435.78,296.555L1436.31,296.299L1436.83,296.045L1437.36,295.795L1437.89,295.546L1438.42,295.299L1438.95,295.057L1439.49,294.815L1440.03,294.576L1440.57,294.34L1441.12,294.106L1441.66,293.875L1442.22,293.647L1442.78,293.421L1443.34,293.198L1443.91,292.978L1444.48,292.761L1445.06,292.547L1445.64,292.337L1446.23,292.13L1446.84,291.925L1447.44,291.725L1448.06,291.528L1448.68,291.336L1449.31,291.148L1449.96,290.965L1450.61,290.785L1451.28,290.612L1451.96,290.444L1452.65,290.282L1453.36,290.127L1454.08,289.98L1454.83,289.839L1455.59,289.708L1456.36,289.586L1457.09,289.485L1457.57,289.425L1457.98,289.377L1458.41,289.332L1458.83,289.291L1459.27,289.253L1459.7,289.22L1460.15,289.19L1460.61,289.165L1461.07,289.145L1461.54,289.129L1462.02,289.119L1462.5,289.114L1463,289.115L1463.51,289.122L1464.03,289.136L1464.55,289.157L1465.08,289.186L1465.63,289.223L1466.18,289.269L1466.75,289.323L1467.33,289.387L1467.92,289.462L1468.52,289.549L1469.13,289.646L1469.76,289.756L1470.4,289.881L1471.06,290.02L1471.73,290.174L1472.42,290.345L1473.11,290.531L1473.82,290.737L1474.57,290.966L1475.31,291.214L1476.07,291.484L1476.85,291.777L1477.64,292.095L1478.46,292.446L1479.3,292.825L1480.15,293.234L1481.01,293.674L1481.89,294.148L1482.8,294.663L1483.71,295.208L1484.65,295.806L1485.62,296.452L1486.59,297.137L1487.55,297.849L1488.55,298.633L1489.59,299.489L1490.59,300.354L1491.62,301.293L1492.68,302.315L1493.75,303.397L1494.8,304.517L1495.85,305.688L1496.95,306.988L1498.02,308.327L1499.06,309.691L1500.12,311.156L1500.96,312.377L1501.63,313.392L1502.1,314.098L1502.55,314.796L1503.01,315.498L1503.46,316.202L1503.91,316.912L1504.36,317.62L1504.81,318.326L1505.25,319.039L1505.69,319.753L1506.13,320.465L1506.56,321.18L1507,321.897L1507.43,322.615L1507.86,323.336L1508.28,324.048L1508.7,324.767L1509.12,325.494L1509.54,326.213L1509.95,326.938L1510.37,327.664L1510.77,328.383L1511.18,329.109L1511.58,329.837L1511.98,330.566L1512.38,331.297L1512.78,332.024L1513.17,332.754L1513.56,333.478L1513.95,334.21L1514.34,334.945L1514.72,335.674L1515.1,336.411L1515.48,337.146L1515.86,337.874L1516.23,338.603L1516.6,339.341L1516.97,340.08L1517.33,340.809L1517.7,341.544L1518.06,342.282L1518.42,343.015L1518.78,343.755L1519.13,344.489L1519.48,345.226L1519.83,345.964L1520.17,346.696L1520.52,347.43L1520.86,348.165L1521.2,348.907L1521.54,349.645L1521.87,350.377L1522.2,351.109L1522.53,351.843L1522.86,352.585L1523.19,353.322L1523.51,354.051L1523.83,354.789L1524.15,355.529L1524.47,356.254L1524.78,356.988L1525.1,357.723L1525.4,358.452L1525.71,359.189L1526.02,359.926L1526.33,360.658L1526.62,361.384L1526.92,362.108L1527.22,362.841L1527.52,363.577L1527.81,364.297L1528.1,365.025L1528.39,365.763L1528.68,366.486L1528.96,367.208L1529.24,367.931L1529.52,368.656L1529.8,369.381L1530.08,370.098L1530.35,370.825L1530.63,371.544L1530.9,372.263L1531.17,372.985L1531.43,373.705L1531.7,374.425L1531.96,375.132L1532.22,375.845L1532.49,376.568L1532.75,377.284L1533,377.991L1533.25,378.698L1533.51,379.406L1533.76,380.114L1534.01,380.824L1534.25,381.534L1534.5,382.235L1534.75,382.945L1534.99,383.647L1535.23,384.341L1535.47,385.043L1535.7,385.745L1535.94,386.441L1536.17,387.137L1536.41,387.83L1536.64,388.525L1536.87,389.223L1537.1,389.911L1537.32,390.596L1537.55,391.284L1537.77,391.97L1537.99,392.65L1538.22,393.34L1538.43,394.017L1538.66,394.727L1539.08,396.058L1539.51,397.403L1539.93,398.749L1540.35,400.088L1540.76,401.417L1541.16,402.738L1541.56,404.057L1541.96,405.368L1542.35,406.669L1542.74,407.965L1543.12,409.253L1543.5,410.539L1543.87,411.811L1544.24,413.073L1544.61,414.335L1544.97,415.587L1545.32,416.827L1545.68,418.063L1546.03,419.293L1546.38,420.513L1546.72,421.721L1547.06,422.924L1547.4,424.135L1547.53,424.582L1549.26,425.628L1552.34,427.853L1555.41,430.48L1558.35,433.426L1561.13,436.643L1563.76,440.135L1566.21,443.861L1568.43,447.7L1570.42,451.621L1572.16,455.513L1573.68,459.334L1575.05,463.232L1576.19,466.951L1577.13,470.411L1577.8,473.227L1578.17,474.923L1578.38,475.941L1578.56,476.84L1578.73,477.679L1578.89,478.505L1579.03,479.255L1579.16,479.984L1579.29,480.69L1579.4,481.374L1579.52,482.05L1579.63,482.713L1579.73,483.344L1579.84,483.996L1579.94,484.643L1580.04,485.288L1580.14,485.937L1580.23,486.548L1580.33,487.195L1580.42,487.847L1580.51,488.488L1580.6,489.131L1580.69,489.779L1580.78,490.45L1580.87,491.096L1580.96,491.761L1581.05,492.45L1581.13,493.117L1581.22,493.804L1581.3,494.499L1581.39,495.188L1581.47,495.897L1581.56,496.615L1581.64,497.342L1581.72,498.06L1581.8,498.787L1581.88,499.524L1581.96,500.267L1582.04,501.032L1582.12,501.793L1582.2,502.562L1582.28,503.339L1582.35,504.126L1582.43,504.919L1582.5,505.722L1582.57,506.519L1582.64,507.338L1582.72,508.168L1582.78,508.992L1582.85,509.838L1582.92,510.68L1582.98,511.543L1583.05,512.402L1583.11,513.271L1583.17,514.162L1583.23,515.037L1583.28,515.934L1583.34,516.853L1583.39,517.768L1583.44,518.682L1583.49,519.618L1583.54,520.564L1583.58,521.52L1583.62,522.488L1583.66,523.453L1583.69,524.43L1583.73,525.418L1583.76,526.431L1583.78,527.456L1583.81,528.48L1583.83,529.518L1583.84,530.569L1583.85,531.633L1583.86,532.712L1583.86,533.806L1583.86,534.928L1583.85,536.041L1583.84,537.17L1583.82,538.342L1583.8,539.412L1583.78,540.083L1583.77,540.702L1583.75,541.297L1583.73,541.919L1583.71,542.516L1583.68,543.116L1583.66,543.771L1583.63,544.402L1583.6,545.008L1583.57,545.643L1583.54,546.308L1583.5,546.949L1583.46,547.619L1583.42,548.293L1583.38,548.943L1583.33,549.595L1583.28,550.279L1583.23,550.993L1583.17,551.684L1583.11,552.41L1583.05,553.108L1582.99,553.81L1582.92,554.547L1582.84,555.29L1582.77,556.034L1582.69,556.784L1582.6,557.542L1582.51,558.302L1582.42,559.069L1582.32,559.871L1582.22,560.678L1582.11,561.466L1582,562.288L1581.88,563.112L1581.76,563.947L1581.62,564.791L1581.48,565.669L1581.34,566.553L1581.19,567.391L1581.03,568.294L1580.87,569.203L1580.69,570.122L1580.51,571.051L1580.32,571.992L1580.12,572.963L1579.91,573.891L1579.69,574.886L1579.46,575.892L1579.23,576.874L1578.97,577.899L1578.71,578.936L1578.43,580.01L1578.14,581.066L1577.85,582.099L1577.53,583.204L1577.19,584.321L1576.85,585.415L1576.49,586.552L1576.11,587.7L1575.72,588.846L1575.3,590.012L1574.87,591.19L1574.42,592.391L1573.94,593.612L1573.45,594.807L1572.95,596.004L1572.41,597.245L1571.85,598.486L1571.27,599.736L1570.66,601.006L1570.03,602.248L1569.38,603.505L1569.27,603.712L1568.09,606.835L1563.99,615.069L1559.25,622.389L1553.95,628.671L1548.18,633.809L1546.16,635.093L1546.04,635.642L1545.87,636.369L1545.69,637.097L1545.52,637.841L1545.33,638.587L1545.15,639.336L1544.96,640.081L1544.77,640.844L1544.57,641.61L1544.37,642.359L1544.16,643.139L1543.95,643.917L1543.74,644.698L1543.52,645.463L1543.3,646.246L1543.07,647.042L1542.84,647.838L1542.6,648.636L1542.36,649.418L1542.11,650.232L1541.85,651.045L1541.6,651.845L1541.34,652.654L1541.07,653.466L1540.79,654.295L1540.51,655.118L1540.23,655.932L1539.93,656.769L1539.64,657.594L1539.34,658.42L1539.02,659.268L1538.71,660.104L1538.38,660.941L1538.06,661.775L1537.72,662.62L1537.38,663.48L1537.03,664.323L1536.68,665.149L1536.32,666.003L1535.94,666.865L1535.57,667.711L1535.19,668.562L1534.88,669.231L1534.41,671.689L1531.66,681.278L1528.14,690.216L1527.44,691.563L1527.15,692.869L1526.63,695.184L1526.11,697.495L1525.6,699.788L1525.09,702.05L1524.6,704.276L1524.12,706.449L1523.65,708.56L1523.2,710.601L1523.17,710.763L1523.05,711.502L1522.88,712.546L1522.73,713.456L1522.57,714.348L1522.41,715.227L1522.23,716.137L1522,717.33L1521.73,718.601L1521.49,719.734L1521.26,720.752L1521.04,721.736L1520.83,722.618L1520.64,723.41L1520.45,724.193L1520.27,724.92L1520.09,725.615L1519.92,726.28L1519.76,726.881L1519.61,727.479L1519.44,728.096L1519.18,729.07L1518.92,730.006L1518.69,730.835L1518.48,731.578L1518.31,732.192L1518.15,732.725L1518.05,733.104L1514.84,742.466L1510.89,751.077L1506.25,758.787L1501.01,765.461L1495.27,770.982L1489.11,775.255L1482.66,778.206L1476.01,779.782L1473.59,779.844L1473.46,780.538L1473.32,781.344L1473.17,782.15L1473.02,782.959L1472.87,783.769L1472.71,784.567L1472.56,785.366L1472.4,786.178L1472.25,786.979L1472.09,787.77L1471.93,788.574L1471.76,789.388L1471.6,790.181L1471.43,790.977L1471.27,791.783L1471.1,792.579L1470.92,793.375L1470.75,794.173L1470.58,794.972L1470.4,795.771L1470.22,796.563L1470.04,797.362L1469.86,798.164L1469.68,798.946L1469.49,799.75L1469.31,800.544L1469.12,801.327L1468.93,802.133L1468.73,802.93L1468.54,803.718L1468.35,804.506L1468.15,805.306L1467.95,806.094L1467.75,806.884L1467.54,807.676L1467.34,808.47L1467.13,809.264L1466.92,810.047L1466.7,810.841L1466.49,811.626L1466.28,812.415L1466.05,813.215L1465.83,814.003L1465.61,814.782L1465.39,815.575L1465.16,816.367L1464.93,817.149L1464.7,817.944L1464.46,818.729L1464.22,819.518L1463.98,820.316L1463.74,821.105L1463.5,821.885L1463.25,822.666L1463,823.459L1462.71,824.372L1462.41,825.291L1462.07,826.28L1461.74,827.25L1461.4,828.21L1461.07,829.126L1460.75,830.015L1460.41,830.913L1460.08,831.765L1459.76,832.592L1459.43,833.416L1459.11,834.212L1458.8,834.975L1458.49,835.706L1458.18,836.452L1457.87,837.171L1457.57,837.85L1457.27,838.529L1456.98,839.183L1456.69,839.819L1456.4,840.45L1456.11,841.058L1455.84,841.648L1455.56,842.221L1455.3,842.777L1455.04,843.312L1454.77,843.85L1454.52,844.366L1454.27,844.867L1454.03,845.353L1453.79,845.832L1453.55,846.296L1453.3,846.774L1452.88,847.589L1452.82,847.717L1452.73,848.238L1452.61,848.871L1452.5,849.473L1452.39,850.07L1452.27,850.724L1452.08,851.729L1451.87,852.759L1451.67,853.74L1451.48,854.656L1451.3,855.518L1451.12,856.34L1450.95,857.104L1450.79,857.831L1450.63,858.525L1450.49,859.141L1450.36,859.724L1450.21,860.324L1450.02,861.134L1449.85,861.831L1449.77,862.136L1446.91,871.732L1443.28,880.648L1438.94,888.731L1433.97,895.84L1428.45,901.853L1422.48,906.665L1416.17,910.193L1409.61,912.376L1402.94,913.176L1396.25,912.579L1389.67,910.596L1383.32,907.261L1377.29,902.631L1371.7,896.787L1366.65,889.83L1365.7,888.135L1365.57,888.21L1364.98,888.553L1364.38,888.89L1363.79,889.215L1363.19,889.537L1362.59,889.85L1362,890.151L1361.39,890.451L1360.79,890.74L1360.2,891.019L1359.59,891.295L1358.99,891.562L1358.38,891.821L1357.78,892.071L1357.18,892.313L1356.58,892.55L1355.97,892.777L1355.37,892.996L1354.77,893.209L1354.16,893.415L1353.56,893.611L1352.96,893.8L1352.36,893.98L1351.76,894.156L1351.15,894.322L1350.56,894.481L1349.95,894.633L1349.36,894.776L1348.76,894.912L1348.15,895.043L1347.56,895.164L1346.97,895.277L1346.38,895.385L1345.78,895.486L1345.18,895.579L1344.6,895.664L1344.01,895.742L1343.42,895.814L1342.83,895.88L1342.25,895.937L1341.67,895.988L1341.09,896.032L1340.51,896.07L1339.93,896.101L1339.35,896.126L1338.78,896.144L1338.21,896.156L1337.64,896.161L1337.07,896.16L1336.5,896.153L1335.94,896.14L1335.38,896.121L1334.82,896.096L1334.27,896.066L1333.71,896.029L1333.16,895.987L1332.61,895.939L1332.06,895.886L1331.52,895.828L1330.97,895.763L1330.43,895.694L1329.9,895.62L1329.37,895.541L1328.83,895.456L1328.3,895.366L1327.77,895.272L1327.25,895.174L1326.73,895.071L1326.21,894.962L1325.69,894.85L1325.19,894.734L1324.67,894.613L1324.16,894.486L1323.66,894.357L1323.16,894.224L1322.67,894.089L1322.16,893.946L1321.67,893.801L1321.18,893.653L1320.69,893.499L1320.21,893.345L1319.73,893.187L1319.24,893.021L1318.77,892.856L1318.3,892.687L1317.83,892.513L1317.37,892.341L1316.9,892.164L1316.44,891.981L1315.98,891.795L1315.53,891.61L1315.08,891.422L1314.62,891.226L1314.17,891.033L1313.74,890.839L1313.72,890.829L1312.19,892.481L1306.36,897.201L1300.19,900.694L1293.79,902.902L1287.27,903.787L1280.72,903.336L1274.27,901.556L1268.01,898.476L1262.06,894.148L1256.51,888.642L1255.09,886.8L1254.71,886.709L1254.27,886.601L1253.83,886.49L1253.4,886.377L1252.97,886.261L1252.53,886.139L1252.09,886.014L1251.65,885.888L1251.22,885.759L1250.79,885.626L1250.35,885.487L1249.91,885.346L1249.02,885.051L1247.29,884.415L1245.04,883.415L1242.86,882.273L1240.7,880.971L1238.51,879.466L1236.41,877.828L1234.4,876.091L1232.39,874.152L1232.34,874.104L1231.86,874.085L1231.02,874.032L1230.13,873.959L1229.19,873.859L1228.3,873.742L1227.68,873.648L1227.17,873.565L1226.62,873.465L1226.04,873.351L1225.48,873.233L1224.89,873.1L1224.27,872.948L1223.63,872.779L1222.97,872.594L1222.31,872.396L1221.63,872.177L1220.89,871.924L1220.13,871.648L1219.41,871.37L1218.73,871.091L1218.1,870.821L1217.48,870.546L1216.88,870.266L1216.31,869.993L1215.75,869.714L1215.19,869.425L1214.67,869.149L1214.15,868.867L1213.64,868.582L1213.16,868.302L1212.67,868.016L1212.22,867.745L1211.76,867.462L1211.3,867.172L1210.87,866.898L1210.44,866.617L1210.03,866.343L1209.62,866.068L1209.61,866.06L1209.61,866.073L1209.37,866.568L1209.14,867.061L1208.9,867.547L1208.67,868.036L1208.43,868.524L1208.19,869.01L1207.82,869.755L1207.27,870.835L1206.58,872.137L1205.87,873.42L1205.17,874.63L1204.45,875.826L1203.69,877.059L1202.93,878.226L1202.18,879.348L1201.39,880.475L1200.59,881.573L1199.77,882.66L1198.94,883.708L1198.09,884.745L1197.2,885.79L1196.3,886.799L1195.41,887.754L1194.47,888.714L1193.51,889.66L1192.53,890.573L1191.52,891.476L1190.51,892.334L1189.48,893.16L1188.4,893.986L1187.29,894.785L1186.18,895.535L1185.06,896.248L1183.89,896.942L1182.72,897.593L1181.51,898.211L1180.26,898.802L1179.03,899.33L1178.1,899.696L1176.68,900.222L1175.59,900.629L1174.5,901.039L1173.88,901.275L1173.65,902.121L1173.18,903.834L1172.72,905.556L1172.26,907.273L1171.95,908.41L1171.91,908.628L1171.76,909.514L1171.61,910.338L1171.45,911.149L1171.29,911.963L1171.15,912.674L1171,913.391L1170.82,914.279L1170.55,915.51L1170.25,916.79L1169.96,918.023L1169.66,919.204L1169.38,920.335L1169.09,921.415L1168.81,922.433L1168.54,923.408L1168.27,924.342L1168,925.249L1167.75,926.106L1167.49,926.949L1167.23,927.767L1166.99,928.541L1166.75,929.283L1166.51,930.009L1166.27,930.715L1166.04,931.392L1165.82,932.057L1165.6,932.687L1165.38,933.295L1165.17,933.884L1164.96,934.463L1164.76,935.029L1164.56,935.571L1164.37,936.08L1164.15,936.65L1163.81,937.554L1163.46,938.455L1163.13,939.291L1162.83,940.054L1162.53,940.785L1162.26,941.445L1162.03,942.015L1161.77,942.623L1161.44,943.39L1161.3,943.731L1157.27,951.874L1152.62,959.132L1147.42,965.387L1141.76,970.536L1135.73,974.494L1129.43,977.196L1122.97,978.598L1116.44,978.675L1109.96,977.428L1103.64,974.877L1097.57,971.063L1091.87,966.05L1086.61,959.919L1081.89,952.773L1077.79,944.727L1074.37,935.915L1071.69,926.482L1070.7,921.296L1069.91,921.234L1068.61,921.129L1067.3,921.021L1065.99,920.911L1064.68,920.8L1063.37,920.687L1062.06,920.573L1060.75,920.457L1059.43,920.34L1056.83,920.104L1054.22,919.864L1051.61,919.623L1049.02,919.381L1047.87,919.274L1047.22,921.355L1043.6,930.032L1039.31,937.897L1034.41,944.82L1028.99,950.685L1023.13,955.396L1016.95,958.873L1010.53,961.059L1003.99,961.917L997.436,961.433L990.974,959.616L984.713,956.494L978.758,952.121L973.208,946.57L968.154,939.931L967.795,939.32L967.558,939.523L967.112,939.9L966.662,940.273L966.209,940.642L965.742,941.014L965.263,941.389L964.789,941.753L964.301,942.119L963.8,942.486L963.286,942.855L962.759,943.224L962.238,943.581L961.712,943.932L961.163,944.289L960.603,944.644L960.057,944.98L959.486,945.321L958.897,945.663L958.312,945.993L957.72,946.315L957.111,946.637L956.485,946.955L955.802,947.29L955.114,947.613L954.442,947.916L953.786,948.201L953.139,948.47L952.498,948.726L951.882,948.962L951.275,949.185L950.684,949.393L950.093,949.594L949.512,949.782L948.95,949.957L948.384,950.126L947.842,950.28L947.307,950.427L946.771,950.567L946.25,950.698L945.732,950.822L945.23,950.937L944.724,951.048L944.223,951.152L943.742,951.248L943.265,951.339L942.777,951.427L942.31,951.507L941.845,951.584L941.382,951.655L940.93,951.722L940.474,951.785L940.028,951.844L939.578,951.899L939.137,951.95L938.712,951.997L938.276,952.042L937.84,952.083L937.421,952.121L937.003,952.155L936.58,952.188L936.159,952.217L935.745,952.244L935.339,952.268L934.927,952.29L934.517,952.309L934.12,952.326L933.717,952.341L933.315,952.353L932.914,952.364L932.52,952.372L932.125,952.379L931.731,952.384L931.344,952.387L930.951,952.388L930.563,952.387L930.144,952.385L929.409,952.375L928.644,952.36L927.883,952.338L927.128,952.311L926.374,952.279L925.627,952.241L924.884,952.199L924.139,952.152L923.398,952.101L922.665,952.045L921.929,951.986L921.194,951.922L920.464,951.855L919.734,951.784L919.008,951.71L918.283,951.632L917.557,951.551L916.836,951.468L916.118,951.381L915.398,951.292L914.678,951.199L913.963,951.104L913.248,951.006L912.536,950.907L911.824,950.805L911.112,950.7L910.405,950.594L909.695,950.485L908.989,950.374L908.288,950.262L907.585,950.148L906.883,950.032L906.187,949.915L905.489,949.796L904.792,949.675L904.103,949.554L903.412,949.431L902.722,949.307L902.034,949.181L901.352,949.055L900.673,948.928L899.992,948.8L899.316,948.671L898.644,948.542L897.963,948.41L896.646,948.151L895.329,947.888L894.026,947.624L892.739,947.361L891.47,947.098L890.218,946.836L889.359,946.655L885.866,954.898L881.471,962.807L876.463,969.74L870.927,975.578L864.959,980.222L858.659,983.592L852.136,985.631L845.5,986.305L838.867,985.601L832.347,983.531L826.054,980.132L820.094,975.46L814.569,969.596L809.573,962.64L805.193,954.711L801.502,945.944L798.564,936.489L796.429,926.507L795.78,921.331L795.547,921.08L794.947,920.418L794.333,919.72L793.739,919.025L793.113,918.271L792.469,917.473L791.866,916.7L791.238,915.874L790.579,914.978L789.94,914.082L789.293,913.144L788.638,912.165L787.995,911.167L787.344,910.125L786.691,909.042L786.02,907.89L785.362,906.714L784.73,905.544L784.069,904.273L783.428,902.99L782.8,901.68L782.157,900.285L781.529,898.858L780.945,897.473L780.34,895.974L779.883,894.785L778.51,894.698L777.074,894.61L774.161,894.43L771.224,894.248L769.73,894.154L768.231,894.058L766.724,893.958L765.206,893.855L763.678,893.748L762.153,893.638L761.369,893.579L760.595,893.52L759.818,893.46L759.038,893.398L758.257,893.335L757.473,893.269L756.688,893.203L755.899,893.134L755.106,893.063L754.314,892.991L753.52,892.917L752.722,892.84L751.921,892.761L751.117,892.68L750.313,892.597L749.936,892.557L749.932,892.565L749.607,893.42L749.282,894.255L748.975,895.029L748.675,895.768L748.373,896.502L748.078,897.205L747.779,897.904L747.494,898.56L747.206,899.213L746.932,899.825L746.661,900.423L746.382,901.028L746.114,901.603L745.842,902.179L745.586,902.714L745.335,903.232L745.081,903.751L744.833,904.253L744.576,904.766L744.329,905.255L744.088,905.728L743.809,906.269L743.383,907.084L742.922,907.951L742.469,908.789L742.031,909.588L741.594,910.372L741.171,911.121L740.757,911.846L740.346,912.556L739.948,913.235L739.557,913.894L739.172,914.537L738.792,915.165L738.417,915.778L738.052,916.371L737.699,916.938L737.351,917.492L737.003,918.043L736.667,918.569L736.339,919.08L736.013,919.584L735.705,920.056L735.394,920.53L735.091,920.989L734.805,921.421L734.49,921.891L733.971,922.661L733.461,923.41L732.98,924.108L732.536,924.748L732.133,925.322L731.766,925.842L731.441,926.297L731.159,926.69L730.91,927.034L730.75,927.254L725.49,933.576L719.757,938.764L713.649,942.732L707.269,945.414L700.723,946.763L694.122,946.757L687.577,945.397L681.198,942.704L675.093,938.725L669.364,933.527L664.108,927.196L659.413,919.84L655.359,911.582L652.013,902.562L649.432,892.931L647.941,884.451L644.751,882.266L642.829,880.755L639.374,877.443L637.629,875.476L637.315,875.492L636.657,875.523L635.999,875.551L635.34,875.577L634.674,875.6L634.006,875.621L633.337,875.638L632.665,875.653L631.992,875.665L631.314,875.673L630.632,875.678L629.777,875.681L628.992,875.67L627.956,875.627L626.821,875.543L625.597,875.41L624.268,875.215L622.798,874.937L621.195,874.557L619.409,874.04L617.455,873.355L615.299,872.456L612.86,871.244L610.222,869.687L607.305,867.662L604.135,865.046L600.745,861.736L599.018,859.718L595.271,854.889L594.542,853.855L594.532,853.854L594.016,853.804L593.501,853.753L592.979,853.699L592.453,853.642L591.923,853.582L591.39,853.52L590.847,853.454L590.304,853.385L589.757,853.314L589.203,853.238L588.645,853.159L588.084,853.076L587.519,852.99L586.947,852.899L586.375,852.805L585.792,852.706L585.205,852.602L584.622,852.495L584.028,852.382L583.427,852.263L582.825,852.14L582.22,852.012L581.607,851.878L580.987,851.737L580.367,851.592L579.743,851.44L579.112,851.282L578.476,851.117L577.833,850.945L577.187,850.766L576.539,850.58L575.884,850.387L575.226,850.186L574.56,849.977L573.891,849.759L573.216,849.533L572.538,849.298L571.857,849.056L571.164,848.801L570.471,848.538L569.774,848.266L569.07,847.983L568.364,847.691L567.695,847.406L567.292,847.23L566.934,847.071L566.576,846.91L566.217,846.747L565.852,846.578L565.487,846.407L565.12,846.233L564.756,846.057L564.385,845.875L563.803,845.586L562.874,845.104L561.659,844.421L560.498,843.715L559.333,842.959L558.17,842.148L557.028,841.301L556.77,841.097L556.759,841.119L556.736,841.167L556.707,841.228L556.681,841.283L556.656,841.338L556.627,841.401L556.597,841.464L556.568,841.53L556.536,841.599L556.505,841.669L556.468,841.751L556.434,841.828L556.402,841.901L556.361,841.996L556.321,842.088L556.286,842.17L556.244,842.268L556.202,842.37L556.158,842.474L556.114,842.58L556.07,842.687L556.022,842.803L555.974,842.922L555.923,843.047L555.871,843.177L555.818,843.309L555.784,843.395L555.655,843.724L555.537,844.027L555.414,844.349L555.288,844.68L555.152,845.042L555.011,845.421L554.867,845.81L554.715,846.224L554.556,846.664L554.392,847.118L554.221,847.594L554.043,848.092L553.861,848.606L553.671,849.144L553.479,849.69L553.055,850.902L552.138,853.528L551.643,854.939L551.373,855.707L551.099,856.484L550.817,857.282L550.527,858.094L550.228,858.929L549.92,859.785L549.602,860.66L549.274,861.556L548.936,862.472L548.841,862.728L548.809,862.949L548.512,864.797L548.163,866.764L547.731,868.992L547.167,871.603L546.482,874.437L545.621,877.63L544.5,881.306L543.089,885.359L541.257,889.949L538.865,895.068L537.448,897.622L534.023,903.228L534.008,903.251L529.68,908.999L529.664,909.018L524.275,914.598L524.259,914.613L519.548,918.345L517.872,919.505L514.41,921.448L510.838,923.002L507.067,924.184L503.288,924.888L499.723,925.148L495.995,925.014L494.023,924.699L489.214,923.563L489.193,923.556L483.31,921.119L483.289,921.108L478.082,917.903L478.06,917.887L474.02,914.635L472.185,912.991L469.029,909.597L466.493,906.456L464.362,903.485L462.601,900.759L461.149,898.308L459.943,896.108L458.892,894.062L457.994,892.197L457.241,890.548L456.575,889.016L455.997,887.626L455.49,886.356L455.017,885.128L455.01,885.132L448.608,886.644L442.136,886.855L435.7,885.762L429.404,883.383L423.349,879.755L417.633,874.939L412.35,869.01L407.585,862.066L403.414,854.22L399.905,845.597L397.115,836.338L395.089,826.592L393.861,816.517L393.449,806.277L393.449,793.013L393.451,792.338L393.456,791.508L393.466,790.676L393.48,789.858L393.496,789.054L393.517,788.248L393.541,787.441L393.57,786.617L393.602,785.808L393.636,785.03L393.675,784.234L393.718,783.422L393.764,782.627L393.812,781.845L393.863,781.078L393.919,780.297L393.978,779.513L394.04,778.73L394.105,777.966L394.172,777.213L394.242,776.46L394.316,775.697L394.393,774.946L394.472,774.193L394.556,773.444L394.638,772.725L394.725,771.994L394.815,771.261L394.828,771.161L394.425,771.16L393.932,771.154L393.421,771.142L392.9,771.124L392.349,771.098L391.785,771.065L391.207,771.023L390.594,770.97L389.962,770.906L389.302,770.829L388.608,770.736L387.886,770.626L387.118,770.494L386.307,770.338L385.459,770.156L384.574,769.945L383.632,769.695L382.618,769.399L381.552,769.054L380.421,768.651L379.197,768.17L377.894,767.606L376.41,766.899L374.605,765.939L372.581,764.71L370.64,763.379L368.713,761.909L366.685,760.188L364.713,758.322L362.813,756.344L360.919,754.169L359.1,751.874L357.352,749.455L355.636,746.856L354.045,744.204L352.613,741.606L351.199,738.809L349.887,735.955L348.697,733.131L347.623,730.33L346.658,727.584L345.728,724.674L344.775,721.362L344.698,721.397L344.27,721.595L343.842,721.79L343.414,721.984L342.98,722.178L342.551,722.367L342.118,722.557L341.684,722.744L340.399,723.293L338.274,724.067L336.319,724.628L334.983,724.946L333.999,725.147L333.249,725.281L332.54,725.395L331.694,725.512L330.923,725.602L330.273,725.669L329.673,725.723L329.121,725.766L328.589,725.804L328.066,725.838L327.546,725.867L327.024,725.893L326.503,725.916L325.975,725.935L325.439,725.952L324.889,725.966L324.334,725.975L323.764,725.981L323.171,725.983L322.558,725.979L321.914,725.968L321.232,725.95L320.549,725.922L320.093,725.898L319.688,725.873L319.227,725.841L318.736,725.801L318.219,725.753L317.63,725.69L316.978,725.609L316.248,725.506L315.396,725.366L314.384,725.174L313.18,724.906L311.716,724.522L309.811,723.924L307.652,723.094L305.814,722.254L303.976,721.314L301.644,719.941L298.927,718.073L295.61,715.393L293.787,713.602L289.111,708.409L289.102,708.397L286.393,704.766L283.851,700.844L283.844,700.831L280.531,694.776L280.319,694.348L279.956,693.596L279.594,692.833L279.235,692.058L278.878,691.272L278.509,690.441L278.159,689.631L277.819,688.829L277.474,687.996L277.133,687.151L276.899,686.56L276.353,686.834L275.66,687.176L274.958,687.517L274.251,687.854L273.536,688.189L272.851,688.502L272.449,688.684L272.081,688.848L271.719,689.007L271.345,689.17L270.964,689.334L270.592,689.492L270.219,689.649L269.833,689.809L269.449,689.965L269.063,690.12L268.672,690.276L268.286,690.426L267.888,690.579L267.484,690.732L267.084,690.88L266.678,691.028L266.272,691.174L265.86,691.319L265.445,691.462L265.023,691.604L264.601,691.744L264.176,691.881L263.739,692.019L263.306,692.152L262.863,692.285L262.414,692.416L261.963,692.544L261.508,692.669L261.052,692.79L260.588,692.91L260.114,693.028L259.635,693.143L259.148,693.255L258.657,693.363L258.164,693.467L257.66,693.568L257.151,693.665L256.639,693.758L256.107,693.848L255.572,693.932L255.039,694.01L254.486,694.085L253.92,694.155L253.355,694.218L252.786,694.274L252.202,694.324L251.604,694.367L250.99,694.404L250.37,694.432L249.75,694.45L249.106,694.461L248.453,694.461L247.792,694.452L247.114,694.431L246.426,694.399L245.711,694.353L244.995,694.295L244.268,694.223L243.521,694.135L242.763,694.031L241.974,693.908L241.183,693.767L240.371,693.607L239.537,693.423L238.698,693.221L237.836,692.992L236.952,692.736L236.055,692.454L235.141,692.144L234.195,691.797L233.246,691.422L232.271,691.01L231.271,690.557L230.079,689.98L228.426,689.104L226.535,687.962L224.691,686.721L222.817,685.315L221.102,683.893L219.374,682.336L217.649,680.624L216.036,678.888L214.51,677.106L213.002,675.212L211.533,673.212L210.199,671.26L208.9,669.222L207.705,667.207L206.581,665.187L205.494,663.094L204.508,661.064L203.584,659.04L202.745,657.077L201.946,655.094L201.21,653.138L200.384,650.814L199.334,647.561L198.338,644.062L197.502,640.747L196.798,637.569L196.222,634.604L195.755,631.856L195.37,629.257L195.057,626.805L194.807,624.51L194.607,622.34L194.452,620.294L194.336,618.393L194.252,616.62L194.192,614.913L194.156,613.294L194.138,611.755L194.137,610.314L194.148,608.963L194.172,607.649L194.206,606.389L194.248,605.203L194.297,604.065L194.353,602.967L194.414,601.93L194.478,600.926L194.548,599.955L194.622,598.996L194.698,598.083L194.774,597.231L194.854,596.382L194.939,595.538L195.023,594.734L195.108,593.963L195.194,593.208L195.285,592.447L195.375,591.718L195.463,591.023L195.554,590.334L195.646,589.655L195.741,588.973L195.835,588.314L195.929,587.676L196.024,587.044L196.119,586.421L196.215,585.806L196.313,585.196L196.41,584.6L196.508,584.01L196.609,583.414L196.709,582.83L196.82,582.193L197.007,581.148L197.213,580.031L197.419,578.94L197.627,577.863L197.839,576.795L198.053,575.74L198.27,574.692L198.489,573.654L198.711,572.623L198.936,571.596L199.164,570.574L199.395,569.554L199.629,568.541L199.865,567.529L200.105,566.515L200.348,565.506L200.594,564.495L200.844,563.485L201.097,562.474L201.353,561.461L201.612,560.453L201.875,559.437L202.141,558.424L202.41,557.41L202.685,556.388L202.961,555.37L203.241,554.35L203.524,553.327L203.81,552.305L204.101,551.276L204.396,550.242L204.693,549.212L204.995,548.179L205.3,547.141L205.608,546.102L205.92,545.062L206.236,544.018L206.556,542.971L206.88,541.922L207.206,540.875L207.536,539.824L207.873,538.764L208.211,537.707L208.552,536.651L208.899,535.589L209.249,534.524L209.603,533.46L209.96,532.395L210.322,531.326L210.688,530.254L211.059,529.181L211.432,528.108L211.809,527.035L212.192,525.958L212.579,524.877L212.97,523.798L213.365,522.717L213.765,521.633L214.17,520.547L214.578,519.462L214.991,518.379L215.41,517.288L215.818,516.237L216.046,515.655L216.261,515.108L216.478,514.562L216.694,514.018L216.911,513.476L217.131,512.927L217.357,512.371L217.577,511.83L217.801,511.282L218.026,510.736L218.251,510.19L218.481,509.639L218.71,509.09L218.941,508.542L219.174,507.991L219.408,507.442L219.643,506.895L219.882,506.34L220.12,505.792L220.36,505.241L220.603,504.687L220.844,504.141L221.091,503.586L221.338,503.033L221.586,502.483L221.84,501.924L222.092,501.372L222.344,500.823L222.6,500.269L222.859,499.713L223.121,499.154L223.382,498.602L223.643,498.052L223.912,497.489L224.181,496.932L224.451,496.377L224.725,495.816L225,495.259L225.278,494.7L225.556,494.143L225.839,493.583L226.123,493.024L226.411,492.462L226.702,491.898L226.993,491.339L227.288,490.776L227.59,490.207L227.89,489.644L228.19,489.087L228.5,488.516L228.811,487.949L229.124,487.382L229.44,486.816L229.757,486.253L230.085,485.676L230.412,485.105L230.741,484.536L231.079,483.959L231.414,483.393L231.754,482.823L232.102,482.245L232.453,481.668L232.807,481.093L233.167,480.514L233.531,479.937L233.9,479.356L234.273,478.776L234.631,478.227L235.255,477.276L235.861,476.362L236.465,475.457L237.071,474.554L237.677,473.659L238.282,472.772L238.89,471.886L239.496,471.008L240.101,470.139L240.706,469.274L241.311,468.415L241.917,467.559L242.523,466.709L243.127,465.866L243.732,465.026L244.335,464.193L244.939,463.364L245.542,462.54L246.145,461.722L246.748,460.906L247.349,460.096L247.949,459.292L248.55,458.49L249.151,457.693L249.749,456.901L250.347,456.114L250.945,455.33L250.957,455.313L253.689,446.234L257.315,437.387L261.637,429.366L261.899,428.993L262.037,428.361L262.241,427.416L262.448,426.45L262.66,425.458L262.875,424.442L263.094,423.405L263.316,422.35L263.775,420.161L264.241,417.944L264.487,416.781L264.736,415.609L264.992,414.417L265.254,413.203L265.516,412.005L265.661,411.345L265.803,410.706L265.948,410.06L266.095,409.406L266.246,408.742L266.4,408.074L266.559,407.388L266.722,406.691L266.889,405.987L267.063,405.262L267.243,404.526L267.428,403.776L267.622,402.998L267.822,402.211L268.033,401.395L268.255,400.553L268.488,399.686L268.706,398.888L269.059,397.617L269.388,396.44L269.718,395.265L270.051,394.093L270.385,392.92L270.721,391.751L271.058,390.589L271.397,389.425L271.739,388.261L272.083,387.1L272.429,385.941L272.776,384.786L273.126,383.633L273.478,382.479L273.832,381.328L274.19,380.177L274.548,379.031L274.908,377.887L275.272,376.743L275.638,375.601L276.007,374.46L276.378,373.321L276.752,372.183L277.127,371.051L277.506,369.917L277.888,368.784L278.271,367.657L278.659,366.527L279.048,365.401L279.441,364.275L279.836,363.152L280.233,362.035L280.634,360.914L281.038,359.795L281.445,358.679L281.855,357.566L282.267,356.456L282.683,355.344L283.102,354.236L283.523,353.13L283.947,352.027L284.375,350.926L284.805,349.827L285.24,348.727L285.678,347.628L286.118,346.536L286.56,345.447L287.006,344.358L287.456,343.269L287.909,342.183L288.365,341.102L288.824,340.022L289.286,338.942L289.751,337.868L290.22,336.794L290.692,335.721L291.167,334.653L291.644,333.589L292.125,332.526L292.61,331.463L293.098,330.404L293.587,329.352L294.081,328.297L294.579,327.244L295.079,326.197L295.581,325.153L296.088,324.11L296.597,323.07L297.11,322.03L297.625,320.997L298.143,319.967L298.666,318.935L299.19,317.909L299.718,316.884L300.25,315.862L300.783,314.846L301.319,313.831L301.859,312.816L302.403,311.805L302.949,310.798L303.497,309.793L304.049,308.791L304.604,307.791L305.162,306.792L305.723,305.797L306.285,304.807L306.852,303.818L307.423,302.828L307.995,301.844L308.569,300.863L309.149,299.882L309.73,298.904L310.313,297.93L310.901,296.956L311.492,295.984L312.084,295.017L312.679,294.051L313.279,293.085L313.88,292.124L314.484,291.163L315.092,290.204L315.702,289.248L316.317,288.291L316.933,287.338L317.552,286.387L318.174,285.438L318.798,284.49L319.428,283.541L320.059,282.595L320.693,281.652L321.33,280.709L321.971,279.766L322.615,278.825L323.261,277.887L323.91,276.948L324.563,276.009L325.22,275.071L325.88,274.134L326.541,273.2L327.206,272.264L327.876,271.329L328.547,270.395L329.223,269.461L329.902,268.526L330.584,267.592L331.269,266.659L331.958,265.725L332.596,264.865L332.797,264.593L332.946,264.391L333.094,264.189L333.242,263.984L333.393,263.776L333.546,263.562L333.697,263.351L333.85,263.136L334.007,262.913L334.161,262.693L334.316,262.471L334.474,262.242L334.633,262.013L334.792,261.78L334.954,261.543L335.115,261.306L335.28,261.062L335.445,260.816L335.609,260.572L335.777,260.318L335.944,260.067L336.113,259.81L336.288,259.545L336.459,259.282L336.631,259.018L336.806,258.75L336.983,258.476L337.144,258.225L337.523,257.634L337.889,257.059L338.261,256.469L338.639,255.866L339.024,255.25L339.415,254.62L339.813,253.976L340.218,253.319L340.629,252.648L341.048,251.962L341.473,251.263L341.9,250.561L342.8,249.074L343.721,247.551L344.674,245.973L345.65,244.36L346.162,243.516L346.679,242.666L347.203,241.806L347.736,240.934L348.279,240.048L348.833,239.149L349.395,238.241L349.966,237.322L350.551,236.387L351.143,235.444L351.745,234.492L352.36,233.527L352.968,232.579L353.301,232.064L353.619,231.573L353.942,231.075L354.268,230.576L354.594,230.079L354.924,229.577L355.258,229.073L355.592,228.57L355.932,228.06L356.277,227.547L356.62,227.037L356.966,226.526L357.32,226.007L357.674,225.49L358.029,224.974L358.39,224.452L358.753,223.93L359.12,223.405L359.489,222.881L359.859,222.357L360.235,221.829L360.614,221.3L360.994,220.772L361.381,220.238L361.77,219.705L362.16,219.174L362.553,218.641L362.948,218.11L363.351,217.572L363.756,217.035L364.162,216.499L364.574,215.96L364.986,215.425L365.239,215.099L365.251,215.082L365.307,215.006L365.56,214.66L365.867,214.237L366.247,213.711L366.693,213.094L367.194,212.402L367.749,211.639L368.332,210.841L368.672,210.38L369.004,209.931L369.35,209.465L369.713,208.98L370.086,208.484L370.471,207.977L370.875,207.449L371.296,206.905L371.73,206.348L372.183,205.773L372.658,205.179L373.158,204.561L373.679,203.926L374.225,203.271L374.808,202.585L375.369,201.937L375.744,201.511L376.079,201.134L376.419,200.756L376.779,200.361L377.157,199.953L377.54,199.544L377.938,199.125L378.359,198.69L378.797,198.244L379.26,197.782L379.74,197.312L380.244,196.828L380.774,196.33L381.333,195.817L381.93,195.284L382.555,194.74L383.225,194.175L383.938,193.592L384.693,192.997L385.508,192.379L386.387,191.74L387.334,191.085L388.341,190.424L389.438,189.745L390.63,189.056L391.932,188.36L393.354,187.666L394.893,186.991L396.594,186.336L398.474,185.72L400.527,185.176L402.473,184.79L403.974,184.573L405.247,184.439L406.568,184.352L407.989,184.316L409.439,184.346L410.944,184.442L412.528,184.621L414.165,184.886L415.905,185.26L417.665,185.738L419.509,186.342L421.417,187.092L423.308,187.954L425.301,188.999L427.311,190.204L429.297,191.545L431.352,193.102L433.382,194.824L435.357,196.681L437.341,198.744L439.284,200.98L441.114,203.298L442.924,205.807L444.645,208.442L446.239,211.106L447.767,213.908L449.175,216.738L450.507,219.668L451.707,222.575L452.746,225.329L453.74,228.208L454.644,231.106L455.443,233.934L456.13,236.634L456.731,239.242L456.774,239.449L456.987,239.266L459.745,237.192L463.146,235.049L466.706,233.301L469.683,232.181L472.394,231.395L475.311,230.812L478.507,230.479L482.084,230.479L485.912,230.931L489.836,231.874L491.817,232.609L496.23,234.583L498.298,235.669L500.3,237.031L504.438,240.203L504.446,240.21L508.44,244.017L508.448,244.026L512.161,248.34L513.846,250.49L516.916,255.138L519.598,259.92L521.957,264.837L523.918,269.646L524.731,271.957L526.824,278.61L526.834,278.643L527.06,279.58L527.476,278.659L528.197,277.07L528.913,275.499L529.622,273.944L530.321,272.411L531.705,269.382L532.379,267.902L533.046,266.437L533.702,264.99L534.356,263.543L534.666,262.854L534.982,262.151L535.293,261.457L535.601,260.766L535.906,260.081L536.208,259.401L536.506,258.726L536.799,258.061L537.09,257.397L537.377,256.741L537.658,256.094L537.937,255.45L538.21,254.814L538.479,254.187L538.744,253.565L539.004,252.951L539.26,252.343L539.511,251.743L539.756,251.155L539.938,250.713L540.09,250.165L540.269,249.525L540.449,248.889L540.627,248.273L540.799,247.681L540.975,247.082L541.15,246.497L541.32,245.934L541.491,245.374L541.66,244.825L541.826,244.29L542.011,243.702L542.313,242.755L542.627,241.784L542.934,240.851L543.231,239.958L543.515,239.118L543.788,238.316L543.926,237.915L544.081,236.356L544.725,231.048L545.592,225.82L545.595,225.803L547.474,217.519L549.911,209.608L552.878,202.165L552.879,202.161L556.92,194.261L561.555,187.23L566.711,181.179L572.307,176.205L578.253,172.387L578.255,172.386L584.621,169.734L591.151,168.406L597.734,168.427L604.26,169.794L610.62,172.486L616.707,176.457L622.421,181.641L622.422,181.643L626.624,186.561L630.485,192.135L633.966,198.307L635.438,201.53L637.496,202.759L641.081,205.409L644.49,208.463L647.296,211.433L647.639,211.087L648.211,210.518L648.813,209.93L649.396,209.369L649.762,209.023L650.091,208.713L650.432,208.397L650.775,208.081L651.126,207.762L651.48,207.443L651.845,207.118L652.228,206.782L652.605,206.455L652.992,206.123L653.391,205.786L653.79,205.453L654.204,205.112L654.629,204.768L655.052,204.43L655.483,204.091L655.936,203.741L656.393,203.393L656.849,203.053L657.314,202.711L657.79,202.368L658.274,202.025L658.78,201.674L659.283,201.333L659.791,200.995L660.314,200.655L660.844,200.318L661.383,199.983L661.933,199.65L662.493,199.319L663.059,198.993L663.641,198.668L664.232,198.346L664.827,198.032L665.428,197.724L666.043,197.42L666.671,197.119L667.309,196.824L667.949,196.539L668.601,196.26L669.272,195.984L669.94,195.721L670.621,195.465L671.319,195.215L672.023,194.976L672.732,194.747L673.446,194.53L674.177,194.322L674.921,194.123L675.666,193.938L676.416,193.767L677.184,193.605L677.954,193.458L678.732,193.325L679.524,193.205L680.317,193.1L681.121,193.01L681.928,192.936L682.743,192.877L683.571,192.834L684.397,192.809L685.083,192.802L685.747,192.803L686.261,192.805L686.775,192.808L687.288,192.813L687.798,192.82L688.306,192.828L688.814,192.838L689.318,192.849L689.823,192.862L690.327,192.876L690.828,192.892L691.33,192.91L691.828,192.929L692.326,192.95L692.824,192.973L693.319,192.998L693.815,193.024L694.309,193.052L694.803,193.082L695.294,193.114L695.785,193.148L696.278,193.184L696.77,193.223L697.259,193.263L697.748,193.305L698.239,193.349L698.728,193.396L699.217,193.445L699.707,193.496L700.194,193.55L700.68,193.605L701.172,193.664L701.661,193.725L702.15,193.789L702.64,193.855L703.128,193.924L703.618,193.996L704.112,194.071L704.604,194.149L705.091,194.229L705.586,194.314L706.082,194.401L706.576,194.492L707.073,194.586L707.569,194.683L708.069,194.785L708.569,194.89L709.068,194.998L709.572,195.111L710.078,195.229L710.584,195.35L711.094,195.476L711.604,195.606L712.115,195.741L712.63,195.881L713.147,196.026L713.669,196.176L714.188,196.331L714.713,196.492L715.24,196.658L715.771,196.831L716.306,197.011L716.841,197.195L717.378,197.386L717.921,197.585L718.465,197.79L719.012,198.002L719.569,198.224L720.127,198.452L720.683,198.687L721.245,198.931L721.818,199.187L722.389,199.448L722.964,199.72L723.539,199.999L724.123,200.29L724.717,200.595L725.305,200.905L725.899,201.226L726.504,201.563L727.109,201.909L727.72,202.269L728.335,202.64L728.95,203.022L729.569,203.418L730.199,203.831L730.832,204.257L731.469,204.699L732.108,205.154L732.744,205.619L733.4,206.111L734.05,206.614L734.706,207.134L735.369,207.675L736.023,208.224L736.642,208.757L736.81,208.628L737.699,207.98L738.563,207.379L739.487,206.767L740.446,206.167L741.398,205.605L742.353,205.074L743.378,204.538L744.421,204.033L745.459,203.565L746.53,203.121L747.617,202.709L748.718,202.331L749.833,201.987L750.976,201.675L752.13,201.402L753.286,201.17L754.491,200.971L755.688,200.819L756.883,200.708L758.102,200.642L759.275,200.62L760.418,200.638L761.565,200.693ZM1535.9,663.92L1535.91,663.894L1535.95,663.741L1535.98,663.596L1536.01,663.484L1536.03,663.385L1536.06,663.287L1536.07,663.206L1536.09,663.117L1536.1,663.06L1536.11,663.013L1536.13,662.942L1536.14,662.898L1536.14,662.88L1536.15,662.85L1536.15,662.809L1536.16,662.772L1536.17,662.74L1536.18,662.671L1536.19,662.598L1536.2,662.535L1536.22,662.443L1536.24,662.305L1536.27,662.163L1536.3,661.963L1536.34,661.689L1536.35,661.614L1535.9,663.92ZM1577.08,560.537L1577.08,560.533L1577.08,560.531L1577.08,560.537ZM1576.89,551.823L1576.91,552.153L1576.9,551.737L1576.89,551.653L1576.89,551.823ZM289.547,406.217L288.399,406.573L287.266,406.97L286.429,407.298L289.642,406.216L289.665,406.185L289.547,406.217ZM810.199,287.522L810.199,287.422L810.195,287.255L810.199,287.522Z" style="fill:rgb(185,232,217);fill-opacity:0.397727;"/>
                </g>
                <g id="Monitor" transform="matrix(1,0,0,0.292356,489.338,19.2672)">
                    <g id="Plug-socket" serif:id="Plug socket">
                        <g transform="matrix(2.01799,0,0,1,-864.483,0)">
                            <path d="M849.393,751.528C849.393,757.856 850.009,776.917 850.966,777.874C851.303,778.211 853.978,777.874 854.505,777.874C858.175,777.874 861.845,777.874 865.515,777.874C867.172,777.874 877.389,779.002 877.452,778.267C877.663,775.782 876.42,767.387 876.196,764.961C875.509,757.541 877.102,747.329 876.481,746.791C875.216,745.693 871.82,746.496 869.727,746.398C867.472,746.291 872.395,746.141 854.505,746.81C853.892,746.833 850.394,745.81 849.787,746.417C848.747,747.456 849.424,751.399 849.393,751.528Z" style="fill:rgb(230,230,230);stroke:rgb(0,0,6);stroke-width:0.63px;"/>
                        </g>
                        <g transform="matrix(1,0,0,1,1.40187,1.89666)">
                            <path d="M888.423,753.728C888.423,754.581 888.985,755.413 889.248,756.202C889.541,757.081 889.262,757.796 889.66,758.593C889.77,758.813 889.55,759.198 889.66,759.418C889.833,759.762 890.418,760.541 890.815,759.748C890.987,759.403 890.768,758.453 890.65,758.098C890.411,757.381 891.054,755.616 890.567,755.13C890.416,754.978 890.636,754.456 890.485,754.305C890.337,754.157 890.458,753.619 890.32,753.48C890.267,753.427 889.296,753.433 889.248,753.48C889.155,753.573 889.847,755.112 889.908,755.295C890.176,756.099 889.718,757.142 890.073,757.851C890.298,758.302 890.567,759.255 890.567,759.748" style="fill:rgb(230,230,230);stroke:rgb(0,0,6);stroke-width:1px;"/>
                        </g>
                        <path d="M885.29,766.839C885.29,768.497 887.346,767.747 888.588,767.747C888.882,767.747 889.953,768.031 890.155,767.829C890.249,767.735 890.226,766.404 890.155,766.262C890.094,766.141 889.165,766.317 889.001,766.262C888.285,766.024 885.737,765.485 885.042,766.18C884.711,766.511 885.627,766.757 885.785,766.757C886.573,766.757 888.275,766.361 888.753,766.839C888.915,767.001 889.417,766.843 889.578,767.004C889.814,767.24 888.856,767.169 888.753,767.169C888.372,767.169 886.527,766.83 886.527,767.169" style="fill:rgb(230,230,230);stroke:rgb(0,0,6);stroke-width:1px;"/>
                        <path d="M893.866,766.345C893.866,766.799 893.879,767.595 894.113,767.829C894.519,768.235 896.874,768.181 897.412,767.911C897.776,767.73 898.627,768.098 898.896,767.829C899.127,767.599 898.698,766.416 898.484,766.345C897.418,765.989 895.565,765.66 894.526,766.18C894.369,766.258 893.902,766.061 893.784,766.18C893.568,766.395 894.353,767 894.526,767.087C895.28,767.464 896.333,766.63 897.247,767.087C897.392,767.159 898.258,766.964 898.319,767.087C898.484,767.417 897.409,767.747 897.165,767.747C896.357,767.747 895.795,767.614 895.35,767.169C895.21,767.029 894.715,766.98 894.856,766.839C894.943,766.752 896.272,766.757 896.34,766.757" style="fill:rgb(230,230,230);stroke:rgb(0,0,6);stroke-width:1px;"/>
                        <path d="M860.138,752.573C861.707,752.573 864.946,752.792 866.158,753.398C867.057,753.847 868.694,757.81 869.457,761.397C869.601,762.075 873.21,769.824 871.766,770.303C867.615,771.68 855.005,771.415 853.624,770.138C852.55,769.144 855.836,756.876 856.593,756.119C857.262,755.45 858.176,753.629 858.737,753.068C859.154,752.651 859.401,752.651 859.726,752.903" style="fill:white;stroke:rgb(0,0,6);stroke-width:1px;"/>
                    </g>
                    <path d="M598.574,609.568C598.574,625.434 617.565,729.155 631.306,788.319C638.14,817.745 691.544,838.363 706.845,837.845C736.456,836.842 752.494,828.645 775.104,832.685C813.742,839.589 841.06,838.243 844.566,835.92C874.244,816.251 862.783,775.475 862.783,771.107" style="fill:none;stroke:rgb(0,0,6);stroke-width:1px;"/>
                    <g transform="matrix(0.129281,0,0,0.335298,508.31,437.943)">
                        <path d="M484.012,495.75C484.012,509.022 478.298,535.921 484.012,547.35C490.565,560.454 481.898,589.922 491.213,608.55C495.263,616.651 630.517,605.055 643.612,618.15C644.563,619.1 670.772,619.791 672.412,618.15C678.277,612.286 671.212,544.812 671.212,528.15C671.212,523.165 670.661,497.598 667.612,494.55C664.651,491.589 636.723,489.75 631.612,489.75C599.75,489.75 570.825,487.35 539.213,487.35C535.859,487.35 486.487,488.476 486.413,488.55C485.616,489.347 476.074,501.75 482.813,501.75" style="fill:rgb(102,102,102);stroke:rgb(0,0,6);stroke-width:3.94px;"/>
                    </g>
                    <g transform="matrix(0.268398,0,0,0.0462524,428.573,617.516)">
                        <path d="M484.012,495.75C484.012,509.022 478.298,535.921 484.012,547.35C490.565,560.454 481.898,589.922 491.213,608.55C495.263,616.651 630.517,605.055 643.612,618.15C644.563,619.1 670.772,619.791 672.412,618.15C678.277,612.286 671.212,544.812 671.212,528.15C671.212,523.165 670.661,497.598 667.612,494.55C664.651,491.589 636.723,489.75 631.612,489.75C599.75,489.75 570.825,487.35 539.213,487.35C535.859,487.35 486.487,488.476 486.413,488.55C485.616,489.347 476.074,501.75 482.813,501.75" style="fill:rgb(102,102,102);stroke:rgb(0,0,6);stroke-width:5.19px;"/>
                    </g>
                    <path d="M484.012,495.75C484.012,509.022 484.019,535.667 485.301,548.381C486.571,560.97 481.898,589.922 491.213,608.55C495.263,616.651 630.517,605.055 643.612,618.15C644.563,619.1 670.772,619.791 672.412,618.15C678.277,612.286 671.212,544.812 671.212,528.15C671.212,523.165 670.661,497.598 667.612,494.55C664.651,491.589 636.723,489.75 631.612,489.75C599.75,489.75 570.825,487.35 539.213,487.35C535.859,487.35 486.487,488.476 486.413,488.55C485.616,489.347 484.012,495.75 484.012,495.75Z" style="fill:rgb(102,102,102);stroke:rgb(0,0,6);stroke-width:1px;"/>
                    <g transform="matrix(0.925896,0,0,0.854311,42.8007,80.6014)">
                        <path d="M484.012,495.75C484.012,509.022 483.01,534.31 485.404,547.048C487.782,559.7 481.898,589.922 491.213,608.55C495.263,616.651 630.517,605.055 643.612,618.15C644.563,619.1 670.772,619.791 672.412,618.15C678.277,612.286 671.212,544.812 671.212,528.15C671.212,523.165 670.661,497.598 667.612,494.55C664.651,491.589 636.723,489.75 631.612,489.75C599.75,489.75 570.825,487.35 539.213,487.35C535.859,487.35 486.487,488.476 486.413,488.55C485.616,489.347 482.841,492.854 484.012,495.75" style="fill:rgb(164,194,213);stroke:rgb(0,0,6);stroke-width:1.12px;"/>
                    </g>
                </g>
                <g id="Desk" transform="matrix(1,0,0,0.292356,489.338,19.2672)">
                    <g transform="matrix(0.768198,0,0,1.06245,150.86,-51.1972)">
                        <path d="M655.612,668.55C655.612,703.861 661.612,739.733 661.612,777.75C661.612,786.588 658.113,841.717 666.412,838.95C687.823,831.813 668.222,814.93 676.012,799.35C684.512,782.351 683.469,714.663 674.813,697.35C671.912,691.548 676.915,671.852 672.412,667.35C669.028,663.966 650.813,668.286 650.813,670.95" style="fill:rgb(218,191,150);stroke:rgb(0,0,15);stroke-width:1.08px;"/>
                    </g>
                    <g transform="matrix(1,0,0,1,-2.39999,-8.40001)">
                        <path d="M310.012,660.15C310.012,684.895 317.213,704.127 317.213,727.35C317.213,743.564 319.613,758.628 319.613,775.35C319.613,784.799 321.342,796.561 318.413,805.35C317.148,809.145 312.109,837.447 316.012,841.35C316.737,842.075 322.074,841.35 323.213,841.35C324.35,841.35 329.688,842.075 330.413,841.35C333.091,838.671 331.613,802.437 331.613,795.75C331.613,761.755 339.888,716.3 325.613,687.75C323.453,683.431 327.942,666.079 324.413,662.55C321.288,659.426 315.631,661.35 311.213,661.35" style="fill:rgb(218,191,150);stroke:black;stroke-width:1px;"/>
                    </g>
                    <path d="M305.213,654.15C305.213,655.797 332.032,659.09 335.212,660.15C348.159,664.466 448.51,668.55 458.813,668.55C473.316,668.55 492.29,669.811 504.413,663.75C512.342,659.785 609.562,663.75 625.612,663.75C639.998,663.75 654.867,662.55 667.612,662.55C669.389,662.55 683.918,663.044 684.412,662.55C684.902,662.061 685.102,647.64 684.412,646.95C683.281,645.819 681.165,646.562 679.612,646.95C670.484,649.232 611.964,648.358 605.213,645.75C601.302,644.239 553.307,645.202 528.413,646.95C514.401,647.934 485.124,645.074 474.412,645.75C456.56,646.876 447.193,643.731 425.212,644.55C422.64,644.646 353.765,643.35 348.413,643.35C341.506,643.35 293.729,642.834 292.012,644.55C281.364,655.198 306.622,657.75 310.012,657.75" style="fill:rgb(218,191,150);stroke:black;stroke-width:1px;"/>
                </g>
                <g id="Keyboard" transform="matrix(1,0,0,0.292356,489.338,19.2672)">
                    <path d="M521.756,643.676C523.689,643.676 527.586,643.917 529.621,644.935C531.643,645.946 535.934,644.62 538.114,644.62C539.574,644.62 542.838,645.247 544.091,644.62C547.937,642.697 553.076,642.103 558.876,642.103" style="fill:none;stroke:rgb(0,0,6);stroke-width:1px;"/>
                    <g transform="matrix(0.552833,0,0,0.904635,201.562,60.5959)">
                        <path d="M452.974,638.708C452.401,638.708 453.004,636.554 452.773,636.091C452.697,635.94 452.279,634.324 452.37,634.279C453.722,633.603 456.394,634.883 457.806,634.883C458.126,634.883 459.615,634.679 459.819,634.883C460.117,635.181 459.819,637.401 459.819,637.903C459.819,638.07 460.701,639.034 460.423,639.312C460.238,639.498 458.937,639.312 458.611,639.312C456.866,639.312 455.121,639.312 453.377,639.312" style="fill:rgb(102,102,102);stroke:rgb(0,0,6);stroke-width:1.33px;"/>
                    </g>
                    <g transform="matrix(0.552833,0,0,0.904635,206.966,60.8492)">
                        <path d="M452.974,638.708C452.401,638.708 453.004,636.554 452.773,636.091C452.697,635.94 452.967,635.071 453.057,635.026C454.41,634.35 456.394,634.883 457.806,634.883C458.126,634.883 459.615,634.679 459.819,634.883C460.117,635.181 459.819,637.401 459.819,637.903C459.819,638.07 460.701,639.034 460.423,639.312C460.238,639.498 458.937,639.312 458.611,639.312C456.866,639.312 455.121,639.312 453.377,639.312" style="fill:rgb(102,102,102);stroke:rgb(0,0,6);stroke-width:1.33px;"/>
                    </g>
                    <g transform="matrix(0.552833,0,0,0.904635,246.944,60.8492)">
                        <path d="M452.974,638.708C452.401,638.708 453.004,636.554 452.773,636.091C452.697,635.94 452.967,635.071 453.057,635.026C454.41,634.35 456.394,634.883 457.806,634.883C458.126,634.883 459.615,634.679 459.819,634.883C460.117,635.181 459.819,637.401 459.819,637.903C459.819,638.07 460.701,639.034 460.423,639.312C460.238,639.498 458.937,639.312 458.611,639.312C456.866,639.312 455.121,639.312 453.377,639.312" style="fill:rgb(102,102,102);stroke:rgb(0,0,6);stroke-width:1.33px;"/>
                    </g>
                    <g transform="matrix(0.513652,0,0,0.825775,278.372,111.003)">
                        <path d="M452.974,638.708C452.401,638.708 453.004,636.554 452.773,636.091C452.697,635.94 452.967,635.071 453.057,635.026C454.41,634.35 456.394,634.883 457.806,634.883C458.126,634.883 459.352,635.211 459.556,635.415C459.854,635.713 459.819,637.401 459.819,637.903C459.819,638.07 460.701,639.034 460.423,639.312C460.238,639.498 458.937,639.312 458.611,639.312C456.866,639.312 455.121,639.312 453.377,639.312" style="fill:rgb(102,102,102);stroke:rgb(0,0,6);stroke-width:1.45px;"/>
                    </g>
                    <g transform="matrix(-0.513652,0,0,0.825775,752.064,110.969)">
                        <path d="M452.974,638.708C452.401,638.708 453.004,636.554 452.773,636.091C452.697,635.94 452.967,635.071 453.057,635.026C454.41,634.35 456.394,634.883 457.806,634.883C458.126,634.883 459.352,635.211 459.556,635.415C459.854,635.713 459.819,637.401 459.819,637.903C459.819,638.07 460.701,639.034 460.423,639.312C460.238,639.498 458.937,639.312 458.611,639.312C456.866,639.312 455.121,639.312 453.377,639.312" style="fill:rgb(102,102,102);stroke:rgb(0,0,6);stroke-width:1.45px;"/>
                    </g>
                    <g transform="matrix(0.552833,0,0,0.904635,252.552,60.8492)">
                        <path d="M452.974,638.708C452.401,638.708 453.004,636.554 452.773,636.091C452.697,635.94 452.967,635.071 453.057,635.026C454.41,634.35 455.34,635.83 456.732,635.685C458.842,635.467 459.615,634.679 459.819,634.883C460.117,635.181 459.819,637.401 459.819,637.903C459.819,638.07 460.701,639.034 460.423,639.312C460.238,639.498 458.937,639.312 458.611,639.312C456.866,639.312 455.121,639.312 453.377,639.312" style="fill:rgb(102,102,102);stroke:rgb(0,0,6);stroke-width:1.33px;"/>
                    </g>
                    <g transform="matrix(4.57801,0,0,0.904635,-1609.88,60.6381)">
                        <path d="M452.974,638.708C452.401,638.708 452.781,637.394 452.747,635.578C452.739,635.142 452.969,635.075 453.057,635.026C454.415,634.269 455.188,634.843 456.584,635.07C456.9,635.121 459.615,634.679 459.819,634.883C460.117,635.181 459.945,636.846 459.931,637.343C459.922,637.65 459.996,639.221 459.718,639.499C459.533,639.685 458.937,639.312 458.611,639.312C456.866,639.312 455.121,639.312 453.377,639.312" style="fill:rgb(102,102,102);stroke:rgb(0,0,6);stroke-width:0.3px;"/>
                    </g>
                    <g transform="matrix(1,0,0,0.755057,0,158.886)">
                        <path d="M451.071,642.832C451.071,645.224 449.176,633.616 449.842,633.616C454.469,633.616 460.727,634.812 467.046,634.845C479.208,634.907 487.736,635.459 490.393,635.459C500.044,635.459 518.201,635.459 521.113,635.459C521.691,635.459 522.836,645.413 522.553,645.695C521.868,646.38 517.878,643.829 513.782,646.228C512.579,646.933 507.556,647.109 506.78,646.333C504.592,644.144 497.872,646.879 494.694,645.29C490.806,643.345 483.269,644.675 478.719,644.675C470.405,644.675 460.565,644.061 451.686,644.061" style="fill:rgb(102,102,102);stroke:rgb(0,0,6);stroke-width:1.13px;"/>
                    </g>
                </g>
                <g id="Mouse" transform="matrix(1,0,0,0.292356,489.338,19.2672)">
                    <path d="M641.136,647.888C641.136,647.188 641.995,647.177 642.395,646.378C644.291,642.585 647.277,642.521 651.958,642.855C653.378,642.956 654.473,643.513 655.815,644.196C656.114,644.348 657.479,647.651 656.991,648.14C656.378,648.752 654.18,648.322 653.216,648.643C652.398,648.916 649.821,649.588 648.938,649.146C647.215,648.285 643.711,648.895 641.891,648.895" style="fill:rgb(102,102,102);stroke:rgb(0,0,6);stroke-width:1px;"/>
                    <path d="M644.857,644.015C644.857,644.255 645.723,644.798 645.929,645.005C646.348,645.423 646.596,646.007 646.837,646.489C646.88,646.576 647.311,646.798 647.414,646.901C647.827,647.315 648.238,647.998 648.238,648.798" style="fill:none;stroke:rgb(0,0,6);stroke-width:1px;"/>
                    <path d="M644.033,648.468C644.033,648.047 644.809,648.005 645.105,647.808C645.686,647.421 646.259,646.63 646.259,645.912" style="fill:none;stroke:rgb(0,0,6);stroke-width:1px;"/>
                    <path d="M646.424,648.138C646.424,647.914 646.37,647.612 646.424,647.396C646.465,647.234 646.507,646.734 646.507,646.901C646.507,647.075 646.75,647.997 647.088,647.997C647.254,647.997 647.139,647.726 647.166,647.726C647.304,647.726 647.537,647.994 647.414,648.056C647.176,648.174 646.538,648.056 646.259,648.056C646.053,648.056 645.911,648.138 645.682,648.138" style="fill:none;stroke:rgb(0,0,6);stroke-width:1px;"/>
                    <path d="M642.136,647.149C641.748,647.149 641.436,646.448 641.147,646.159C640.907,645.919 640.274,645.929 639.91,645.747C639.603,645.593 638.45,645.693 638.178,645.829C637.864,645.986 637.326,645.76 637.023,645.912C636.488,646.179 635.268,646.236 634.632,646.077C633.239,645.728 631.973,645.52 630.674,645.087C630.064,644.884 629.099,645.215 628.695,645.417C628.301,645.614 627.729,645.39 627.293,645.499C626.379,645.728 625.401,645.684 624.489,645.912C623.193,646.236 622.076,645.499 621.108,645.499C620.943,645.499 620.337,645.802 620.118,645.912C619.75,646.096 618.241,645.984 617.809,645.912C615.088,645.458 612.881,644.345 610.058,644.345" style="fill:none;stroke:rgb(0,0,6);stroke-width:1px;"/>
                </g>
                <g id="Person" transform="matrix(0.770727,0,0,0.225326,214.853,77.2247)">
                    <path d="M423.822,659.079C423.822,695.153 422.622,730.259 422.622,765.878C422.622,771.859 417.236,796.493 421.422,800.678C426.266,805.523 428.622,827.899 428.622,835.478" style="fill:none;stroke:rgb(0,0,6);stroke-width:3.89px;"/>
                    <path d="M560.621,663.879C560.621,677.808 557.087,710.875 561.821,725.078C571.906,755.332 577.421,806.241 577.421,837.878" style="fill:none;stroke:rgb(0,0,6);stroke-width:3.89px;"/>
                    <path d="M396.855,594.293C401.385,579.507 410.592,547.144 412.765,540.626C416.012,530.886 419.724,520.709 423.325,509.906C427.018,498.825 425.456,485.273 429.085,474.386C439.942,441.813 443.439,419.712 464.605,398.546C467.642,395.509 516.961,391.577 523.277,392.376C533.361,393.652 541.686,400.747 548.125,407.186C556.229,415.29 553.375,432.086 558.685,442.706C565.854,457.045 567.048,472.597 572.125,487.826C574.145,493.886 583.488,531.673 588.445,541.586C593.857,552.411 593.675,575.793 596.125,584.786C596.84,587.411 599.938,629.416 599.965,634.706C600.034,648.408 594.98,657.248 579.703,662.341C575.486,663.746 556.79,668.541 552.916,672.416C547.397,677.935 486.056,680.786 479.005,680.786C445.168,680.786 387.683,637.692 387.805,628.946C388.154,603.975 396.855,594.293 396.855,594.293Z" style="fill:rgb(59,81,115);stroke:rgb(0,0,6);stroke-width:1.3px;"/>
                    <path d="M483.224,393.746C475.372,388.59 472.12,377.984 469.346,369.975C464.649,356.418 459.199,330.826 454.961,313.874C452.378,303.542 452.604,267.883 452.948,267.2C458.055,257.06 462.758,252.507 472.185,247.498C477.769,244.532 492.08,240.461 509.729,241.278C533.505,242.378 537.168,250.227 544.684,253.385C548.099,254.82 550.925,270.605 552.036,273.938C553.805,279.243 555.855,300.356 556.219,304.7C556.813,311.777 556.028,319.103 553.879,325.548C551.239,333.467 550.621,342.508 546.507,350.738C543.678,356.396 531.641,376.954 529.918,379.615C526.588,384.756 527.016,387.487 516.169,391.288C515.087,391.667 483.224,393.746 483.224,393.746Z" style="fill:rgb(255,254,238);stroke:rgb(0,0,6);stroke-width:1.3px;"/>
                    <g transform="matrix(2.27395,0,0,1.80457,-610.824,-278.301)">
                        <path d="M479.612,345.9C479.612,348.777 478.584,350.304 482.128,350.304" style="fill:none;stroke:rgb(0,0,6);stroke-width:1.45px;"/>
                    </g>
                    <g transform="matrix(1.67523,0,0,1.39153,-354.862,-134.321)">
                        <path d="M522.708,343.068C522.708,346.439 521.147,348.416 525.539,348.416" style="fill:none;stroke:rgb(0,0,6);stroke-width:2.53px;"/>
                    </g>
                    <path d="M551.021,428.679C564.005,428.679 577.672,437.857 589.421,443.079C608.922,451.746 631.92,460.377 643.421,471.879C645.195,473.652 638.866,477.718 638.621,477.879C632.145,482.134 627.431,493.209 619.421,495.879C610.026,499.01 603.71,500.603 593.069,505.277C583.38,509.534 550.797,520.787 548.412,521.256C530.34,524.811 512.384,534.516 509.021,537.879C507.703,539.197 509.462,541.479 506.621,541.479" style="fill:none;stroke:rgb(0,0,6);stroke-width:3.89px;"/>
                    <path d="M506.523,533.661C506.523,534.412 505.317,533.86 505.013,534.164C504.597,534.58 502.748,537.705 502.748,538.191C502.748,540.224 506.279,540.585 507.529,541.211C507.897,541.394 509.291,541.271 509.291,540.959" style="fill:none;stroke:rgb(0,0,6);stroke-width:3.89px;"/>
                    <path d="M513.066,532.654C513.066,533.586 514.851,537.412 514.073,538.191C513.597,538.666 511.808,538.298 511.808,539.197" style="fill:none;stroke:rgb(0,0,6);stroke-width:3.89px;"/>
                    <path d="M447.822,421.479C441.861,427.44 415.212,432.677 410.823,434.872C396.179,442.194 385.295,444.671 375.265,454.7C374.539,455.427 367.65,467.307 368.622,468.279C372.363,472.02 420.844,484.618 428.357,488.493C449.151,499.221 488.835,516.052 503.021,530.679C504.066,531.756 507.301,539.079 509.021,539.079" style="fill:none;stroke:rgb(0,0,6);stroke-width:3.89px;"/>
                </g>
                <g id="Printer" transform="matrix(1,0,0,0.292356,-7.26827,26.9091)">
                    <path d="M795.55,582.085C795.55,584.891 797.108,595.524 798.499,598.305C801.473,604.253 800.284,607.56 803.906,613.542C807.612,619.664 816.638,616.343 822.092,616.96C833.282,618.226 845.367,618.949 856.99,618.949C865.071,618.949 873.329,618.457 881.074,618.457C882.411,618.457 890.333,619.576 890.928,618.457C894.588,611.576 895.328,604.422 895.328,598.305C895.328,595.417 896.153,589.71 896.311,585.526C896.343,584.68 898,576.525 897.294,576.187C892.662,573.97 886.536,574.263 875.341,573.327C861.585,572.176 840.488,572.255 826.516,572.255C822.068,572.255 798.499,572.255 796.041,574.712C792.849,577.904 795.55,582.085 795.55,582.085Z" style="fill:rgb(255,253,245);stroke:rgb(2,2,0);stroke-width:1px;"/>
                    <path d="M795.627,575.01C796.863,575.01 795.842,572.364 796.231,571.587C796.365,571.319 797.107,570.51 797.238,570.379C797.741,569.876 804.122,569.997 805.895,570.178C808.236,570.416 810.684,569.775 812.538,569.775C818.708,569.775 842.095,569.555 848.418,569.199C849.325,569.148 863.761,569.752 866.896,570.379C868.646,570.729 883.686,569.6 888.438,571.184C890.595,571.903 898.144,574.578 896.894,572.996C896.136,572.037 896.654,574.646 896.491,574.808C895.465,575.835 892.068,576.148 890.049,576.016C842.143,572.891 800.3,574.607 795.828,574.607" style="fill:rgb(63,173,220);stroke:rgb(2,2,0);stroke-width:1px;"/>
                    <path d="M820.889,610.138C820.165,610.252 825.829,610.327 830.859,610.443C834.621,610.529 839.377,611.047 842.654,611.866C844.156,612.241 852.488,611.929 855.421,612.255C857.647,612.502 859.826,612.857 862.065,613.06C864.405,613.273 870.989,613.284 871.683,611.898C872.109,611.045 875.112,599.984 874.794,599.348C874.329,598.419 863.3,598.766 859.85,598.766C858.107,598.766 849.126,598.35 847.569,597.961C844.306,597.145 840.667,598.006 837.499,597.215C835.018,596.594 832.063,597.155 829.651,597.155C826.918,597.155 824.295,597.357 821.598,597.357C820.509,597.357 818.74,597.075 817.773,597.558C817.249,597.82 818.311,603.935 818.429,604.48C818.891,606.615 820.628,610.138 820.889,610.138Z" style="fill:rgb(45,52,55);stroke:rgb(2,2,0);stroke-width:1px;"/>
                    <path d="M824.294,569.743C823.965,569.085 824.25,568.146 824.046,567.434C823.385,565.12 823.469,563.122 823.469,560.755C823.469,559.931 823.297,558.631 823.551,557.869C823.854,556.961 823.649,555.992 823.881,555.065C824.142,554.021 824.227,552.523 824.046,551.437C823.759,549.716 823.479,546.628 824.129,545.005C824.369,544.404 824.376,543.667 824.376,543.025C824.376,542.722 824.294,542.118 824.294,542.118C824.294,542.118 824.733,542.118 824.953,542.118C825.425,542.118 825.939,542.201 826.438,542.201C827.751,542.201 828.967,542.268 830.231,542.448C834.482,543.055 839.131,543.884 843.425,543.025C844.327,542.845 858.345,543.233 859.176,543.025C860.488,542.697 863.257,542.386 864.536,543.025C864.817,543.166 865.657,542.91 865.855,543.108C866.099,543.352 866.02,544.399 866.02,544.757C866.02,546.121 866.127,547.541 866.35,548.88C866.691,550.93 866.025,553.195 866.432,555.23C867.058,558.358 866.597,562.067 866.597,565.29C866.597,566.645 866.35,567.909 866.35,569.249C866.35,569.607 866.466,570.452 866.267,570.651C865.969,570.949 865.219,570.556 864.865,570.733C863.972,571.18 862.13,570.815 861.072,570.815C858.994,570.815 857.047,570.799 855.135,570.321C854.22,570.092 853.179,570.393 852.249,570.238C849.975,569.859 847.57,569.908 845.239,569.908C843.473,569.908 841.71,569.829 840.044,569.496C838.641,569.216 837.072,569.661 835.674,569.661C831.722,569.661 827.662,569.826 824.046,569.826" style="fill:white;stroke:rgb(2,2,0);stroke-width:1px;"/>
                </g>
                <g id="Clock" transform="matrix(0.941423,0,0,0.27523,79.6268,-2.01161)">
                    <path d="M1367.16,427.526C1360.75,422.303 1335.05,415.429 1320.65,424.783C1318.13,426.421 1304.28,432.919 1299.2,440.784C1295.19,446.978 1289.32,465.826 1290.83,472.123C1297.12,498.482 1304.2,496.959 1319.3,504.868C1330.54,510.751 1359.99,508.778 1368.03,504.757C1378.67,499.435 1381.13,496.837 1386.87,485.366C1387.65,483.799 1396.32,463.615 1387.83,447.004C1378.96,429.642 1367.16,427.526 1367.16,427.526Z" style="fill:rgb(250,255,253);stroke:black;stroke-width:3.6px;"/>
                    <g transform="matrix(1.21259,0.163071,-0.158774,1.18063,-216.361,-297.282)">
                        <path d="M1337.42,433.526C1337.42,437.929 1338.71,442.418 1340.04,446.411C1340.93,449.073 1339.9,452.576 1341.25,455.269C1342.11,456.986 1343.46,460.645 1343.46,462.316" style="fill:none;stroke:black;stroke-width:3.17px;"/>
                    </g>
                    <path d="M1340.64,467.55C1342.89,467.55 1343.71,463.158 1345.27,462.114C1347.67,460.518 1350.56,458.235 1352.72,456.074C1352.89,455.907 1353.56,456.242 1353.73,456.074C1354.38,455.429 1355.94,452.451 1356.95,452.451" style="fill:none;stroke:black;stroke-width:3.82px;"/>
                </g>
            </g>
        </g>
    </g>
</svg>
