<?xml version="1.0" encoding="UTF-8" standalone="no"?><!DOCTYPE svg PUBLIC "-//W3C//DTD SVG 1.1//EN" "http://www.w3.org/Graphics/SVG/1.1/DTD/svg11.dtd"><svg width="100%" height="100%" viewBox="0 0 471 391" version="1.1" xmlns="http://www.w3.org/2000/svg" xmlns:xlink="http://www.w3.org/1999/xlink" xml:space="preserve" xmlns:serif="http://www.serif.com/" style="fill-rule:evenodd;clip-rule:evenodd;stroke-linecap:round;stroke-linejoin:round;stroke-miterlimit:1.5;"><g id="Tools"><path d="M149.055,50.534l0.444,0.003l0.41,0.004l0.479,0.007l0.444,0.009l0.411,0.009l0.481,0.013l0.446,0.015l0.446,0.016l0.482,0.02l0.413,0.019l0.447,0.022l0.483,0.027l0.483,0.029l0.448,0.029l0.45,0.03l0.485,0.036l0.449,0.035l0.485,0.04l0.487,0.044l0.449,0.042l0.45,0.044l0.487,0.049l0.488,0.053l0.452,0.051l0.524,0.062l0.488,0.061l0.45,0.058l0.489,0.065l0.488,0.068l0.489,0.071l0.489,0.073l0.489,0.076l0.488,0.078l0.489,0.082l0.492,0.084l0.489,0.087l0.489,0.089l0.523,0.099l0.527,0.103l0.454,0.091l0.488,0.1l0.561,0.119l0.488,0.107l0.492,0.11l0.525,0.122l0.487,0.115l0.526,0.127l0.49,0.123l0.524,0.133l0.52,0.137l0.489,0.13l0.528,0.145l0.517,0.146l0.522,0.15l0.488,0.143l0.52,0.157l0.553,0.17l0.519,0.163l0.49,0.158l0.518,0.17l0.549,0.184l0.516,0.177l0.52,0.182l0.519,0.185l0.506,0.184l0.517,0.192l0.549,0.208l0.508,0.197l0.514,0.202l0.544,0.219l0.505,0.206l0.541,0.226l0.509,0.216l0.538,0.232l0.536,0.237l0.497,0.223l0.503,0.23l0.538,0.25l0.559,0.265l0.49,0.237l0.503,0.246l0.523,0.261l0.521,0.265l0.526,0.271l0.546,0.287l0.514,0.275l0.484,0.263l0.517,0.286l0.507,0.284l0.513,0.293l0.51,0.296l0.527,0.31l0.505,0.303l0.495,0.301l0.458,0.283l1.104,0.69l1.044,0.655l1.042,0.656l1.033,0.654l1.036,0.658l1.024,0.654l1.022,0.655l1.026,0.661l1.012,0.656l1.003,0.653l1.009,0.66l1.007,0.662l0.995,0.658l0.993,0.66l0.994,0.664l0.99,0.666l0.977,0.661l0.98,0.666l0.98,0.67l0.958,0.66l0.502,0.348l0.482,0.334l0.485,0.338l0.483,0.338l0.476,0.333l0.478,0.336l0.489,0.345l0.485,0.343l0.474,0.337l0.473,0.337l0.478,0.342l0.476,0.342l0.47,0.338l0.478,0.345l0.473,0.343l0.469,0.341l0.483,0.354l0.47,0.344l0.465,0.343l0.468,0.345l0.466,0.346l0.471,0.35l0.461,0.344l0.473,0.354l0.467,0.352l0.458,0.346l0.475,0.36l0.464,0.354l0.451,0.344l0.459,0.352l0.47,0.363l0.46,0.356l0.456,0.353l0.454,0.355l0.467,0.365l0.457,0.36l0.452,0.356l0.459,0.364l0.455,0.362l0.448,0.358l0.452,0.363l0.461,0.372l0.441,0.357l0.453,0.368l0.457,0.374l0.443,0.364l0.446,0.367l0.454,0.376l0.45,0.374l0.439,0.366l0.442,0.371l0.45,0.379l0.441,0.373l0.444,0.377l0.442,0.379l0.438,0.375l0.454,0.391l0.435,0.378l0.426,0.37l0.447,0.39l0.441,0.388l0.432,0.381l0.43,0.382l0.438,0.39l0.433,0.388l0.428,0.384l0.443,0.401l0.43,0.39l0.424,0.387l0.437,0.4l0.422,0.39l0.43,0.398l0.425,0.395l0.428,0.4l0.43,0.405l0.413,0.39l0.429,0.407l0.428,0.408l0.414,0.397l0.425,0.41l0.421,0.407l0.411,0.4l0.426,0.417l0.417,0.41l0.411,0.407l0.419,0.416l0.422,0.421l0.408,0.41l0.408,0.411l0.406,0.412l0.413,0.421l0.42,0.43l0.399,0.412l0.402,0.416l0.416,0.433l0.404,0.422l0.406,0.428l0.409,0.432l0.396,0.421l0.399,0.426l0.398,0.428l0.404,0.436l0.403,0.438l0.395,0.43l0.396,0.436l0.396,0.436l0.394,0.437l0.393,0.439l0.393,0.44l0.391,0.44l0.389,0.442l0.385,0.438l0.395,0.452l0.389,0.448l0.374,0.434l0.391,0.455l0.386,0.451l0.385,0.453l0.383,0.453l0.372,0.443l0.381,0.455l0.387,0.465l0.375,0.453l0.378,0.459l0.372,0.456l0.368,0.452l0.377,0.465l0.373,0.463l0.374,0.468l0.37,0.464l0.362,0.457l0.371,0.47l0.37,0.472l0.365,0.468l0.363,0.469l0.363,0.47l0.358,0.467l0.36,0.472l0.369,0.486l0.36,0.477l0.353,0.47l0.356,0.477l0.357,0.48l0.35,0.474l0.355,0.482l0.355,0.486l0.351,0.483l0.351,0.485l0.346,0.482l0.349,0.487l0.35,0.492l0.343,0.485l0.343,0.486l0.346,0.494l0.345,0.495l0.34,0.49l0.338,0.49l0.342,0.499l0.342,0.501l0.332,0.489l0.339,0.502l0.339,0.505l0.329,0.492l0.333,0.5l0.336,0.508l0.335,0.509l0.326,0.498l0.325,0.5l0.333,0.512l0.326,0.507l0.324,0.504l0.33,0.518l0.324,0.51l0.324,0.513l0.32,0.509l0.323,0.515l0.321,0.516l0.317,0.512l0.32,0.52l0.157,0.256l0.311,0.066l0.618,0.132l0.619,0.131l0.639,0.133l0.638,0.133l0.637,0.131l0.665,0.135l0.665,0.135l0.672,0.135l0.689,0.138l0.689,0.136l0.703,0.139l0.705,0.138l0.712,0.138l0.726,0.141l0.726,0.139l0.732,0.14l0.74,0.14l0.754,0.143l0.761,0.143l0.759,0.141l0.755,0.141l1.57,0.29l1.582,0.289l1.601,0.291l1.617,0.291l1.645,0.293l1.667,0.296l1.677,0.296l1.694,0.297l1.717,0.3l1.728,0.301l1.742,0.301l1.758,0.304l1.765,0.303l3.577,0.614l3.608,0.617l3.643,0.623l3.669,0.628l3.679,0.632l1.858,0.321l1.852,0.32l1.849,0.321l1.858,0.323l1.857,0.326l1.848,0.325l1.855,0.328l1.857,0.331l1.846,0.33l1.846,0.333l1.846,0.336l1.838,0.337l1.815,0.336l0.928,0.172l0.918,0.172l0.915,0.172l0.911,0.173l0.896,0.17l0.91,0.173l0.915,0.176l0.897,0.173l0.903,0.175l0.903,0.177l0.892,0.175l0.894,0.177l0.896,0.178l0.894,0.179l0.889,0.18l0.88,0.178l0.886,0.181l0.89,0.184l0.872,0.181l0.88,0.183l0.875,0.185l0.872,0.185l0.871,0.186l0.869,0.188l0.865,0.188l0.863,0.189l0.868,0.193l0.848,0.189l0.856,0.193l0.853,0.194l0.847,0.195l0.856,0.198l0.847,0.199l0.842,0.2l0.839,0.2l0.834,0.202l0.836,0.205l0.842,0.208l0.828,0.207l0.832,0.21l0.824,0.212l0.824,0.213l0.831,0.219l0.821,0.218l0.829,0.223l0.816,0.223l0.818,0.227l0.824,0.231l0.814,0.232l0.814,0.236l0.822,0.241l0.811,0.242l0.815,0.246l0.827,0.255l0.822,0.257l0.816,0.26l0.797,0.257l0.439,0.145l0.399,0.132l0.436,0.146l0.407,0.137l0.406,0.138l0.414,0.142l0.43,0.149l0.429,0.151l0.399,0.141l0.398,0.143l0.431,0.155l0.44,0.161l0.432,0.159l0.432,0.161l0.409,0.155l0.41,0.155l0.444,0.171l0.445,0.174l0.436,0.171l0.412,0.165l0.459,0.185l0.449,0.183l0.416,0.172l0.464,0.194l0.428,0.181l0.457,0.196l0.469,0.203l0.472,0.208l0.473,0.211l0.438,0.198l0.479,0.22l0.481,0.224l0.445,0.209l0.473,0.226l0.503,0.244l0.52,0.257l0.469,0.235l0.487,0.247l0.546,0.281l0.48,0.252l0.498,0.266l0.575,0.311l0.535,0.296l0.513,0.288l0.517,0.296l0.551,0.32l0.573,0.339l0.58,0.35l0.584,0.361l0.545,0.342l0.599,0.384l0.604,0.396l0.583,0.389l0.639,0.436l0.626,0.437l0.626,0.447l0.662,0.485l0.656,0.491l0.65,0.5l0.681,0.535l0.699,0.566l0.676,0.561l0.707,0.603l0.747,0.656l0.727,0.658l0.733,0.683l0.767,0.738l0.748,0.745l0.756,0.776l0.787,0.837l0.765,0.843l0.825,0.943l0.796,0.951l0.78,0.965l0.827,1.071l0.799,1.082l0.803,1.138l0.817,1.216l0.808,1.269l0.768,1.273l0.783,1.373l0.663,1.24l0.478,0.934l0.457,0.931l0.55,1.173l0.602,1.366l0.561,1.363l0.53,1.378l0.465,1.302l0.432,1.292l0.396,1.283l0.342,1.19l0.331,1.245l0.289,1.183l0.263,1.166l0.224,1.095l0.204,1.078l0.181,1.068l0.162,1.044l0.135,0.991l0.119,0.963l0.102,0.957l0.085,0.896l0.074,0.929l0.058,0.871l0.046,0.856l0.032,0.796l0.024,0.788l0.015,0.778l0.006,0.722l-0.001,0.76l-0.01,0.705l-0.013,0.652l-0.022,0.692l-0.027,0.685l-0.032,0.631l-0.033,0.584l-0.038,0.581l-0.044,0.618l-0.047,0.572l-0.045,0.523l-0.049,0.517l-0.052,0.521l-0.06,0.559l-0.053,0.467l-0.055,0.469l-0.059,0.472l-0.055,0.427l-0.063,0.467l-0.059,0.424l-0.069,0.473l-0.11,0.732l-0.119,0.751l-0.122,0.73l-0.12,0.691l-0.114,0.64l-0.105,0.568l-0.016,0.086l0.012,0.148l0.037,0.468l0.03,0.402l0.029,0.403l0.031,0.468l0.028,0.437l0.025,0.403l0.025,0.437l0.023,0.439l0.022,0.438l0.02,0.435l0.017,0.407l0.017,0.439l0.015,0.439l0.014,0.438l0.012,0.439l0.01,0.409l0.008,0.408l0.008,0.441l0.006,0.439l0.004,0.441l0.003,0.441l0.001,0.409l-0.001,0.41l-0.002,0.442l-0.004,0.442l-0.005,0.442l-0.007,0.41l-0.008,0.412l-0.011,0.474l-0.011,0.411l-0.013,0.411l-0.015,0.443l-0.015,0.413l-0.019,0.443l-0.02,0.443l-0.02,0.414l-0.022,0.412l-0.025,0.443l-0.025,0.412l-0.026,0.413l-0.03,0.446l-0.032,0.444l-0.031,0.412l-0.032,0.415l-0.037,0.444l-0.036,0.415l-0.037,0.413l-0.041,0.444l-0.041,0.413l-0.041,0.412l-0.047,0.451l-0.045,0.412l-0.046,0.409l-0.052,0.449l-0.05,0.416l-0.051,0.412l-0.056,0.444l-0.05,0.38l-0.056,0.417l-0.062,0.448l-0.064,0.444l-0.06,0.412l-0.057,0.38l-0.064,0.416l-0.07,0.449l-0.067,0.411l-0.068,0.411l-0.075,0.443l-0.066,0.385l-0.073,0.416l-0.08,0.443l-0.076,0.41l-0.071,0.379l-0.08,0.416l-0.088,0.448l-0.081,0.409l-0.085,0.416l-0.085,0.409l-0.086,0.41l-0.083,0.383l-0.091,0.416l-0.098,0.44l-0.092,0.408l-0.096,0.415l-0.09,0.383l-0.097,0.407l-0.098,0.407l-0.102,0.414l-0.104,0.414l-0.103,0.406l-0.105,0.406l-0.1,0.382l-0.109,0.413l-0.12,0.444l-0.103,0.373l-0.103,0.373l-0.122,0.435l-0.118,0.412l-0.11,0.38l-0.112,0.381l-0.131,0.442l-0.121,0.401l-0.114,0.37l-0.117,0.38l-0.125,0.4l-0.14,0.44l-0.122,0.378l-0.12,0.369l-0.134,0.408l-0.137,0.408l-0.124,0.367l-0.135,0.397l-0.145,0.418l-0.131,0.376l-0.153,0.43l-0.259,0.72l-0.291,0.789l-0.288,0.766l-0.291,0.756l-0.308,0.782l-0.308,0.767l-0.307,0.749l-0.31,0.742l-0.324,0.76l-0.333,0.764l-0.327,0.735l-0.334,0.739l-0.343,0.743l-0.342,0.728l-0.353,0.739l-0.362,0.744l-0.354,0.714l-0.362,0.718l-0.367,0.715l-0.38,0.727l-0.378,0.711l-0.374,0.694l-0.395,0.719l-0.393,0.703l-0.386,0.68l-0.402,0.698l-0.41,0.7l-0.412,0.692l-0.409,0.677l-0.409,0.667l-0.425,0.683l-0.423,0.669l-0.427,0.665l-0.44,0.675l-0.436,0.66l-0.441,0.656l-0.439,0.646l-0.449,0.651l-0.459,0.655l-0.45,0.634l-0.462,0.641l-0.458,0.627l-0.462,0.624l-0.474,0.632l-0.476,0.626l-0.474,0.614l-0.486,0.622l-0.488,0.616l-0.476,0.592l-0.489,0.602l-0.501,0.608l-0.495,0.593l-0.492,0.582l-0.511,0.596l-0.506,0.584l-0.51,0.58l-0.506,0.568l-0.516,0.574l-0.529,0.579l-0.508,0.549l-0.527,0.563l-0.538,0.568l-0.518,0.54l-0.537,0.553l-0.54,0.549l-0.527,0.529l-0.547,0.543l-0.541,0.53l-0.553,0.536l-0.556,0.532l-0.542,0.512l-0.546,0.51l-0.556,0.513l-0.559,0.51l-0.563,0.508l-0.574,0.511l-0.569,0.5l-0.562,0.489l-0.565,0.485l-0.577,0.49l-0.588,0.493l-0.565,0.468l-0.577,0.473l-0.587,0.476l-0.591,0.473l-0.593,0.468l-0.569,0.445l-0.59,0.456l-0.6,0.458l-0.595,0.449l-0.608,0.453l-0.599,0.441l-0.591,0.431l-0.615,0.442l-0.599,0.425l-0.601,0.423l-0.622,0.431l-0.605,0.415l-0.608,0.412l-0.617,0.414l-0.623,0.412l-0.625,0.409l-0.616,0.398l-0.611,0.389l-0.631,0.399l-0.626,0.39l-0.624,0.384l-0.637,0.387l-0.632,0.38l-0.623,0.369l-0.635,0.373l-0.65,0.376l-0.628,0.359l-0.648,0.366l-0.637,0.355l-0.638,0.352l-0.647,0.351l-0.648,0.349l-0.656,0.347l-0.633,0.332l-0.653,0.337l-0.661,0.338l-0.65,0.327l-0.652,0.324l-0.659,0.324l-0.655,0.316l-0.656,0.314l-0.671,0.316l-0.666,0.31l-0.654,0.3l-0.662,0.3l-0.671,0.299l-0.672,0.296l-0.673,0.292l-0.661,0.283l-0.677,0.286l-0.677,0.281l-0.665,0.273l-0.689,0.278l-0.675,0.269l-0.669,0.263l-0.679,0.262l-0.679,0.259l-0.7,0.262l-0.682,0.252l-0.664,0.241l-0.698,0.251l-0.7,0.246l-0.668,0.231l-0.687,0.235l-0.703,0.235l-0.699,0.231l-0.686,0.222l-0.691,0.221l-0.703,0.22l-0.684,0.21l-0.709,0.215l-0.705,0.209l-0.687,0.2l-0.707,0.203l-0.69,0.193l-0.705,0.195l-0.724,0.195l-0.696,0.185l-0.692,0.18l-0.705,0.179l-0.725,0.181l-0.712,0.173l-0.709,0.17l-0.711,0.165l-0.696,0.159l-0.724,0.162l-0.712,0.155l-0.713,0.153l-0.727,0.15l-0.712,0.145l-0.714,0.141l-0.712,0.137l-0.729,0.136l-0.73,0.133l-0.713,0.127l-0.716,0.123l-0.73,0.122l-0.729,0.118l-0.716,0.113l-0.731,0.111l-0.731,0.107l-0.7,0.1l-0.54,0.074l-0.509,0.067l-0.479,0.062l-0.535,0.065l-0.507,0.06l-0.479,0.054l-0.508,0.055l-0.507,0.053l-0.478,0.048l-0.507,0.048l-0.534,0.048l-0.478,0.041l-0.478,0.039l-0.505,0.039l-0.506,0.036l-0.477,0.033l-0.476,0.03l-0.533,0.032l-0.477,0.026l-0.476,0.024l-0.476,0.022l-0.475,0.021l-0.503,0.019l-0.475,0.016l-0.503,0.016l-0.475,0.012l-0.474,0.01l-0.474,0.009l-0.474,0.007l-0.473,0.004l-0.473,0.003l-0.501,0.001l-0.445,0l-0.472,-0.003l-0.472,-0.004l-0.472,-0.006l-0.472,-0.008l-0.444,-0.009l-0.47,-0.012l-0.471,-0.013l-0.471,-0.015l-0.469,-0.016l-0.443,-0.017l-0.442,-0.019l-0.47,-0.021l-0.469,-0.023l-0.469,-0.025l-0.441,-0.025l-0.441,-0.027l-0.468,-0.029l-0.44,-0.03l-0.441,-0.031l-0.467,-0.034l-0.44,-0.034l-0.44,-0.035l-0.44,-0.036l-0.438,-0.038l-0.466,-0.042l-0.439,-0.041l-0.439,-0.042l-0.44,-0.044l-0.437,-0.045l-0.438,-0.046l-0.413,-0.045l-0.462,-0.051l-0.437,-0.051l-0.413,-0.048l-0.436,-0.053l-0.437,-0.054l-0.438,-0.056l-0.41,-0.053l-0.437,-0.058l-0.435,-0.059l-0.435,-0.061l-0.411,-0.058l-0.445,-0.064l-0.823,-0.123l-0.845,-0.13l-0.83,-0.133l-0.831,-0.137l-0.831,-0.142l-0.828,-0.145l-0.818,-0.149l-0.818,-0.152l-0.815,-0.156l-0.815,-0.16l-0.805,-0.162l-0.801,-0.165l-0.803,-0.17l-0.792,-0.171l-0.801,-0.176l-0.778,-0.175l-0.791,-0.182l-0.788,-0.185l-0.778,-0.185l-0.778,-0.189l-0.767,-0.19l-0.765,-0.192l-0.779,-0.199l-0.766,-0.199l-0.753,-0.199l-0.755,-0.202l-0.757,-0.205l-0.765,-0.212l-0.742,-0.207l-0.744,-0.211l-0.745,-0.214l-0.744,-0.215l-0.744,-0.22l-0.722,-0.215l-0.733,-0.22l-0.734,-0.224l-0.723,-0.223l-0.736,-0.229l-0.722,-0.227l-0.713,-0.227l-0.714,-0.23l-0.712,-0.231l-0.714,-0.233l-0.714,-0.236l-0.704,-0.235l-0.704,-0.237l-0.704,-0.239l-0.695,-0.238l-0.692,-0.239l-0.695,-0.241l-0.697,-0.245l-0.684,-0.241l-0.685,-0.244l-0.686,-0.246l-0.684,-0.247l-0.678,-0.246l-0.675,-0.247l-0.677,-0.249l-0.677,-0.251l-0.666,-0.249l-0.668,-0.25l-0.667,-0.252l-0.659,-0.25l-0.657,-0.251l-0.659,-0.252l-0.659,-0.255l-0.648,-0.251l-0.649,-0.253l-0.649,-0.255l-0.651,-0.256l-0.64,-0.253l-0.64,-0.254l-0.641,-0.256l-0.64,-0.256l-0.632,-0.254l-0.623,-0.252l-0.639,-0.259l-0.622,-0.253l-0.623,-0.254l-0.646,-0.265l-1.211,-0.499l-1.227,-0.509l-1.216,-0.508l-1.207,-0.506l-1.198,-0.505l-1.183,-0.502l-1.178,-0.501l-1.164,-0.497l-1.153,-0.494l-1.142,-0.492l-1.134,-0.489l-1.121,-0.484l-1.111,-0.481l-2.176,-0.944l-2.133,-0.927l-2.085,-0.906l-2.044,-0.885l-0.993,-0.43l-0.98,-0.423l-0.961,-0.413l-0.956,-0.41l-0.937,-0.4l-0.917,-0.39l-0.907,-0.384l-0.891,-0.375l-0.869,-0.363l-0.852,-0.355l-0.859,-0.354l-0.398,-0.163l-0.402,-0.165l-0.4,-0.163l-0.399,-0.161l-0.397,-0.161l-0.38,-0.152l-0.142,-0.057l-0.006,0.003l-0.645,0.348l-0.647,0.347l-0.669,0.356l-0.675,0.357l-0.693,0.363l-0.708,0.367l-0.719,0.369l-0.737,0.375l-0.753,0.379l-0.725,0.36l-0.425,0.209l-0.394,0.192l-0.389,0.189l-0.414,0.199l-0.391,0.187l-0.406,0.193l-0.427,0.201l-0.408,0.19l-0.408,0.189l-0.43,0.198l-0.425,0.193l-0.448,0.202l-0.443,0.198l-0.424,0.188l-0.45,0.197l-0.447,0.194l-0.469,0.202l-0.466,0.197l-0.446,0.188l-0.49,0.203l-0.488,0.2l-0.466,0.189l-0.495,0.198l-0.488,0.192l-0.489,0.191l-0.519,0.199l-0.538,0.203l-0.514,0.191l-0.492,0.181l-0.546,0.197l-0.539,0.19l-0.546,0.191l-0.544,0.186l-0.571,0.192l-0.573,0.188l-0.548,0.177l-0.601,0.19l-0.578,0.179l-0.607,0.183l-0.606,0.178l-0.61,0.176l-0.639,0.179l-0.614,0.167l-0.644,0.17l-0.651,0.167l-0.648,0.162l-0.683,0.164l-0.685,0.159l-0.686,0.154l-0.725,0.156l-0.696,0.143l-0.698,0.138l-0.763,0.143l-0.74,0.132l-0.743,0.126l-0.778,0.124l-0.783,0.117l-0.79,0.11l-0.794,0.102l-0.828,0.099l-0.837,0.089l-0.841,0.082l-0.879,0.075l-0.855,0.063l-0.861,0.054l-0.931,0.048l-0.937,0.036l-0.912,0.023l-0.919,0.013l-0.958,0.001l-0.997,-0.013l-0.971,-0.025l-1.012,-0.04l-0.881,-0.048l-0.612,-0.039l-0.578,-0.041l-0.514,-0.041l-0.449,-0.039l-0.52,-0.048l-0.584,-0.06l-0.586,-0.064l-0.523,-0.062l-0.451,-0.056l-0.594,-0.078l-0.594,-0.084l-0.52,-0.078l-0.53,-0.083l-0.532,-0.088l-0.593,-0.102l-0.533,-0.098l-0.594,-0.112l-0.601,-0.121l-0.47,-0.098l-0.595,-0.128l-0.668,-0.151l-0.537,-0.127l-0.538,-0.131l-0.594,-0.15l-0.603,-0.158l-0.611,-0.167l-0.593,-0.168l-0.537,-0.157l-0.601,-0.18l-0.664,-0.208l-0.535,-0.173l-0.536,-0.177l-0.659,-0.225l-0.596,-0.211l-0.606,-0.219l-0.593,-0.223l-0.591,-0.227l-0.601,-0.239l-0.587,-0.238l-0.645,-0.271l-0.595,-0.256l-0.58,-0.256l-0.578,-0.262l-0.588,-0.274l-0.643,-0.305l-0.625,-0.308l-0.524,-0.263l-0.617,-0.317l-0.628,-0.332l-0.515,-0.278l-0.606,-0.334l-0.615,-0.349l-0.559,-0.323l-0.606,-0.36l-0.601,-0.365l-0.596,-0.371l-0.541,-0.344l-0.537,-0.349l-0.612,-0.406l-0.574,-0.392l-0.539,-0.373l-0.517,-0.368l-0.558,-0.403l-0.595,-0.441l-0.561,-0.425l-0.496,-0.384l-0.533,-0.419l-0.583,-0.472l-0.502,-0.413l-0.49,-0.412l-0.522,-0.447l-0.538,-0.471l-0.492,-0.44l-0.502,-0.458l-0.495,-0.461l-0.472,-0.447l-0.498,-0.482l-0.474,-0.469l-0.483,-0.487l-0.475,-0.489l-0.437,-0.457l-0.475,-0.508l-0.438,-0.478l-0.431,-0.478l-0.451,-0.513l-0.417,-0.481l-0.436,-0.514l-0.427,-0.514l-0.395,-0.484l-0.412,-0.515l-0.42,-0.535l-0.373,-0.485l-0.374,-0.495l-0.381,-0.515l-0.368,-0.505l-0.381,-0.534l-0.344,-0.493l-0.352,-0.512l-0.372,-0.553l-0.337,-0.51l-0.33,-0.51l-0.335,-0.529l-0.316,-0.507l-0.309,-0.505l-0.315,-0.525l-0.308,-0.524l-0.303,-0.525l-0.295,-0.521l-0.181,-0.326l-0.06,-0.077l-0.097,-0.125l-0.107,-0.137l-0.117,-0.149l-0.118,-0.147l-0.125,-0.156l-0.144,-0.178l-0.15,-0.187l-0.146,-0.179l-0.165,-0.201l-0.18,-0.219l-0.156,-0.189l-0.394,-0.474l-0.41,-0.49l-0.431,-0.514l-0.452,-0.536l-1.012,-1.195l-1.074,-1.269l-0.579,-0.686l-0.595,-0.706l-0.619,-0.738l-0.635,-0.761l-0.639,-0.771l-0.35,-0.425l-0.327,-0.398l-0.346,-0.423l-0.353,-0.434l-0.345,-0.426l-0.354,-0.44l-0.359,-0.448l-0.358,-0.449l-0.367,-0.464l-0.371,-0.472l-0.374,-0.478l-0.379,-0.488l-0.374,-0.487l-0.379,-0.495l-0.391,-0.516l-0.389,-0.518l-0.386,-0.519l-0.397,-0.538l-0.399,-0.545l-0.394,-0.545l-0.404,-0.564l-0.407,-0.574l-0.404,-0.577l-0.408,-0.589l-0.413,-0.603l-0.415,-0.614l-0.415,-0.622l-0.415,-0.631l-0.417,-0.642l-0.42,-0.657l-0.419,-0.664l-0.42,-0.677l-0.424,-0.695l-0.4,-0.665l-0.233,-0.394l-0.208,-0.354l-0.216,-0.37l-0.207,-0.359l-0.212,-0.371l-0.219,-0.388l-0.211,-0.375l-0.2,-0.362l-0.216,-0.392l-0.222,-0.407l-0.204,-0.38l-0.195,-0.367l-0.217,-0.412l-0.216,-0.414l-0.214,-0.415l-0.204,-0.402l-0.203,-0.404l-0.223,-0.449l-0.2,-0.407l-0.198,-0.409l-0.21,-0.44l-0.216,-0.457l-0.199,-0.429l-0.191,-0.416l-0.21,-0.462l-0.207,-0.464l-0.199,-0.453l-0.197,-0.454l-0.201,-0.471l-0.204,-0.488l-0.19,-0.461l-0.188,-0.462l-0.198,-0.494l-0.201,-0.513l-0.187,-0.485l-0.178,-0.471l-0.193,-0.519l-0.185,-0.509l-0.183,-0.511l-0.184,-0.525l-0.18,-0.528l-0.18,-0.535l-0.17,-0.521l-0.167,-0.522l-0.174,-0.553l-0.166,-0.545l-0.163,-0.547l-0.168,-0.578l-0.16,-0.57l-0.155,-0.563l-0.153,-0.575l-0.149,-0.577l-0.148,-0.588l-0.141,-0.581l-0.137,-0.584l-0.142,-0.623l-0.134,-0.615l-0.124,-0.59l-0.124,-0.61l-0.123,-0.64l-0.114,-0.615l-0.113,-0.636l-0.107,-0.638l-0.102,-0.631l-0.082,-0.542l-0.073,-0.51l-0.074,-0.537l-0.069,-0.529l-0.065,-0.536l-0.059,-0.507l-0.055,-0.505l-0.05,-0.499l-0.048,-0.498l-0.044,-0.507l-0.032,-0.387l-0.171,-0.067l-1.85,-0.719l-1.845,-0.714l-0.903,-0.349l-0.896,-0.345l-0.898,-0.345l-0.898,-0.344l-0.893,-0.342l-0.883,-0.336l-0.871,-0.33l-0.872,-0.33l-0.871,-0.327l-0.867,-0.325l-0.855,-0.319l-0.578,-0.214l-0.344,0.026l-0.738,0.047l-0.857,0.045l-0.92,0.036l-0.868,0.021l-0.875,0.011l-0.939,-0.002l-1.004,-0.017l-1.011,-0.033l-1.017,-0.049l-1.082,-0.07l-1.027,-0.084l-1.092,-0.106l-1.219,-0.143l-1.161,-0.159l-1.163,-0.18l-1.222,-0.213l-1.228,-0.24l-1.226,-0.266l-1.282,-0.304l-1.276,-0.333l-1.335,-0.377l-1.334,-0.413l-1.316,-0.437l-1.41,-0.506l-1.34,-0.518l-1.282,-0.529l-1.377,-0.605l-1.391,-0.654l-1.318,-0.659l-1.349,-0.715l-1.376,-0.776l-1.286,-0.769l-1.295,-0.815l-1.178,-0.786l-0.746,-0.519l-0.619,-0.44l-0.607,-0.445l-0.672,-0.503l-0.587,-0.455l-0.551,-0.432l-0.663,-0.539l-0.556,-0.463l-0.584,-0.496l-0.598,-0.524l-0.552,-0.494l-0.572,-0.526l-0.534,-0.503l-0.576,-0.555l-0.719,-0.713l-0.729,-0.746l-0.752,-0.794l-0.728,-0.796l-0.685,-0.773l-0.674,-0.783l-0.673,-0.808l-0.66,-0.82l-0.62,-0.793l-0.624,-0.824l-0.6,-0.82l-0.583,-0.82l-0.595,-0.865l-0.545,-0.821l-0.532,-0.826l-0.53,-0.85l-0.494,-0.819l-0.483,-0.826l-0.469,-0.83l-0.466,-0.851l-0.453,-0.858l-0.421,-0.824l-0.408,-0.826l-0.396,-0.83l-0.383,-0.832l-0.363,-0.817l-0.359,-0.834l-0.338,-0.818l-0.322,-0.806l-0.316,-0.822l-0.296,-0.799l-0.287,-0.803l-0.277,-0.81l-0.258,-0.783l-0.25,-0.79l-0.24,-0.789l-0.221,-0.761l-0.22,-0.788l-0.21,-0.786l-0.195,-0.765l-0.181,-0.744l-0.17,-0.732l-0.17,-0.771l-0.159,-0.758l-0.14,-0.707l-0.137,-0.726l-0.133,-0.744l-0.12,-0.721l-0.111,-0.699l-0.102,-0.691l-0.099,-0.714l-0.09,-0.708l-0.082,-0.683l-0.074,-0.683l-0.069,-0.68l-0.062,-0.678l-0.055,-0.672l-0.048,-0.653l-0.043,-0.65l-0.037,-0.665l-0.031,-0.644l-0.026,-0.641l-0.02,-0.639l-0.015,-0.617l-0.01,-0.633l-0.005,-0.632l0,-0.61l0.005,-0.608l0.009,-0.606l0.014,-0.605l0.018,-0.601l0.021,-0.579l0.027,-0.6l0.031,-0.595l0.033,-0.557l0.038,-0.574l0.043,-0.59l0.044,-0.555l0.049,-0.569l0.053,-0.567l0.055,-0.546l0.058,-0.545l0.061,-0.548l0.068,-0.564l0.067,-0.525l0.069,-0.524l0.078,-0.565l0.076,-0.521l0.077,-0.514l0.086,-0.542l0.083,-0.504l0.088,-0.521l0.095,-0.537l0.091,-0.501l0.094,-0.499l0.1,-0.515l0.099,-0.497l0.103,-0.502l0.103,-0.484l0.106,-0.492l0.116,-0.517l0.112,-0.488l0.112,-0.479l0.12,-0.496l0.117,-0.476l0.116,-0.46l0.126,-0.492l0.132,-0.499l0.123,-0.456l0.127,-0.464l0.137,-0.489l0.132,-0.461l0.134,-0.461l0.135,-0.453l0.141,-0.469l0.141,-0.458l0.142,-0.451l0.148,-0.466l0.152,-0.466l0.146,-0.443l0.154,-0.458l0.152,-0.447l0.149,-0.43l0.171,-0.483l0.157,-0.44l0.15,-0.411l0.167,-0.455l0.168,-0.449l0.171,-0.449l0.168,-0.436l0.169,-0.432l0.172,-0.431l0.173,-0.431l0.182,-0.445l0.178,-0.43l0.18,-0.429l0.182,-0.429l0.189,-0.439l0.193,-0.44l0.182,-0.411l0.19,-0.425l0.2,-0.438l0.188,-0.409l0.203,-0.436l0.207,-0.437l0.194,-0.406l0.204,-0.422l0.214,-0.435l0.208,-0.419l0.204,-0.405l0.221,-0.434l0.223,-0.434l0.211,-0.403l0.221,-0.419l0.223,-0.417l0.227,-0.419l0.238,-0.433l0.222,-0.401l0.234,-0.417l0.247,-0.433l0.232,-0.405l0.252,-0.432l0.245,-0.416l0.242,-0.404l0.252,-0.417l0.264,-0.432l0.26,-0.42l0.253,-0.403l0.276,-0.435l0.258,-0.402l0.273,-0.421l0.277,-0.42l0.28,-0.42l0.296,-0.438l0.265,-0.388l0.294,-0.425l0.307,-0.438l0.288,-0.406l0.078,-0.107l-1.414,-4.955l-1.093,-7.369l-0.121,-7.448l0.853,-7.401l1.81,-7.226l2.739,-6.927l3.619,-6.511l4.439,-5.983l5.181,-5.353l5.835,-4.63l6.39,-3.829l6.836,-2.962l7.163,-2.045l7.369,-1.092l5.171,-0.084l0.133,-0.047l0.247,-0.087l0.269,-0.096l0.25,-0.089l0.237,-0.086l0.254,-0.092l0.589,-0.215l0.578,-0.213l0.599,-0.223l0.619,-0.233l0.643,-0.243l0.671,-0.255l0.69,-0.264l0.7,-0.269l0.712,-0.275l1.527,-0.592l1.574,-0.612l1.641,-0.638l1.689,-0.656l0.884,-0.342l0.897,-0.346l0.904,-0.347l0.924,-0.353l0.942,-0.358l0.948,-0.359l0.961,-0.361l0.979,-0.365l0.991,-0.367l1.011,-0.371l1.005,-0.365l0.527,-0.19l0.524,-0.189l0.527,-0.187l0.527,-0.188l0.525,-0.185l0.526,-0.184l0.553,-0.193l0.538,-0.186l0.538,-0.185l0.552,-0.189l0.551,-0.186l0.548,-0.185l0.564,-0.188l0.565,-0.188l0.561,-0.184l0.562,-0.183l0.577,-0.187l0.59,-0.188l0.574,-0.182l0.575,-0.181l0.589,-0.183l0.589,-0.182l0.587,-0.179l0.615,-0.185l0.602,-0.18l0.603,-0.177l0.614,-0.179l0.599,-0.172l0.629,-0.179l0.629,-0.177l0.616,-0.17l0.629,-0.171l0.627,-0.169l0.644,-0.171l0.643,-0.167l0.643,-0.166l0.659,-0.166l0.656,-0.163l0.656,-0.16l0.659,-0.158l0.675,-0.159l0.672,-0.154l0.673,-0.152l0.674,-0.149l0.689,-0.15l0.706,-0.149l0.688,-0.142l0.691,-0.139l0.707,-0.139l0.72,-0.137l0.722,-0.134l0.708,-0.128l0.725,-0.127l0.739,-0.125l0.725,-0.118l0.742,-0.117l0.757,-0.115l0.744,-0.109l0.761,-0.106l0.76,-0.102l0.763,-0.097l0.795,-0.096l0.78,-0.09l0.766,-0.082l0.798,-0.081l0.8,-0.076l0.802,-0.071l0.82,-0.066l0.804,-0.059l0.773,-0.051l0.469,-0.029l0.404,-0.023l0.438,-0.023l0.403,-0.02l0.405,-0.019l0.439,-0.018l0.44,-0.017l0.406,-0.014l0.405,-0.013l0.475,-0.012l0.406,-0.009l0.408,-0.008l0.476,-0.007l0.442,-0.004l0.408,-0.003l0.408,-0.001l0.478,0.001Zm-38.903,230.009l6.849,2.254l-0.545,-0.181l-0.547,-0.182l-0.549,-0.183l-0.549,-0.185l-0.547,-0.185l-0.532,-0.181l-0.558,-0.191l-1.063,-0.366l-1.071,-0.373l-1.065,-0.374l-0.09,-0.032l0.267,0.179Zm-21.242,-207.443l-0.214,-0.069l-0.542,-0.168l-0.528,-0.156l-0.514,-0.146l-0.519,-0.141l-0.513,-0.133l-0.445,-0.11l-0.495,-0.118l-0.497,-0.112l-0.491,-0.106l-0.48,-0.098l-0.41,-0.08l-0.31,-0.056l5.958,1.493Z" style="fill:#fffbd7;"/><g id="Hammer"><path d="M80.208,62.978c6.429,18.439 31.63,128.384 42.002,142.361c4.932,6.645 37.049,-0.187 38.735,-7.611c0.875,-3.857 -18.747,-55.27 -21.003,-59.858c-2.839,-5.777 -27.336,-72.686 -30.449,-81.614c-0.181,-0.518 -6.501,-19.356 -9.099,-22.21c-3.554,-3.907 -24.485,4.317 -24.032,7.926c1.636,13.018 3.846,21.006 3.846,21.006Z" style="fill:#dabf96;stroke:#000;stroke-width:1px;"/><path d="M54.352,16.389c1.229,3.526 6.597,15.052 6.743,16.157c0.454,3.407 3.666,9.711 5.825,11.038c0.952,0.586 16.214,-5.767 22.626,-8.002c4.099,-1.429 8.422,-2.567 12.326,-3.928c0.656,-0.228 6.7,-1.946 6.694,-2.567c-0.03,-3.274 -2.098,-6.546 -3.215,-9.751c-0.368,-1.054 -4.669,-17.261 -5.997,-18.536c-1.72,-1.65 -17.556,3.94 -24.03,6.008c-3.905,1.247 -20.972,9.581 -20.972,9.581Z" style="fill:#dbd9d6;stroke:#000;stroke-width:1px;"/><path d="M100.961,3.853c5.128,-1.539 9.55,-1.48 10.92,-1.233c2.261,0.408 5.937,1.38 7.002,1.645c1.013,0.252 12.424,6.382 13.415,6.808c0.652,0.279 4.573,3.195 5.18,3.724c2.32,2.023 3.913,9.416 4.336,11.88c0.105,0.613 0.505,1.487 0.288,1.937c-0.194,0.401 -2.758,-1.388 -3.76,-1.6c-0.959,-0.203 -3.872,-1.582 -4.197,-1.739c-0.77,-0.372 -4.668,-3.406 -6.084,-4.089c-2.044,-0.987 -4.573,-0.909 -6.878,-0.804c-5.06,0.231 -10.621,3.721 -13.053,4.569" style="fill:#dbd9d6;stroke:#000;stroke-width:1px;"/><path d="M55.851,20.802c0.168,-0.058 -0.583,-0.174 -0.768,-0.198c-0.752,-0.097 -0.994,-0.235 -1.493,-0.721c-0.337,-0.328 -0.44,-0.788 -0.802,-0.963c-0.093,-0.045 -0.051,-0.37 -0.145,-0.415c-1.464,-0.708 -3.664,-0.829 -5.466,0.353c-0.646,0.424 -1.227,0.911 -1.928,1.371c-0.479,0.314 -0.995,0.392 -1.24,0.898c-0.205,0.424 -0.746,1.773 -0.814,2.296c-0.069,0.534 1.788,7.591 1.743,7.938c-0.069,0.536 1.537,5.9 2.061,6.578c0.389,0.504 2.243,3.937 2.631,4.206c0.083,0.058 3.05,5.259 3.774,5.249c0.129,-0.002 1.309,-0.231 1.395,-0.22c0.39,0.051 4.956,-1.38 5.239,-1.671c0.807,-0.829 2.127,-1.781 2.695,-2.958c0.152,-0.314 -0.657,-1.743 -0.811,-1.817c-0.184,-0.089 -0.713,-1.586 -0.615,-1.791c0.219,-0.453 0.742,-1.044 1.359,-1.259" style="fill:#dbd9d6;stroke:#000;stroke-width:1px;"/><path d="M85.468,59.183c-0.29,-0.028 3.225,10.385 3.174,10.909c-0.301,3.1 0.687,3.878 1.408,5.755c0.113,0.293 2.21,10.28 3.463,13.54c0.389,1.014 1.515,8.126 2.143,9.759c0.315,0.821 2.61,12.999 4.557,16.737c1.191,2.286 2.596,9.507 2.951,10.119c0.649,1.118 3.388,10.302 3.784,12.954c1.014,6.791 3.721,12.497 4.828,19.907c0.016,0.114 2.211,4.669 2.247,4.796c0.313,1.114 2.126,5.987 2.463,7.461c0.863,3.768 2.922,7.253 4.065,10.226c1.747,4.547 4.695,10.91 5.368,13.732c0.203,0.851 1.809,4.771 3.355,5.495c1.048,0.492 5.13,-0.437 6.356,-0.908c0.776,-0.298 2.048,-1.206 2.918,-1.121" style="fill:none;stroke:#663f02;stroke-width:1px;"/></g><g id="Spanner"><path d="M261.453,62.026c-1.185,4.422 -4.593,10.158 -4.892,15.271c-0.196,3.344 0.209,6.197 1.735,8.454c2.629,3.889 8.1,5.788 14.1,4.08c1.605,-0.456 4.091,-4.206 6.193,-9.183c1.36,-3.218 3.498,-8.079 4.353,-11.27c0.165,-0.616 1.165,-3.591 0.942,-4.071c-0.076,-0.163 5.194,2.475 6.003,4.019c0.886,1.69 2.937,4.977 3.477,8.537c0.424,2.798 -0.011,5.213 -0.18,7.015c-0.198,2.113 -4.227,12.524 -5.505,14.576c-6.329,10.163 -12.217,13.745 -14.838,14.049c-1.115,0.13 -3.671,7.322 -4.507,8.404c-1.082,1.4 -19.2,66.138 -19.029,67.405c0.094,0.698 -1.949,7.208 -1.797,8.331c0.609,4.517 6.959,2.615 9.314,15.269c0.702,3.766 -2.15,12.374 -7.806,19.894c-2.284,3.037 -12.629,8.274 -16.273,7.298c0,0 2.041,-5.919 2.143,-6.301c0.382,-1.424 3.7,-11.738 3.597,-12.429c-0.506,-3.398 0.873,-8.084 -7.144,-10.232c-0.602,-0.162 -7.722,-0.809 -9.48,0.822c-2.131,1.978 -3.619,8.353 -4.521,11.716c-0.779,2.908 -3.705,11.597 -4.128,11.07c-2.244,-2.797 -6.969,-8.172 -7.73,-11.231c-2.545,-10.225 0.486,-18.209 1.24,-19.904c0.854,-1.922 5.48,-9.024 18.305,-11.1c2.624,-0.425 6.681,-14.511 8.254,-20.369c1.059,-3.943 16.854,-63.142 16.521,-63.86c-1.3,-2.801 -8.484,-4.62 -8.558,-16.598c-0.044,-7.045 0.279,-15.721 3.384,-20.976c0.669,-1.132 2.686,-4.017 3.552,-4.909c1.214,-1.252 2.759,-3.147 3.683,-3.796c2.993,-2.105 6.617,-2.734 10.145,-2.689c0.308,0.004 -0.553,2.708 -0.553,2.708Z" style="fill:#e5e5e5;stroke:#000;stroke-width:1px;"/><path d="M269.125,116.196c-0.679,2.535 -11.285,42.624 -12.513,44.214c-0.971,1.257 -4.169,18.875 -5.483,23.777c-0.196,0.734 -3.375,11.129 -3.758,11.026" style="fill:#e5e5e5;stroke:#b5b5b5;stroke-width:1px;"/></g><g id="Screwdriver"><path d="M354.625,229.466c-5.027,3.675 -23.625,17.91 -27.188,20.515c-1.645,1.202 -25.557,18.276 -27.177,19.393c-2.77,1.911 -8.96,6.667 -13.193,9.761c-0.668,0.488 -2.671,1.779 -3.414,2.402c-0.651,0.547 -8.288,11.135 -8.047,12.377c0.278,1.427 14.121,-4.149 14.534,-4.452c1.086,-0.799 10.347,-7.442 14.559,-10.866c0.876,-0.712 26.101,-19.329 29.517,-21.705c4.128,-2.872 26.528,-19.012 26.665,-19.386c0.153,-0.42 -6.256,-8.039 -6.256,-8.039Z" style="fill:#efefef;stroke:#080500;stroke-width:1px;"/><g><path d="M416.068,168.544c-11.495,8.402 -45.769,32.873 -46.455,35.961c-0.366,1.649 1.244,4.164 0.06,5.289c-4.903,4.654 -7.77,5.006 -8.153,4.667c-1.606,-1.424 -1.651,-1.732 -3.317,-1.902c-2.835,-0.288 -7.45,3.645 -8.124,6.374c-1.161,4.695 15.789,26.471 18.476,25.963c3.384,-0.639 6.903,-3.955 7.751,-5.418c0.577,-0.995 0.016,-2.556 0.063,-3.699c0.092,-2.256 4.917,-6.437 6.843,-7.014c1.729,-0.518 2.12,1.622 4.629,1.284c0.602,-0.081 24.414,-16.647 26.959,-18.427c5.596,-3.913 23.422,-16.849 23.651,-17.42c0.391,-0.974 -3.459,-9.733 -8.503,-16.254c-4.791,-6.194 -11.225,-10.931 -11.46,-10.931c-0.318,0.001 -2.42,1.527 -2.42,1.527Z" style="fill:#ffb9ac;stroke:#080500;stroke-width:1px;"/><path d="M416.637,177.3c-7.874,5.756 -16.29,12.606 -24.025,18.26c-2.396,1.752 -11.376,7.966 -13.382,9.432" style="fill:none;stroke:#c68f84;stroke-width:3.02px;"/><path d="M422.231,184.775c-7.874,5.755 -16.291,12.606 -24.025,18.26c-2.396,1.751 -11.376,7.966 -13.382,9.432" style="fill:none;stroke:#c68f84;stroke-width:3.02px;"/><path d="M427.91,192.187c-7.874,5.756 -16.291,12.607 -24.025,18.26c-2.397,1.752 -11.376,7.966 -13.382,9.432" style="fill:none;stroke:#c68f84;stroke-width:3.02px;"/></g></g></g></svg>