<?xml version="1.0" encoding="UTF-8" standalone="no"?><!DOCTYPE svg PUBLIC "-//W3C//DTD SVG 1.1//EN" "http://www.w3.org/Graphics/SVG/1.1/DTD/svg11.dtd"><svg width="100%" height="100%" viewBox="0 0 508 349" version="1.1" xmlns="http://www.w3.org/2000/svg" xmlns:xlink="http://www.w3.org/1999/xlink" xml:space="preserve" xmlns:serif="http://www.serif.com/" style="fill-rule:evenodd;clip-rule:evenodd;stroke-linecap:round;stroke-linejoin:round;stroke-miterlimit:1.5;"><g id="Browser"><path d="M273.691,12.481l0.006,0.001l5.875,1.301l5.705,1.914l5.471,2.506l5.177,3.069l0.001,0.001l5.269,3.971l4.773,4.554l4,4.817l0.155,-0.082l0.71,-0.366l0.714,-0.364l0.713,-0.358l0.699,-0.346l0.689,-0.338l0.69,-0.334l0.675,-0.322l0.679,-0.321l0.666,-0.311l0.665,-0.308l0.666,-0.304l0.641,-0.29l0.642,-0.287l0.641,-0.284l0.627,-0.275l0.616,-0.268l0.614,-0.265l0.613,-0.262l0.603,-0.256l0.59,-0.248l0.586,-0.244l0.586,-0.243l0.574,-0.237l0.562,-0.23l0.546,-0.222l0.546,-0.221l0.559,-0.225l0.548,-0.22l1.017,-0.405l1.018,-0.403l0.988,-0.389l1.853,-0.727l0.891,-0.349l0.849,-0.333l0.816,-0.322l0.781,-0.31l0.771,-0.308l0.353,-0.142l0.345,-0.139l0.345,-0.14l0.329,-0.135l0.326,-0.134l0.325,-0.134l0.3,-0.125l0.305,-0.129l0.293,-0.123l0.279,-0.12l0.26,-0.112l0.272,-0.118l0.261,-0.114l0.231,-0.102l0.238,-0.107l0.238,-0.108l0.209,-0.095l0.208,-0.097l0.208,-0.096l0.179,-0.085l0.187,-0.09l0.171,-0.083l0.159,-0.078l0.154,-0.077l0.141,-0.071l0.137,-0.07l0.137,-0.071l0.109,-0.057l0.105,-0.056l0.155,-0.084l0.034,-0.019l0.056,-0.031l0.027,-0.016l0.043,-0.024l0.049,-0.028l0.026,-0.015l0.027,-0.015l0.042,-0.025l0.026,-0.015l0.019,-0.012l0.02,-0.011l0.024,-0.015l0.018,-0.011l0.034,-0.021l0.019,-0.012l0.003,-0.002l0.03,-0.019l0.009,-0.006l0.218,-0.144l0.648,-0.426l0.885,-0.558l0.819,-0.5l0.841,-0.496l0.82,-0.467l0.768,-0.425l0.781,-0.417l0.761,-0.395l0.723,-0.363l0.693,-0.339l0.72,-0.341l0.671,-0.308l0.653,-0.294l0.683,-0.296l0.633,-0.268l0.611,-0.252l0.596,-0.24l0.602,-0.235l0.623,-0.238l0.569,-0.21l0.521,-0.19l0.554,-0.195l0.543,-0.188l0.533,-0.18l0.531,-0.174l0.478,-0.154l0.506,-0.159l0.504,-0.154l0.501,-0.151l0.452,-0.132l0.437,-0.126l0.522,-0.146l0.436,-0.119l0.422,-0.114l0.423,-0.111l0.416,-0.107l0.447,-0.113l0.502,-0.124l0.747,-0.179l0.783,-0.179l0.749,-0.166l0.755,-0.16l0.741,-0.151l0.708,-0.14l0.698,-0.131l0.669,-0.122l0.656,-0.115l0.647,-0.109l0.619,-0.101l0.608,-0.096l0.602,-0.091l0.573,-0.083l0.59,-0.083l0.535,-0.073l0.531,-0.07l0.547,-0.069l0.493,-0.06l0.49,-0.058l0.482,-0.055l0.478,-0.052l0.446,-0.048l0.442,-0.045l0.438,-0.044l0.438,-0.041l0.431,-0.04l0.681,-0.06l0.715,-0.058l0.655,-0.05l0.588,-0.041l0.487,-0.032l0.443,-0.027l0.477,-0.027l0.309,-0.015l7.244,0.101l7.172,1.021l6.985,1.922l6.684,2.794l6.275,3.619l5.766,4.387l5.161,5.084l4.475,5.697l3.715,6.22l2.895,6.64l2.029,6.955l1.129,7.156l0.212,7.241l-0.709,7.21l-1.618,7.062l-2.502,6.798l-0.129,0.248l1.782,1.184l2.501,1.837l2.531,2.105l2.442,2.265l2.303,2.417l2.359,2.761l2.2,2.985l1.934,2.964l1.795,3.195l1.497,3.093l1.318,3.183l1.168,3.401l0.93,3.392l0.672,3.175l0.465,2.984l0.3,2.879l0.153,2.797l0.019,2.887l-0.119,2.609l-0.18,2.136l-0.264,2.2l-0.37,2.291l-0.407,2.011l-0.413,1.759l-0.459,1.71l-0.475,1.585l-0.512,1.555l-0.486,1.341l-0.472,1.23l-0.556,1.343l-0.46,1.042l-0.481,1.047l-0.519,1.061l-0.489,0.964l-0.155,0.289l0.919,0.184l3.106,0.787l3.685,1.176l4.097,1.652l2.068,1.034l4.633,2.593l0.012,0.008l5.593,3.968l0.011,0.009l4.576,4.107l0.01,0.009l2.753,2.956l2.537,3.144l0.008,0.011l2.251,3.227l2.022,3.376l0.007,0.011l1.909,3.777l1.624,3.909l0.005,0.012l1.412,4.307l1.065,4.406l0.003,0.013l0.971,7.251l0.001,0.014l0.068,6.671l-0.001,0.015l-0.708,6.61l-0.003,0.016l-1.268,5.757l-0.619,2.246l-1.443,3.955l-1.598,3.619l-1.559,2.936l-1.418,2.411l-1.582,2.387l-1.348,1.844l-1.115,1.422l-1.214,1.461l-1.134,1.266l-0.84,0.898l-0.692,0.71l-1.064,1.064l-1.1,1.097l-0.667,0.664l-0.726,0.723l-0.798,0.792l-0.856,0.848l-0.911,0.901l-0.974,0.962l-1.024,1.009l-1.075,1.057l-1.127,1.105l-1.172,1.148l-1.216,1.187l-1.257,1.225l-1.294,1.257l-1.334,1.293l-1.366,1.319l-1.389,1.338l-0.723,0.694l-0.713,0.685l-0.727,0.696l-0.73,0.697l-0.734,0.7l-0.75,0.715l-0.744,0.707l-0.752,0.713l-0.763,0.723l-0.763,0.721l-0.768,0.724l-0.774,0.728l-0.777,0.73l-0.776,0.727l-0.786,0.735l-0.792,0.738l-0.787,0.732l-0.793,0.735l-0.797,0.738l-0.799,0.736l-0.796,0.733l-0.801,0.735l-0.805,0.736l-0.809,0.737l-0.803,0.729l-0.805,0.73l-0.814,0.734l-0.805,0.724l-0.809,0.725l-0.812,0.724l-0.807,0.717l-0.81,0.718l-0.814,0.716l-0.808,0.709l-0.811,0.709l-0.81,0.703l-0.811,0.701l-0.808,0.694l-0.809,0.691l-0.809,0.688l-0.813,0.687l-0.813,0.681l-0.782,0.652l-0.43,0.356l-0.406,0.335l-0.401,0.33l-0.421,0.345l-0.405,0.331l-0.402,0.326l-0.411,0.332l-0.406,0.328l-0.413,0.331l-0.412,0.329l-0.408,0.324l-0.404,0.319l-0.425,0.335l-0.422,0.33l-0.405,0.316l-0.418,0.323l-0.413,0.318l-0.426,0.326l-0.434,0.33l-0.431,0.325l-0.414,0.311l-0.423,0.316l-0.451,0.334l-0.44,0.323l-0.436,0.318l-0.439,0.317l-0.445,0.32l-0.471,0.335l-0.451,0.318l-0.458,0.321l-0.473,0.326l-0.482,0.331l-0.482,0.326l-0.499,0.335l-0.498,0.33l-0.501,0.328l-0.525,0.339l-0.529,0.337l-0.55,0.346l-0.567,0.351l-0.566,0.345l-0.573,0.344l-0.614,0.361l-0.638,0.37l-0.628,0.355l-0.67,0.372l-0.708,0.383l-0.709,0.375l-0.779,0.402l-0.802,0.401l-0.809,0.393l-0.867,0.407l-0.907,0.41l-0.971,0.423l-0.932,0.389l-0.642,0.257l-0.624,0.245l-0.556,0.21l-0.502,0.186l-0.665,0.24l-0.685,0.237l-0.631,0.212l-0.651,0.21l-0.743,0.232l-0.78,0.231l-0.723,0.205l-0.824,0.223l-0.763,0.194l-0.888,0.217l-0.928,0.207l-0.86,0.181l-1.092,0.211l-1.033,0.18l-0.968,0.152l-1.117,0.157l-1.273,0.152l-1.204,0.117l-1.26,0.099l-1.31,0.071l-1.361,0.047l-1.414,0.012l-1.607,-0.021l-1.658,-0.076l-1.457,-0.102l-1.793,-0.171l-1.842,-0.243l-1.77,-0.283l-1.818,-0.355l-2.014,-0.454l-2.074,-0.559l-2.122,-0.647l-2.129,-0.752l-2.052,-0.804l-2.196,-0.969l-2.174,-1.066l-2.194,-1.196l-2.171,-1.308l-2.176,-1.446l-2.084,-1.528l-1.514,-1.213l-2.681,1.34l-2.171,0.996l-2.407,0.965l-1.881,0.667l-1.325,0.43l-1.119,0.339l-0.993,0.281l-0.718,0.192l-0.671,0.174l-0.65,0.16l-0.516,0.122l-0.461,0.107l-0.531,0.119l-0.731,0.158l-0.705,0.148l-0.678,0.136l-0.609,0.12l-0.593,0.115l-0.584,0.111l-0.565,0.106l-0.577,0.107l-1.092,0.202l-2.237,0.409l-1.126,0.207l-0.228,0.043l-0.345,0.209l-1.297,0.74l-1.408,0.761l-1.611,0.808l-1.651,0.766l-1.9,0.812l-2.257,0.86l-2.378,0.791l-2.604,0.744l-2.763,0.642l-2.024,0.369l-1.414,0.224l-1.747,0.231l-2.091,0.201l-2.184,0.128l-1.977,0.039l-2.35,-0.024l-2.125,-0.131l-2.211,-0.186l-2.835,-0.397l-2.289,-0.425l-2.652,-0.593l-2.62,-0.748l-2.395,-0.78l-2.922,-1.12l-2.621,-1.183l-2.303,-1.158l-2.661,-1.501l-2.463,-1.588l-2.273,-1.608l-2.354,-1.864l-2.091,-1.835l-1.806,-1.74l-1.756,-1.835l-1.875,-2.155l-1.562,-1.998l-1.415,-1.949l-0.828,-1.265l-0.307,0.148l-0.695,0.331l-0.689,0.327l-0.688,0.325l-0.692,0.326l-0.683,0.32l-0.684,0.319l-0.702,0.325l-0.693,0.32l-0.681,0.313l-0.697,0.318l-0.699,0.317l-0.689,0.311l-0.687,0.309l-0.686,0.307l-0.697,0.31l-0.704,0.311l-0.683,0.3l-0.694,0.303l-0.694,0.301l-0.692,0.299l-0.7,0.3l-0.689,0.294l-0.69,0.293l-0.7,0.294l-0.697,0.292l-0.699,0.29l-0.697,0.288l-0.695,0.285l-0.696,0.283l-0.696,0.281l-0.694,0.279l-0.644,0.257l-0.472,0.242l-0.892,0.459l-0.889,0.459l-0.882,0.456l-0.877,0.455l-0.873,0.455l-0.87,0.454l-0.863,0.451l-0.865,0.454l-0.854,0.45l-0.84,0.443l-0.84,0.445l-0.831,0.442l-0.825,0.439l-0.815,0.436l-0.806,0.432l-0.799,0.43l-0.783,0.422l-0.777,0.421l-0.768,0.417l-0.752,0.41l-0.743,0.407l-0.728,0.4l-0.716,0.395l-0.705,0.39l-0.681,0.379l-0.674,0.376l-0.654,0.366l-0.641,0.361l-0.628,0.356l-0.605,0.344l-0.588,0.336l-0.564,0.325l-0.549,0.317l-0.525,0.305l-0.501,0.294l-0.483,0.284l-0.163,0.097l-0.517,0.475l-1.88,1.605l-2.246,1.733l-2.095,1.46l-2.796,1.786l-3.83,2.057l-2.007,0.887l-7.03,2.57l-0.01,0.003l-4.725,1.166l-4.806,0.759l-0.009,0.001l-5.443,0.359l-5.452,-0.163l-5.412,-0.685l-0.007,-0.001l-7.244,-1.766l-6.951,-2.698l-6.539,-3.583l-0.005,-0.003l-4.133,-2.894l-3.859,-3.249l-3.557,-3.578l-0.014,-0.015l-3.265,-3.929l-0.012,-0.016l-2.725,-3.998l-0.328,0.112l-0.419,0.143l-0.447,0.148l-0.421,0.139l-0.46,0.149l-0.455,0.146l-0.455,0.142l-0.465,0.144l-0.499,0.151l-0.505,0.149l-0.474,0.137l-0.515,0.147l-0.523,0.145l-0.522,0.141l-0.531,0.139l-0.545,0.141l-0.627,0.155l-0.596,0.143l-0.571,0.133l-0.618,0.138l-0.633,0.136l-0.691,0.142l-0.656,0.128l-0.68,0.128l-0.788,0.138l-0.758,0.124l-0.786,0.121l-0.808,0.113l-0.831,0.107l-0.914,0.106l-0.945,0.095l-0.978,0.085l-0.958,0.068l-1.057,0.06l-1.156,0.044l-1.205,0.025l-1.196,0l-1.316,-0.022l-1.372,-0.058l-1.377,-0.086l-1.571,-0.137l-1.651,-0.188l-1.655,-0.236l-1.744,-0.297l-1.696,-0.344l-1.17,-0.27l-1.005,-0.247l-1.173,-0.313l-0.899,-0.26l-1.073,-0.323l-1.233,-0.409l-0.963,-0.337l-1.158,-0.428l-1.325,-0.526l-1.164,-0.497l-1.15,-0.515l-1.231,-0.588l-1.243,-0.629l-1.361,-0.731l-1.265,-0.726l-1.276,-0.77l-1.41,-0.907l-1.28,-0.877l-1.232,-0.889l-1.276,-0.976l-1.264,-1.022l-1.366,-1.171l-1.334,-1.222l-1.227,-1.193l-1.083,-1.116l-1.039,-1.124l-1.168,-1.339l-1.085,-1.326l-0.983,-1.272l-1.007,-1.381l-0.878,-1.285l-0.905,-1.392l-0.92,-1.527l-0.831,-1.467l-0.74,-1.407l-0.751,-1.516l-0.664,-1.463l-0.626,-1.461l-0.619,-1.589l-0.535,-1.485l-0.496,-1.51l-0.432,-1.441l-0.424,-1.559l-0.36,-1.502l-0.291,-1.348l-0.283,-1.483l-0.222,-1.374l-0.027,-0.191l-0.56,-1.183l-1.215,-2.945l-1.051,-3.046l-0.874,-3.047l-0.758,-3.352l-0.554,-3.426l-0.355,-3.467l-0.143,-3.635l0.085,-3.514l0.285,-3.441l0.494,-3.409l0.661,-3.221l0.859,-3.255l0.979,-2.966l1.043,-2.719l1.176,-2.636l1.222,-2.427l1.25,-2.216l1.249,-2.019l1.322,-1.952l1.307,-1.773l1.221,-1.538l1.213,-1.433l1.232,-1.362l0.069,-0.072l-0.878,-3.188l-0.776,-3.947l-0.426,-3.298l-0.242,-3.104l-0.034,-1.676l0.193,-5.956l0.001,-0.013l0.568,-4.528l0.041,-0.199l-0.499,-0.23l-1.922,-0.971l-1.727,-0.953l-1.83,-1.087l-1.799,-1.171l-1.579,-1.102l-1.581,-1.185l-1.486,-1.194l-1.398,-1.197l-1.34,-1.222l-1.276,-1.238l-1.227,-1.264l-1.142,-1.247l-1.171,-1.352l-1.14,-1.406l-1.099,-1.438l-1.148,-1.609l-1.077,-1.625l-0.997,-1.613l-0.998,-1.739l-0.935,-1.773l-0.872,-1.794l-0.83,-1.87l-0.755,-1.876l-0.718,-1.978l-0.621,-1.931l-0.542,-1.891l-0.501,-2.012l-0.421,-1.992l-0.34,-1.928l-0.281,-1.969l-0.204,-1.915l-0.146,-1.915l-0.076,-1.848l-0.024,-1.84l0.04,-1.836l0.08,-1.628l0.135,-1.746l0.182,-1.671l0.211,-1.564l0.264,-1.614l0.281,-1.468l0.3,-1.388l0.335,-1.387l0.356,-1.332l0.38,-1.305l0.347,-1.096l-0.278,-0.797l-1.511,-7.294l-0.547,-7.43l0.428,-7.437l1.395,-7.317l2.338,-7.074l3.241,-6.707l4.089,-6.227l4.867,-5.64l5.561,-4.956l0.051,-0.035l0.113,-0.162l0.357,-0.511l0.387,-0.549l0.399,-0.56l0.428,-0.594l0.431,-0.592l0.262,-0.356l0.259,-0.348l0.257,-0.344l0.256,-0.339l0.286,-0.376l0.291,-0.377l0.296,-0.38l0.3,-0.383l0.327,-0.41l0.333,-0.414l0.366,-0.449l0.382,-0.46l0.365,-0.435l0.402,-0.471l0.422,-0.486l0.453,-0.513l0.499,-0.554l0.506,-0.551l0.514,-0.548l0.556,-0.58l0.58,-0.59l0.641,-0.637l0.709,-0.686l0.733,-0.687l0.744,-0.675l0.812,-0.716l0.934,-0.794l0.865,-0.705l0.716,-0.567l0.633,-0.491l0.628,-0.478l0.585,-0.435l0.571,-0.418l0.585,-0.421l0.567,-0.4l0.562,-0.391l0.535,-0.365l0.503,-0.338l0.537,-0.357l0.505,-0.329l0.464,-0.3l0.478,-0.305l0.459,-0.288l0.474,-0.295l0.42,-0.258l0.413,-0.252l0.421,-0.253l0.381,-0.228l0.396,-0.234l0.413,-0.242l0.666,-0.387l0.639,-0.367l0.592,-0.337l0.547,-0.309l0.492,-0.276l0.843,-0.473l0.318,-0.179l0.273,-0.155l0.021,-0.012l0.307,-0.225l0.495,-0.359l0.505,-0.363l0.53,-0.377l0.523,-0.367l0.532,-0.37l0.537,-0.368l0.548,-0.371l0.559,-0.373l0.567,-0.373l0.581,-0.377l0.579,-0.369l0.596,-0.374l0.648,-0.399l0.65,-0.392l0.653,-0.387l0.692,-0.401l0.693,-0.391l0.755,-0.417l0.773,-0.415l0.795,-0.415l0.865,-0.437l0.918,-0.448l0.926,-0.435l0.988,-0.447l0.977,-0.421l0.66,-0.275l0.51,-0.206l0.589,-0.234l0.705,-0.269l0.585,-0.216l0.596,-0.215l0.773,-0.268l0.748,-0.248l0.676,-0.216l0.703,-0.216l0.845,-0.247l0.867,-0.24l0.819,-0.214l0.963,-0.237l0.882,-0.201l0.941,-0.202l1.097,-0.213l1.022,-0.181l1.09,-0.173l1.135,-0.157l1.18,-0.141l1.388,-0.137l1.313,-0.095l1.234,-0.066l1.582,-0.048l1.506,0l1.43,0.03l1.805,0.088l1.716,0.143l1.621,0.175l1.694,0.236l1.94,0.325l1.988,0.416l2.057,0.495l2.108,0.604l1.817,0.586l3.522,-1.84l7.074,-2.576l7.352,-1.621l5.412,-0.459l0.998,-0.613l2.053,-1.165l2.231,-1.135l1.829,-0.841l1.428,-0.605l1.593,-0.631l1.953,-0.695l2.042,-0.644l2.255,-0.618l2.459,-0.561l2.63,-0.478l3.189,-0.42l3.413,-0.232l3.329,-0.039l3.562,0.173l1.839,0.208l5.252,0.845l2.03,0.424l4.112,1.175l2.082,0.773l5.335,2.298l2.013,0.991l1.93,1.146l4.422,2.912l0.014,0.01l4.246,3.41l0.013,0.012l3.783,3.673l1.477,1.574l2.887,3.579l2.5,3.711l0.104,-0.055l0.735,-0.386l0.746,-0.389l0.742,-0.384l0.722,-0.372l0.743,-0.379l0.737,-0.372l0.724,-0.364l0.738,-0.367l0.738,-0.364l0.73,-0.356l0.726,-0.352l0.736,-0.353l0.741,-0.351l0.739,-0.347l0.734,-0.34l0.735,-0.337l0.742,-0.337l0.738,-0.33l0.754,-0.333l0.76,-0.331l0.749,-0.321l0.762,-0.322l0.763,-0.318l0.739,-0.302l0.439,-0.177l0.378,-0.151l0.379,-0.151l0.406,-0.159l0.403,-0.157l0.405,-0.155l0.413,-0.157l0.382,-0.144l0.412,-0.154l0.443,-0.163l0.413,-0.149l0.392,-0.141l0.418,-0.148l0.451,-0.158l0.425,-0.146l0.428,-0.146l0.433,-0.145l0.467,-0.155l0.467,-0.151l0.408,-0.13l0.477,-0.15l0.482,-0.148l0.456,-0.138l0.494,-0.147l0.501,-0.145l0.497,-0.141l0.474,-0.132l0.522,-0.142l0.525,-0.138l0.528,-0.137l0.541,-0.135l0.552,-0.135l0.591,-0.139l0.526,-0.12l0.582,-0.129l0.629,-0.133l0.596,-0.121l0.653,-0.128l0.626,-0.116l0.641,-0.114l0.696,-0.116l0.664,-0.104l0.731,-0.109l0.747,-0.101l0.77,-0.098l0.739,-0.083l0.755,-0.079l0.883,-0.081l0.856,-0.066l0.882,-0.058l0.907,-0.047l0.936,-0.035l0.964,-0.022l0.519,-0.004l4.934,0.173l4.901,0.6Zm167.149,260.841l-0.006,-0.592l-0.04,-1.232l-0.068,-1.247l-0.104,-1.317l-0.142,-1.374l-0.17,-1.305l0.53,7.067Zm-0.663,-7.94l-0.109,-0.701l-0.306,-1.638l-0.346,-1.591l-0.365,-1.466l1.126,5.396Zm44.602,-3.809l0.048,-0.045l0.157,-0.156l-0.205,0.201Zm-436.052,-218.452l-1.085,0.192l-0.867,0.17l-0.968,0.204l-1.031,0.242l-0.666,0.168l4.977,-1.031l-0.36,0.055Zm7.601,-0.709l-1.181,0.043l-1.059,0.054l-1.163,0.088l-1.04,0.099l-1.03,0.118l-0.81,0.109l7.015,-0.516l-0.732,0.005Z" style="fill:#e5f7e3;"/><g id="_-Browser" serif:id=" Browser"><path d="M98.954,90.137c0.325,3.844 5.53,77.828 7.025,88.213c1.511,10.492 3.959,109.644 7.056,114.721c1.092,1.79 136.039,0.49 155.056,-3.263c14.241,-2.811 77.573,-8.586 93.235,-7.316c15.239,1.236 51.185,-2.564 53.036,-4.16c1.245,-1.073 -4.769,-38.406 -4.213,-52.245c0.4,-9.965 -8.763,-177.643 -10.959,-177.999c-15.501,-2.513 -218.405,15.604 -228.378,15.693c-24.663,0.221 -72.859,7.777 -73.447,10.085c-0.541,2.121 1.589,16.271 1.589,16.271Z" style="fill:#fff;stroke:#000;stroke-width:1px;"/><path d="M97.328,70.874c0.022,0.262 -0.706,13.597 1.975,13.735c0.945,0.048 131.265,-10.266 150.45,-12.032c14.367,-1.322 77.733,-6.7 93.192,-7.829c15.041,-1.098 55.385,-4.314 57.349,-4.578c1.321,-0.177 -1.316,-14.683 -1.425,-15.888c-0.168,-1.839 -218.183,18.225 -228.099,19.011c-24.517,1.943 -72.985,6.272 -73.75,6.49c-0.702,0.201 0.308,1.091 0.308,1.091Z" style="fill:#eee;stroke:#000;stroke-width:1px;"/><path d="M388.742,49.385c1.903,-0.16 3.584,1.322 3.752,3.307c0.168,1.986 -1.241,3.729 -3.144,3.89c-1.904,0.161 -3.585,-1.321 -3.753,-3.307c-0.167,-1.986 1.242,-3.729 3.145,-3.89Z" style="fill:#eee;stroke:#000;stroke-width:1px;"/><path d="M376.753,50.204c1.903,-0.161 3.584,1.321 3.752,3.307c0.168,1.986 -1.241,3.729 -3.145,3.89c-1.903,0.16 -3.584,-1.322 -3.752,-3.308c-0.167,-1.985 1.242,-3.728 3.145,-3.889Z" style="fill:#eee;stroke:#000;stroke-width:1px;"/><path d="M364.929,51.202c1.903,-0.16 3.585,1.321 3.752,3.307c0.168,1.986 -1.241,3.729 -3.144,3.89c-1.903,0.16 -3.585,-1.321 -3.752,-3.307c-0.168,-1.986 1.241,-3.729 3.144,-3.89Z" style="fill:#eee;stroke:#000;stroke-width:1px;"/><path d="M122.262,98.087c0,0 1.168,7.892 1.547,12.371c0.065,0.776 -0.383,4.63 0.367,5.264c1.319,1.114 5.807,-0.876 7.693,-0.419c4.781,1.158 28.836,-2.434 29.609,-3.35c0.953,-1.128 0.175,-13.835 -0.962,-14.795c-0.391,-0.331 0.192,-2.779 -0.249,-2.955c-1.25,-0.498 -4.177,0.353 -5.487,0.463c-4.99,0.422 -9.79,1.252 -14.736,1.669c-5.968,0.504 -16.802,1.321 -17.782,1.752Z" style="fill:#f0f0f0;"/><path d="M220.744,141.836c0,0 1.193,9.619 1.653,15.067c0.08,0.944 -0.115,5.603 0.482,6.401c1.05,1.402 4.399,-0.84 5.857,-0.214c3.694,1.587 21.921,-1.851 22.476,-2.932c0.684,-1.333 -0.396,-16.779 -1.301,-17.987c-0.311,-0.416 0.041,-3.364 -0.303,-3.594c-0.973,-0.652 -3.175,0.268 -4.171,0.352c-3.793,0.32 -7.426,1.144 -11.186,1.461c-4.537,0.383 -12.775,0.96 -13.507,1.446Z" style="fill:#f0f0f0;"/><path d="M223.986,180.242c0,0 1.194,9.62 1.653,15.068c0.08,0.944 -0.115,5.603 0.482,6.4c1.05,1.402 4.4,-0.84 5.857,-0.214c3.694,1.588 21.921,-1.85 22.476,-2.931c0.684,-1.333 -0.396,-16.779 -1.3,-17.988c-0.312,-0.416 0.04,-3.363 -0.304,-3.594c-0.973,-0.652 -3.175,0.269 -4.171,0.353c-3.793,0.32 -7.425,1.143 -11.186,1.461c-4.536,0.383 -12.775,0.96 -13.507,1.445Z" style="fill:#f0f0f0;"/><g id="Text"><path d="M129.662,149.559c0,0 1.134,1.665 1.22,2.653c0.015,0.171 -1.423,1.14 -0.048,1.173c2.417,0.059 11.48,-1.091 15.101,-1.273c9.179,-0.46 56.735,-4.974 58.38,-5.306c2.027,-0.409 2.358,-3.259 0.274,-3.309c-0.717,-0.018 0.78,-0.679 -0.057,-0.652c-2.37,0.074 -8.218,0.72 -10.795,0.946c-9.817,0.861 -19.322,1.788 -29.054,2.642c-11.743,1.029 -33.042,2.875 -35.021,3.126Z" style="fill:#f0f0f0;"/><path d="M130.129,155.091c0,0 -0.383,3.397 0.367,3.709c0.293,0.122 0.241,0.175 0.405,0.242c0.748,0.309 11.88,-1.216 15.501,-1.398c9.179,-0.46 56.735,-4.974 58.38,-5.306c2.027,-0.41 2.358,-3.259 0.274,-3.309c-0.717,-0.018 0.78,-0.679 -0.057,-0.652c-2.37,0.074 -8.218,0.72 -10.795,0.946c-9.817,0.861 -19.322,1.788 -29.054,2.642c-11.743,1.029 -33.042,2.875 -35.021,3.126Z" style="fill:#f0f0f0;"/><path d="M130.625,161.034c0,0 -0.37,3.396 0.367,3.709c0.287,0.123 0.236,0.175 0.396,0.243c0.734,0.31 11.647,-1.196 15.197,-1.371c8.999,-0.445 57.163,-4.523 57.231,-5.206c0.151,-1.533 -0.165,-2.956 0.263,-3.308c0.544,-0.447 0.764,-0.677 -0.057,-0.652c-2.323,0.07 -8.056,0.706 -10.582,0.928c-9.624,0.844 -18.943,1.754 -28.483,2.591c-11.512,1.009 -32.392,2.819 -34.332,3.066Z" style="fill:#f0f0f0;"/><path d="M130.855,167.165c0,0 -0.115,3.374 0.351,3.711c0.182,0.132 0.152,0.183 0.254,0.256c0.464,0.333 7.17,-0.804 9.362,-0.86c5.556,-0.143 35.237,-2.601 35.256,-3.279c0.042,-1.524 -0.201,-2.953 0.052,-3.29c0.322,-0.427 0.451,-0.649 -0.057,-0.652c-1.436,-0.007 -4.964,0.435 -6.52,0.572c-5.93,0.52 -11.668,1.117 -17.547,1.632c-7.092,0.622 -19.958,1.729 -21.151,1.91Z" style="fill:#f0f0f0;"/></g><g id="Text1" serif:id="Text"><path d="M132.939,188.387c0,0 1.134,1.665 1.221,2.654c0.015,0.171 -1.423,1.14 -0.048,1.173c2.417,0.059 11.48,-1.092 15.101,-1.273c9.179,-0.46 56.735,-4.975 58.379,-5.306c2.028,-0.41 2.358,-3.259 0.275,-3.309c-0.717,-0.018 0.78,-0.679 -0.057,-0.652c-2.37,0.074 -8.218,0.72 -10.795,0.946c-9.817,0.861 -19.323,1.788 -29.055,2.641c-11.742,1.03 -33.041,2.876 -35.021,3.126Z" style="fill:#f0f0f0;"/><path d="M133.406,193.919c0,0 -0.382,3.398 0.368,3.71c0.293,0.122 0.241,0.175 0.405,0.242c0.747,0.309 11.88,-1.217 15.501,-1.398c9.179,-0.46 56.735,-4.975 58.379,-5.307c2.028,-0.409 2.358,-3.258 0.275,-3.309c-0.717,-0.017 0.78,-0.678 -0.057,-0.652c-2.37,0.075 -8.218,0.721 -10.795,0.947c-9.817,0.861 -19.323,1.788 -29.055,2.641c-11.742,1.03 -33.041,2.876 -35.021,3.126Z" style="fill:#f0f0f0;"/><path d="M133.902,199.862c0,0 -0.369,3.396 0.367,3.71c0.288,0.123 0.236,0.175 0.397,0.243c0.734,0.309 11.647,-1.196 15.197,-1.372c8.999,-0.444 57.163,-4.523 57.23,-5.205c0.151,-1.534 -0.164,-2.957 0.264,-3.308c0.544,-0.447 0.764,-0.677 -0.057,-0.652c-2.324,0.07 -8.057,0.706 -10.582,0.927c-9.625,0.844 -18.943,1.755 -28.484,2.592c-11.511,1.009 -32.392,2.818 -34.332,3.065Z" style="fill:#f0f0f0;"/><path d="M134.133,205.994c0,0 -0.116,3.374 0.351,3.711c0.182,0.132 0.152,0.182 0.253,0.255c0.465,0.334 7.171,-0.803 9.362,-0.859c5.557,-0.143 35.238,-2.601 35.256,-3.279c0.043,-1.524 -0.2,-2.954 0.053,-3.29c0.322,-0.427 0.45,-0.649 -0.057,-0.652c-1.436,-0.007 -4.964,0.435 -6.52,0.572c-5.93,0.52 -11.669,1.117 -17.547,1.632c-7.092,0.622 -19.959,1.729 -21.151,1.91Z" style="fill:#f0f0f0;"/></g><path d="M227.121,217.383c0,0 1.194,9.619 1.654,15.067c0.079,0.945 -0.116,5.603 0.482,6.401c1.049,1.402 4.399,-0.84 5.856,-0.214c3.694,1.587 21.921,-1.85 22.476,-2.931c0.684,-1.333 -0.395,-16.78 -1.3,-17.988c-0.312,-0.416 0.04,-3.364 -0.304,-3.594c-0.972,-0.652 -3.175,0.268 -4.17,0.352c-3.794,0.32 -7.426,1.144 -11.186,1.461c-4.537,0.383 -12.776,0.961 -13.508,1.446Z" style="fill:#f0f0f0;"/><path d="M306.864,134.828c0,0 4.555,43.928 6.652,68.764c0.363,4.305 0.841,25.429 2.333,29.169c2.621,6.574 61.69,-3.929 62.719,-8.73c1.268,-5.92 -4.175,-76.295 -6.435,-81.961c-0.778,-1.95 -0.569,-15.27 -1.383,-16.384c-2.302,-3.153 -7.046,0.595 -9.255,0.782c-8.416,0.71 -16.375,3.739 -24.719,4.443c-10.066,0.85 -28.371,1.856 -29.912,3.917Z" style="fill:#f0f0f0;"/><g id="Text2" serif:id="Text"><path d="M136.075,225.528c0,0 1.134,1.665 1.22,2.653c0.015,0.172 -1.423,1.14 -0.048,1.174c2.417,0.058 11.48,-1.092 15.101,-1.273c9.179,-0.461 56.735,-4.975 58.38,-5.307c2.027,-0.409 2.358,-3.258 0.274,-3.309c-0.717,-0.017 0.78,-0.678 -0.057,-0.652c-2.37,0.075 -8.218,0.721 -10.795,0.947c-9.817,0.86 -19.322,1.788 -29.054,2.641c-11.743,1.03 -33.042,2.876 -35.021,3.126Z" style="fill:#f0f0f0;"/><path d="M136.542,231.06c0,0 -0.383,3.397 0.367,3.71c0.293,0.122 0.241,0.174 0.405,0.242c0.748,0.308 11.88,-1.217 15.501,-1.399c9.179,-0.46 56.735,-4.974 58.38,-5.306c2.027,-0.409 2.358,-3.258 0.274,-3.309c-0.717,-0.017 0.78,-0.678 -0.057,-0.652c-2.37,0.075 -8.218,0.721 -10.795,0.947c-9.817,0.86 -19.322,1.788 -29.054,2.641c-11.743,1.029 -33.042,2.876 -35.021,3.126Z" style="fill:#f0f0f0;"/><path d="M137.038,237.003c0,0 -0.37,3.396 0.367,3.71c0.287,0.122 0.236,0.175 0.396,0.242c0.734,0.31 11.647,-1.196 15.197,-1.371c8.999,-0.444 57.164,-4.523 57.231,-5.206c0.151,-1.533 -0.165,-2.956 0.264,-3.308c0.543,-0.446 0.763,-0.677 -0.058,-0.652c-2.323,0.071 -8.056,0.707 -10.582,0.928c-9.624,0.844 -18.943,1.755 -28.483,2.591c-11.512,1.01 -32.392,2.819 -34.332,3.066Z" style="fill:#f0f0f0;"/><path d="M137.268,243.135c0,0 -0.115,3.373 0.351,3.711c0.182,0.131 0.152,0.182 0.254,0.255c0.464,0.333 7.17,-0.804 9.362,-0.86c5.556,-0.142 35.237,-2.6 35.256,-3.279c0.042,-1.524 -0.201,-2.953 0.052,-3.289c0.322,-0.427 0.451,-0.65 -0.057,-0.652c-1.436,-0.008 -4.964,0.435 -6.52,0.571c-5.93,0.52 -11.668,1.117 -17.547,1.633c-7.092,0.622 -19.958,1.728 -21.151,1.91Z" style="fill:#f0f0f0;"/></g><path d="M125.234,127.34c-1.29,0.109 1.866,0.267 2.568,0.208c1.969,-0.166 3.939,-0.332 5.908,-0.499c5.996,-0.506 12.129,-0.598 18.184,-1.11c7.817,-0.66 93.242,-4.405 110.156,-9.299c10.869,-3.144 59.794,-5.421 65.289,-4.797c6.296,0.716 34.19,-1.9 46.275,-2.92" style="fill:none;stroke:#e1e1e1;stroke-width:1px;"/></g></g></svg>